<svg width="200" height="150" viewBox="0 0 200 150" fill="none" xmlns="http://www.w3.org/2000/svg">
<path d="M200 130.96H0V131.06H200V130.96Z" fill="#E0E0E0"/>
<path d="M151.064 135.196H137.304V135.296H151.064V135.196Z" fill="#E0E0E0"/>
<path d="M44.4161 135.244H36.6721V135.344H44.4161V135.244Z" fill="#E0E0E0"/>
<path d="M100.4 135.012H84.7039V135.112H100.4V135.012Z" fill="#E0E0E0"/>
<path d="M84.3041 133.588H77.2881V133.688H84.3041V133.588Z" fill="#E0E0E0"/>
<path d="M169.824 133.64H148.628V133.74H169.824V133.64Z" fill="#E0E0E0"/>
<path d="M94.8 113.12H17.564C16.9589 113.119 16.379 112.878 15.9516 112.45C15.5241 112.021 15.284 111.441 15.284 110.836V2.264C15.2893 1.66241 15.5317 1.08719 15.9586 0.663287C16.3855 0.239383 16.9624 0.00103056 17.564 0H94.8C95.4057 0 95.9867 0.240635 96.415 0.668968C96.8434 1.0973 97.084 1.67825 97.084 2.284V110.836C97.084 111.442 96.8434 112.023 96.415 112.451C95.9867 112.879 95.4057 113.12 94.8 113.12ZM17.564 0.0800003C16.9855 0.0810599 16.431 0.311626 16.0223 0.721091C15.6135 1.13056 15.384 1.68546 15.384 2.264V110.836C15.384 111.415 15.6135 111.969 16.0223 112.379C16.431 112.788 16.9855 113.019 17.564 113.02H94.8C95.3789 113.019 95.9338 112.789 96.3431 112.379C96.7525 111.97 96.9829 111.415 96.984 110.836V2.264C96.9829 1.68509 96.7525 1.1302 96.3431 0.720847C95.9338 0.311496 95.3789 0.0810577 94.8 0.0800003H17.564Z" fill="#E0E0E0"/>
<path d="M181.324 113.12H104.084C103.479 113.119 102.898 112.878 102.47 112.45C102.042 112.022 101.801 111.441 101.8 110.836V2.264C101.806 1.66205 102.05 1.08683 102.477 0.663037C102.905 0.239243 103.482 0.00101932 104.084 0H181.324C181.925 0.0020818 182.501 0.2409 182.927 0.664691C183.353 1.08848 183.595 1.6631 183.6 2.264V110.836C183.6 111.44 183.36 112.02 182.934 112.448C182.507 112.876 181.928 113.118 181.324 113.12ZM104.084 0.0800003C103.505 0.0810577 102.95 0.311496 102.541 0.720847C102.131 1.1302 101.901 1.68509 101.9 2.264V110.836C101.901 111.415 102.131 111.97 102.541 112.379C102.95 112.789 103.505 113.019 104.084 113.02H181.324C181.903 113.019 182.458 112.789 182.867 112.379C183.276 111.97 183.507 111.415 183.508 110.836V2.264C183.507 1.68509 183.276 1.1302 182.867 0.720847C182.458 0.311496 181.903 0.0810577 181.324 0.0800003H104.084Z" fill="#E0E0E0"/>
<path d="M175.724 80.892C170.804 73.4 175.296 65.348 174.548 57.012C173.8 48.676 165.88 46.86 167.38 39.812C169.116 31.62 164.488 23.76 159.244 23.76C154 23.76 149.376 31.6 151.112 39.8C152.612 46.86 144.712 48.68 143.944 57C143.176 65.32 147.688 73.4 142.764 80.88C137.84 88.36 139.136 98.292 141.908 103.216C142.645 104.523 143.534 105.738 144.556 106.836C146.435 108.853 148.708 110.461 151.236 111.561C153.763 112.661 156.49 113.228 159.246 113.228C162.002 113.228 164.729 112.661 167.256 111.561C169.784 110.461 172.057 108.853 173.936 106.836C174.955 105.736 175.843 104.522 176.58 103.216C179.356 98.304 180.648 88.4 175.724 80.892Z" fill="#E0E0E0"/>
<path d="M159.244 86.576C159.571 86.576 159.894 86.6404 160.196 86.7654C160.498 86.8905 160.772 87.0737 161.003 87.3048C161.234 87.5358 161.418 87.8101 161.543 88.1119C161.668 88.4138 161.732 88.7373 161.732 89.0641V130.96H156.756V89.0641C156.756 88.7373 156.82 88.4138 156.945 88.1119C157.07 87.8101 157.254 87.5358 157.485 87.3048C157.716 87.0737 157.99 86.8905 158.292 86.7654C158.594 86.6404 158.917 86.576 159.244 86.576Z" fill="#F0F0F0"/>
<path d="M127.964 130.96H121.2V89.0681C121.202 88.1702 121.56 87.3096 122.195 86.6747C122.83 86.0398 123.69 85.6822 124.588 85.6801C125.486 85.6822 126.346 86.0398 126.981 86.6747C127.616 87.3096 127.974 88.1702 127.976 89.0681L127.964 130.96Z" fill="#E0E0E0"/>
<path d="M124.576 119.66C136.101 119.66 145.444 110.317 145.444 98.792C145.444 87.2669 136.101 77.924 124.576 77.924C113.051 77.924 103.708 87.2669 103.708 98.792C103.708 110.317 113.051 119.66 124.576 119.66Z" fill="#F0F0F0"/>
<path d="M149.097 92.5301C150.192 88.1221 147.507 83.6611 143.099 82.5661C138.691 81.4711 134.23 84.1569 133.135 88.5649C132.04 92.973 134.725 97.434 139.133 98.529C143.541 99.6239 148.003 96.9382 149.097 92.5301Z" fill="#F0F0F0"/>
<path d="M112.5 86.4597C112.933 83.8062 111.132 81.3047 108.478 80.8726C105.825 80.4404 103.323 82.2412 102.891 84.8948C102.459 87.5483 104.26 90.0498 106.913 90.482C109.567 90.9141 112.068 89.1133 112.5 86.4597Z" fill="#F0F0F0"/>
<path d="M112.992 86.576C114.879 86.576 116.408 85.0466 116.408 83.16C116.408 81.2734 114.879 79.744 112.992 79.744C111.105 79.744 109.576 81.2734 109.576 83.16C109.576 85.0466 111.105 86.576 112.992 86.576Z" fill="#F0F0F0"/>
<path d="M81.6 105.956C78.3551 106.439 75.254 107.623 72.512 109.424C72.488 106.256 71.908 103.252 70.42 100.824C68.156 103.028 66.32 105.884 64.82 108.956C64.272 103.2 62.756 97.6 59.4 94.052C54.372 97.216 51.78 102.488 50.548 108.072C48.5127 104.307 45.5585 101.117 41.96 98.8C38.884 102.04 37.9 106.52 37.984 111.112C34.488 107.04 30.608 103.864 26.824 103.492C25.892 109.928 27.876 116 30.4 120.8C32.0387 123.88 34.4868 126.454 37.4804 128.245C40.4739 130.036 43.8996 130.976 47.388 130.964H63.824C70.828 130.964 77.396 127.228 80.68 121.04C82.7561 117.12 83.7481 112.076 81.6 105.956Z" fill="#E0E0E0"/>
<path d="M76.9041 22.856C78.9321 16.908 77.3041 12.672 72.3561 12.672C69.2441 12.672 65.3841 14.34 61.6241 17.052C61.2001 15.504 60.0041 14.58 58.0801 14.58C54.6921 14.58 50.0241 17.444 46.3641 21.484C45.3336 20.505 43.9694 19.9544 42.5481 19.944C39.3041 19.76 35.3801 21.408 31.9681 24.084C31.7971 23.8447 31.5714 23.6498 31.3097 23.5155C31.0481 23.3812 30.7582 23.3114 30.4641 23.312C28.5961 23.208 26.0641 24.872 24.8121 27.024C24.7361 27.156 24.6681 27.288 24.5961 27.424H77.8881C78.0481 25.544 77.7161 23.976 76.9041 22.856Z" fill="#F0F0F0"/>
<path d="M77.068 58.972C78.06 56.068 77.272 54 74.848 54C73.324 54 71.44 54.8 69.604 56.14C69.5051 55.7667 69.2765 55.4409 68.9591 55.221C68.6417 55.0011 68.2563 54.9014 67.872 54.94C66.22 54.94 63.94 56.34 62.148 58.316C61.6457 57.8362 60.9787 57.5671 60.284 57.564C58.684 57.472 56.784 58.276 55.116 59.584C55.0352 59.4683 54.9282 59.3733 54.8038 59.3066C54.6795 59.2399 54.5411 59.2034 54.4 59.2C53.488 59.148 52.252 59.96 51.64 61.012L51.532 61.204H77.564C77.6729 60.4245 77.4967 59.632 77.068 58.972Z" fill="#F0F0F0"/>
<path d="M137.108 36.9961C136.903 36.9672 136.696 36.9525 136.488 36.9521C136.68 34.0521 135.572 32.1961 133.2 32.1961C131.492 32.1961 129.392 33.1641 127.256 34.8001C127.868 29.1681 125.908 25.5081 121.468 25.5081C117.892 25.5081 113.36 27.9081 108.884 31.7721C108.484 29.5641 107.172 28.2361 104.956 28.2361C101.064 28.2361 95.5321 32.3321 91.0961 38.1081C90.5906 37.442 89.9423 36.8976 89.1989 36.5149C88.4556 36.1321 87.6359 35.9207 86.8001 35.8961C83.0961 35.6361 78.4921 37.9881 74.4001 41.8201C74.2512 41.4969 74.0142 41.2223 73.7164 41.0277C73.4185 40.8332 73.0718 40.7265 72.7161 40.7201C70.6881 40.5761 67.9161 42.6921 66.2721 45.5201H140.368C142.108 41.2321 140.724 37.4801 137.108 36.9961Z" fill="#F0F0F0"/>
<path d="M100 149.024C142.833 149.024 177.556 146.997 177.556 144.496C177.556 141.995 142.833 139.968 100 139.968C57.167 139.968 22.444 141.995 22.444 144.496C22.444 146.997 57.167 149.024 100 149.024Z" fill="#F5F5F5"/>
<path d="M19.5439 38.224L110.732 51.352L122.968 63.7L19.5439 38.224Z" fill="#FA1239"/>
<path opacity="0.6" d="M19.5439 38.224L110.732 51.352L122.968 63.7L19.5439 38.224Z" fill="white"/>
<path d="M19.5439 38.224L110.732 51.352L106.5 69.208L19.5439 38.224Z" fill="#FA1239"/>
<path opacity="0.2" d="M19.5439 38.224L110.732 51.352L106.5 69.208L19.5439 38.224Z" fill="black"/>
<path d="M104.628 17.552L109.92 42.352C110.058 42.9996 109.933 43.6753 109.573 44.231C109.213 44.7867 108.647 45.1769 108 45.316L60.768 55.396C60.1205 55.5326 59.4453 55.4073 58.8899 55.0475C58.3345 54.6877 57.9441 54.1227 57.804 53.476L52.508 28.676C52.3716 28.0279 52.4974 27.3522 52.858 26.7967C53.2186 26.2412 53.7845 25.8512 54.432 25.712L101.664 15.632C102.312 15.4955 102.988 15.6214 103.543 15.982C104.099 16.3425 104.489 16.9085 104.628 17.556V17.552Z" fill="#FA1239"/>
<path opacity="0.4" d="M104.628 17.552L109.92 42.352C110.058 42.9996 109.933 43.6753 109.573 44.231C109.213 44.7867 108.647 45.1769 108 45.316L60.768 55.396C60.1205 55.5326 59.4453 55.4073 58.8899 55.0475C58.3345 54.6877 57.9441 54.1227 57.804 53.476L52.508 28.676C52.3716 28.0279 52.4974 27.3522 52.858 26.7967C53.2186 26.2412 53.7845 25.8512 54.432 25.712L101.664 15.632C102.312 15.4955 102.988 15.6214 103.543 15.982C104.099 16.3425 104.489 16.9085 104.628 17.556V17.552Z" fill="black"/>
<path d="M103.464 15.928L87.684 35.3C86.2206 37.096 84.1878 38.3387 81.9221 38.8224C79.6563 39.3061 77.2933 39.0018 75.224 37.96L52.908 26.72C53.2691 26.2013 53.8139 25.8395 54.432 25.708L101.664 15.628C102.28 15.4968 102.924 15.604 103.464 15.928Z" fill="#FA1239"/>
<path d="M19.5439 38.224L94.7559 56.1L106.5 69.208L19.5439 38.224Z" fill="#FA1239"/>
<path opacity="0.6" d="M19.5439 38.224L94.7559 56.1L106.5 69.208L19.5439 38.224Z" fill="white"/>
<path d="M46.9795 55.4541L46.7773 55.7992L55.1472 60.7019L55.3493 60.3567L46.9795 55.4541Z" fill="#FA1239"/>
<path d="M59.0446 62.5181L58.8424 62.8633L61.8521 64.6262L62.0543 64.2811L59.0446 62.5181Z" fill="#FA1239"/>
<path d="M19.5439 38.224L94.7559 56.1L80.1359 73.72L19.5439 38.224Z" fill="#FA1239"/>
<path d="M120.144 80.104C120.043 80.1043 119.942 80.0853 119.848 80.048L107.6 75.2C107.404 75.1211 107.247 74.9678 107.164 74.7737C107.08 74.5796 107.077 74.3604 107.155 74.164C107.232 73.9675 107.385 73.8097 107.578 73.725C107.772 73.6404 107.991 73.6357 108.188 73.712L120.44 78.56C120.613 78.6285 120.757 78.7554 120.847 78.9187C120.937 79.0821 120.967 79.2716 120.932 79.4546C120.896 79.6377 120.799 79.8027 120.655 79.9213C120.511 80.0398 120.33 80.1045 120.144 80.104Z" fill="#FA1239"/>
<path opacity="0.3" d="M120.144 80.104C120.043 80.1043 119.942 80.0853 119.848 80.048L107.6 75.2C107.404 75.1211 107.247 74.9678 107.164 74.7737C107.08 74.5796 107.077 74.3604 107.155 74.164C107.232 73.9675 107.385 73.8097 107.578 73.725C107.772 73.6404 107.991 73.6357 108.188 73.712L120.44 78.56C120.613 78.6285 120.757 78.7554 120.847 78.9187C120.937 79.0821 120.967 79.2716 120.932 79.4546C120.896 79.6377 120.799 79.8027 120.655 79.9213C120.511 80.0398 120.33 80.1045 120.144 80.104Z" fill="black"/>
<path d="M119.42 73.0799C119.32 73.0793 119.22 73.0589 119.128 73.0199L112.548 70.3999C112.45 70.3618 112.36 70.3046 112.284 70.2316C112.207 70.1586 112.146 70.0713 112.104 69.9746C112.062 69.878 112.039 69.7739 112.037 69.6684C112.035 69.5629 112.054 69.4581 112.093 69.36C112.132 69.2619 112.19 69.1724 112.263 69.0967C112.337 69.021 112.424 68.9606 112.521 68.919C112.618 68.8773 112.722 68.8553 112.828 68.8541C112.933 68.8529 113.038 68.8725 113.136 68.9119L119.716 71.5199C119.913 71.5976 120.072 71.7502 120.156 71.9445C120.241 72.1387 120.245 72.3586 120.168 72.5559C120.112 72.7092 120.01 72.8415 119.876 72.9352C119.742 73.0288 119.583 73.0794 119.42 73.0799Z" fill="#FA1239"/>
<path opacity="0.5" d="M119.42 73.0799C119.32 73.0793 119.22 73.0589 119.128 73.0199L112.548 70.3999C112.45 70.3618 112.36 70.3046 112.284 70.2316C112.207 70.1586 112.146 70.0713 112.104 69.9746C112.062 69.878 112.039 69.7739 112.037 69.6684C112.035 69.5629 112.054 69.4581 112.093 69.36C112.132 69.2619 112.19 69.1724 112.263 69.0967C112.337 69.021 112.424 68.9606 112.521 68.919C112.618 68.8773 112.722 68.8553 112.828 68.8541C112.933 68.8529 113.038 68.8725 113.136 68.9119L119.716 71.5199C119.913 71.5976 120.072 71.7502 120.156 71.9445C120.241 72.1387 120.245 72.3586 120.168 72.5559C120.112 72.7092 120.01 72.8415 119.876 72.9352C119.742 73.0288 119.583 73.0794 119.42 73.0799Z" fill="white"/>
<path d="M105.664 80C105.564 79.9988 105.465 79.9799 105.372 79.944L93.424 75.2C93.3256 75.1619 93.2358 75.1047 93.1596 75.0317C93.0834 74.9587 93.0224 74.8713 92.9802 74.7747C92.9379 74.678 92.9151 74.574 92.9132 74.4685C92.9113 74.363 92.9303 74.2582 92.9691 74.16C93.0078 74.0619 93.0656 73.9724 93.1391 73.8968C93.2126 73.8211 93.3004 73.7607 93.3973 73.719C93.4942 73.6774 93.5985 73.6553 93.704 73.6541C93.8095 73.6529 93.9141 73.6726 94.012 73.712L105.96 78.44C106.133 78.5085 106.277 78.6354 106.367 78.7987C106.457 78.962 106.487 79.1516 106.452 79.3346C106.417 79.5177 106.319 79.6827 106.175 79.8013C106.031 79.9198 105.85 79.9845 105.664 79.984V80Z" fill="#FA1239"/>
<path opacity="0.3" d="M105.664 80C105.564 79.9988 105.465 79.9799 105.372 79.944L93.424 75.2C93.3256 75.1619 93.2358 75.1047 93.1596 75.0317C93.0834 74.9587 93.0224 74.8713 92.9802 74.7747C92.9379 74.678 92.9151 74.574 92.9132 74.4685C92.9113 74.363 92.9303 74.2582 92.9691 74.16C93.0078 74.0619 93.0656 73.9724 93.1391 73.8968C93.2126 73.8211 93.3004 73.7607 93.3973 73.719C93.4942 73.6774 93.5985 73.6553 93.704 73.6541C93.8095 73.6529 93.9141 73.6726 94.012 73.712L105.96 78.44C106.133 78.5085 106.277 78.6354 106.367 78.7987C106.457 78.962 106.487 79.1516 106.452 79.3346C106.417 79.5177 106.319 79.6827 106.175 79.8013C106.031 79.9198 105.85 79.9845 105.664 79.984V80Z" fill="black"/>
<path d="M148.92 43.928C149.98 45.996 150.952 48.068 151.876 50.188C152.8 52.308 153.66 54.456 154.412 56.708L154.684 57.56C154.732 57.712 154.8 57.96 154.84 58.136C154.88 58.312 154.916 58.512 154.936 58.68C155.027 59.3253 155.074 59.9762 155.076 60.628C155.082 61.8301 155.026 63.0317 154.908 64.228C154.684 66.5438 154.321 68.844 153.82 71.116L151.624 70.872C151.596 68.62 151.576 66.344 151.496 64.124C151.46 63.02 151.396 61.912 151.284 60.872C151.233 60.3836 151.153 59.8987 151.044 59.42C151.024 59.308 150.992 59.224 150.968 59.132C150.944 59.04 150.92 59.008 150.88 58.888L150.576 58.132C149.74 56.108 148.8 54.068 147.84 52.036L144.936 45.94L148.92 43.928Z" fill="#E4897B"/>
<path d="M151.656 70.168L150.632 72.084L153.904 72.996C153.904 72.996 154.528 71.456 153.784 70.24L151.656 70.168Z" fill="#E4897B"/>
<path d="M149.38 74.844L152.388 75.084L153.904 72.996L150.632 72.084L149.38 74.844Z" fill="#E4897B"/>
<path d="M135.148 30.1041C135.104 30.3401 134.94 30.5041 134.788 30.4721C134.636 30.4401 134.552 30.2281 134.6 29.9961C134.648 29.7641 134.808 29.5961 134.96 29.6281C135.112 29.6601 135.2 29.8721 135.148 30.1041Z" fill="#263238"/>
<path d="M134.964 30.504C134.541 31.1584 134.031 31.752 133.448 32.268C133.584 32.4129 133.75 32.5266 133.935 32.6012C134.119 32.6758 134.317 32.7095 134.516 32.7L134.964 30.504Z" fill="#DE5753"/>
<path d="M136.26 28.9879C136.222 28.987 136.186 28.9712 136.16 28.9439C136.045 28.8125 135.901 28.71 135.739 28.6447C135.577 28.5793 135.402 28.5531 135.228 28.5679C135.195 28.5683 135.162 28.5568 135.137 28.5356C135.111 28.5145 135.094 28.4849 135.089 28.4523C135.083 28.4196 135.089 28.386 135.106 28.3574C135.122 28.3288 135.149 28.307 135.18 28.2959C135.402 28.2678 135.628 28.295 135.838 28.3753C136.047 28.4555 136.233 28.5863 136.38 28.7559C136.405 28.7821 136.42 28.8173 136.42 28.8539C136.42 28.8906 136.405 28.9258 136.38 28.9519C136.364 28.9666 136.345 28.9774 136.324 28.9837C136.303 28.9899 136.281 28.9914 136.26 28.9879Z" fill="#263238"/>
<path d="M141.764 33.3719C141.344 35.5239 140.924 39.46 142.428 40.896C142.428 40.896 141.84 43.076 137.844 43.076C133.444 43.076 135.748 40.896 135.748 40.896C138.148 40.324 138.08 38.544 137.664 36.876L141.764 33.3719Z" fill="#E4897B"/>
<path d="M143.032 42.252C143.348 41.2 143.696 39.9959 142.976 39.6159C142.176 39.2159 137.828 38.776 136.328 39.556C134.828 40.336 135.256 42.476 135.256 42.476L143.032 42.252Z" fill="#263238"/>
<path d="M152.256 142C152.132 142.017 152.005 142.008 151.884 141.975C151.764 141.942 151.65 141.885 151.552 141.808C151.517 141.76 151.498 141.702 151.498 141.642C151.498 141.582 151.517 141.524 151.552 141.476C151.575 141.435 151.606 141.398 151.644 141.37C151.682 141.342 151.726 141.322 151.772 141.312C152.204 141.216 153.012 141.768 153.048 141.792C153.058 141.801 153.066 141.812 153.071 141.824C153.076 141.837 153.078 141.851 153.076 141.864C153.074 141.877 153.067 141.889 153.058 141.898C153.049 141.908 153.037 141.914 153.024 141.916C152.771 141.97 152.514 141.999 152.256 142ZM151.888 141.44H151.804C151.777 141.446 151.751 141.457 151.729 141.474C151.707 141.49 151.689 141.512 151.676 141.536C151.612 141.648 151.652 141.696 151.676 141.712C151.8 141.88 152.4 141.88 152.84 141.808C152.553 141.619 152.228 141.496 151.888 141.448V141.44Z" fill="#FA1239"/>
<path d="M153.008 141.928H152.976C152.672 141.76 152.084 141.128 152.144 140.792C152.154 140.74 152.182 140.693 152.223 140.66C152.264 140.626 152.315 140.608 152.368 140.608C152.421 140.602 152.474 140.607 152.525 140.622C152.575 140.637 152.623 140.662 152.664 140.696C153.004 140.976 153.064 141.824 153.064 141.86C153.065 141.873 153.063 141.886 153.058 141.897C153.052 141.908 153.043 141.918 153.032 141.924C153.024 141.927 153.016 141.928 153.008 141.928ZM152.416 140.728H152.4C152.308 140.728 152.3 140.784 152.296 140.8C152.26 140.996 152.636 141.48 152.936 141.708C152.916 141.374 152.796 141.053 152.592 140.788C152.565 140.767 152.534 140.752 152.501 140.743C152.468 140.734 152.434 140.731 152.4 140.736L152.416 140.728Z" fill="#FA1239"/>
<path d="M134.612 142C134.236 142 133.872 141.948 133.748 141.78C133.717 141.736 133.7 141.682 133.7 141.628C133.7 141.574 133.717 141.52 133.748 141.476C133.772 141.435 133.804 141.399 133.843 141.371C133.882 141.343 133.925 141.323 133.972 141.312C134.456 141.18 135.488 141.764 135.532 141.788C135.544 141.796 135.553 141.806 135.559 141.819C135.564 141.832 135.566 141.846 135.564 141.86C135.562 141.874 135.555 141.887 135.545 141.897C135.535 141.907 135.522 141.914 135.508 141.916C135.212 141.972 134.912 142 134.612 142ZM134.144 141.432C134.1 141.426 134.056 141.426 134.012 141.432C133.984 141.438 133.957 141.449 133.934 141.465C133.91 141.482 133.891 141.503 133.876 141.528C133.824 141.616 133.844 141.656 133.876 141.68C134.008 141.864 134.752 141.876 135.304 141.8C134.944 141.606 134.55 141.484 134.144 141.44V141.432Z" fill="#FA1239"/>
<path d="M135.5 141.928H135.472C135.116 141.772 134.416 141.128 134.468 140.804C134.468 140.724 134.536 140.628 134.728 140.608C134.799 140.597 134.872 140.602 134.941 140.623C135.01 140.644 135.074 140.68 135.128 140.728C135.504 141.032 135.58 141.824 135.584 141.86C135.585 141.872 135.584 141.885 135.579 141.896C135.574 141.907 135.566 141.917 135.556 141.924C135.547 141.929 135.538 141.931 135.528 141.932C135.519 141.933 135.509 141.931 135.5 141.928ZM134.784 140.728H134.74C134.616 140.728 134.608 140.792 134.604 140.808C134.572 141.008 135.052 141.508 135.404 141.724C135.369 141.388 135.229 141.072 135.004 140.82C134.947 140.771 134.875 140.741 134.8 140.736L134.784 140.728Z" fill="#FA1239"/>
<path d="M138.732 141.856H135.792L135.5 135.052H138.44L138.732 141.856Z" fill="#E4897B"/>
<path d="M156.376 141.856H153.436L151.96 135.052H154.896L156.376 141.856Z" fill="#E4897B"/>
<path d="M153.228 141.516H156.528C156.587 141.516 156.644 141.537 156.69 141.574C156.735 141.611 156.767 141.662 156.78 141.72L157.36 144.332C157.373 144.396 157.372 144.461 157.356 144.524C157.34 144.587 157.311 144.646 157.269 144.696C157.228 144.746 157.175 144.786 157.116 144.813C157.057 144.84 156.993 144.853 156.928 144.852C155.776 144.832 155.216 144.764 153.764 144.764C152.872 144.764 151.032 144.86 149.796 144.86C148.56 144.86 148.404 143.66 148.908 143.528C151.172 143.032 152.024 142.348 152.748 141.7C152.879 141.581 153.051 141.515 153.228 141.516Z" fill="#263238"/>
<path d="M135.812 141.516H139.012C139.071 141.516 139.128 141.537 139.174 141.574C139.219 141.611 139.251 141.662 139.264 141.72L139.844 144.332C139.858 144.395 139.857 144.46 139.842 144.523C139.827 144.586 139.798 144.644 139.758 144.694C139.717 144.745 139.665 144.785 139.607 144.812C139.548 144.839 139.484 144.853 139.42 144.852C138.264 144.832 136.592 144.764 135.136 144.764C133.436 144.764 131.964 144.86 129.968 144.86C128.768 144.86 128.428 143.66 128.932 143.528C131.232 143.024 133.108 142.972 135.096 141.748C135.308 141.604 135.556 141.524 135.812 141.516Z" fill="#263238"/>
<path d="M134.4 46.0561C131.943 45.8657 129.498 45.5412 127.076 45.0841C125.876 44.8521 124.652 44.5921 123.436 44.2641C122.189 43.9451 120.965 43.5442 119.772 43.0641C119.464 42.9361 119.152 42.7961 118.844 42.6641C118.497 42.4932 118.163 42.2981 117.844 42.0801C117.268 41.7001 116.772 41.3041 116.28 40.9121C115.3 40.1121 114.392 39.3121 113.48 38.4921C111.692 36.8361 109.996 35.1241 108.36 33.3241L109.832 31.6801L115.636 35.8521C116.592 36.5401 117.56 37.2161 118.512 37.8521C118.984 38.1681 119.468 38.4641 119.912 38.7161C120.098 38.8219 120.29 38.9155 120.488 38.9961C120.724 39.0881 120.964 39.1801 121.216 39.2681C123.378 39.9337 125.589 40.4286 127.828 40.7481C130.112 41.1081 132.472 41.4041 134.752 41.6441L134.4 46.0561Z" fill="#E4897B"/>
<path d="M147.688 41.56C150.444 42.192 153.228 50.2441 153.228 50.2441L147.56 54.312C147.56 54.312 145.96 50.56 144.416 47.28C142.8 43.844 144.872 40.916 147.688 41.56Z" fill="#FA1239"/>
<path opacity="0.4" d="M147.688 41.56C150.444 42.192 153.228 50.2441 153.228 50.2441L147.56 54.312C147.56 54.312 145.96 50.56 144.416 47.28C142.8 43.844 144.872 40.916 147.688 41.56Z" fill="black"/>
<path d="M146.1 45.96L144.976 48.476C146.14 50.988 147.204 53.476 147.488 54.14C147.448 51.168 146.884 47.48 146.1 45.96Z" fill="#FA1239"/>
<path opacity="0.6" d="M146.1 45.96L144.976 48.476C146.14 50.988 147.204 53.476 147.488 54.14C147.448 51.168 146.884 47.48 146.1 45.96Z" fill="black"/>
<path d="M131.228 41.712C131.228 41.712 128.1 45.244 131.052 67.112H146.768C146.88 64.712 145.364 52.928 147.688 41.56C145.951 41.2255 144.194 41.0037 142.428 40.896C140.203 40.7679 137.973 40.7679 135.748 40.896C134.222 41.0497 132.711 41.3225 131.228 41.712Z" fill="#FA1239"/>
<path opacity="0.4" d="M131.228 41.712C131.228 41.712 128.1 45.244 131.052 67.112H146.768C146.88 64.712 145.364 52.928 147.688 41.56C145.951 41.2255 144.194 41.0037 142.428 40.896C140.203 40.7679 137.973 40.7679 135.748 40.896C134.222 41.0497 132.711 41.3225 131.228 41.712Z" fill="black"/>
<path d="M130.064 45.96C129.96 46.788 129.88 47.768 129.828 48.924C131.38 48.4581 132.855 47.7653 134.204 46.868L130.064 45.96Z" fill="#FA1239"/>
<path opacity="0.6" d="M130.064 45.96C129.96 46.788 129.88 47.768 129.828 48.924C131.38 48.4581 132.855 47.7653 134.204 46.868L130.064 45.96Z" fill="black"/>
<path d="M136.8 46.4C134.696 48.264 126.664 48.076 126.664 48.076L126.4 40.3C129.112 40.6864 131.848 40.8842 134.588 40.892C139.064 40.8 139.096 44.344 136.8 46.4Z" fill="#FA1239"/>
<path opacity="0.4" d="M136.8 46.4C134.696 48.264 126.664 48.076 126.664 48.076L126.4 40.3C129.112 40.6864 131.848 40.8842 134.588 40.892C139.064 40.8 139.096 44.344 136.8 46.4Z" fill="black"/>
<path d="M109.908 31.696L107.908 29.34L105.752 31.74C105.752 31.74 107.08 33.972 109.188 33.62L109.908 31.696Z" fill="#E4897B"/>
<path d="M105.044 26.592L104.268 29.668L105.736 31.724L107.892 29.34L105.044 26.592Z" fill="#E4897B"/>
<path d="M135.5 135.056L135.652 138.56H138.592L138.44 135.056H135.5Z" fill="#CE6F64"/>
<path d="M154.9 135.056H151.96L152.72 138.56H155.66L154.9 135.056Z" fill="#CE6F64"/>
<path d="M137.268 27.2C134.632 26 133.8 20.668 141.384 22C141.384 22 140.24 23.264 142.56 24.064C144.88 24.864 142.94 29.804 137.268 27.2Z" fill="#263238"/>
<path d="M142.996 31.2C142.24 34 141.944 35.704 140.196 36.876C137.58 38.636 134.328 36.616 134.224 33.628C134.132 30.944 135.384 26.788 138.404 26.22C139.071 26.0893 139.76 26.1316 140.405 26.3428C141.051 26.554 141.631 26.9271 142.092 27.4265C142.552 27.9259 142.877 28.5349 143.036 29.1955C143.194 29.8561 143.18 30.5462 142.996 31.2Z" fill="#E4897B"/>
<path d="M141.28 23.4C143.076 24.4 145.508 25 145.28 26.424C144.98 28.164 146.748 27.076 146.336 29.664C146.068 31.356 142.948 36.484 140.736 36.236C137.432 35.836 137.852 30.812 137.84 28.164C137.832 26.6 137.76 21.428 141.28 23.4Z" fill="#263238"/>
<path d="M137.444 25.644C136.644 25.832 135.584 30.444 138.684 30.868C142.248 31.352 137.444 25.644 137.444 25.644Z" fill="#263238"/>
<path d="M137.524 27.28C136.544 27.368 134.324 26.188 134.596 24.412C134.596 24.4 136 26.488 137.524 27.28Z" fill="#263238"/>
<path d="M138.98 31.2359C138.679 31.8955 138.169 32.4369 137.528 32.7759C136.684 33.2159 136.208 32.5759 136.4 31.7279C136.572 30.9679 137.22 29.8199 138.088 29.7279C138.956 29.6359 139.328 30.4359 138.98 31.2359Z" fill="#E4897B"/>
<path d="M143.38 28C143.978 27.7406 144.502 27.337 144.905 26.8253C145.309 26.3136 145.579 25.7098 145.692 25.068C145.692 25.068 147.012 28.736 143.38 28Z" fill="#263238"/>
<path d="M146.716 27.94C146.437 27.753 146.117 27.638 145.783 27.6052C145.45 27.5724 145.113 27.6228 144.804 27.752C144.804 27.752 146.036 26.156 146.716 27.94Z" fill="#263238"/>
<path d="M136.628 67.1119C136.628 67.1119 139.964 89.5679 141.792 97.9799C143.792 107.18 151.352 137.884 151.352 137.884H156.732C156.732 137.884 151.752 107.936 150.608 98.7999C149.368 88.8999 146.768 67.0959 146.768 67.0959L136.628 67.1119Z" fill="#FA1239"/>
<path opacity="0.5" d="M136.628 67.1119C136.628 67.1119 139.964 89.5679 141.792 97.9799C143.792 107.18 151.352 137.884 151.352 137.884H156.732C156.732 137.884 151.752 107.936 150.608 98.7999C149.368 88.8999 146.768 67.0959 146.768 67.0959L136.628 67.1119Z" fill="white"/>
<path d="M150.492 135.9C150.468 135.9 151.048 137.968 151.048 137.968H157.104L156.992 136.124L150.492 135.9Z" fill="#FA1239"/>
<path opacity="0.1" d="M150.492 135.9C150.468 135.9 151.048 137.968 151.048 137.968H157.104L156.992 136.124L150.492 135.9Z" fill="black"/>
<path d="M138.736 75.112C142.592 75.868 142.184 90.248 141.72 97.644C140.608 92.416 138.98 82.356 137.868 75.216C138.137 75.0834 138.443 75.0467 138.736 75.112Z" fill="#FA1239"/>
<path opacity="0.4" d="M138.736 75.112C142.592 75.868 142.184 90.248 141.72 97.644C140.608 92.416 138.98 82.356 137.868 75.216C138.137 75.0834 138.443 75.0467 138.736 75.112Z" fill="white"/>
<path d="M131.052 67.1121C131.052 67.1121 130.652 89.0801 130.968 98.0441C131.3 107.364 134.568 137.884 134.568 137.884H139.544C139.544 137.884 139.728 107.908 139.944 98.7561C140.188 88.7761 141.392 67.1121 141.392 67.1121H131.052Z" fill="#FA1239"/>
<path opacity="0.5" d="M131.052 67.1121C131.052 67.1121 130.652 89.0801 130.968 98.0441C131.3 107.364 134.568 137.884 134.568 137.884H139.544C139.544 137.884 139.728 107.908 139.944 98.7561C140.188 88.7761 141.392 67.1121 141.392 67.1121H131.052Z" fill="white"/>
<path d="M135.6 134.308C135.588 134.308 135.576 134.303 135.567 134.295C135.558 134.287 135.553 134.276 135.552 134.264C134.672 125.816 132.604 105.376 132.352 98.0439C132.084 90.5599 132.328 73.768 132.408 68.8C132.408 68.7872 132.413 68.775 132.422 68.766C132.431 68.757 132.443 68.752 132.456 68.752C132.469 68.7519 132.482 68.7568 132.491 68.7657C132.501 68.7746 132.507 68.7869 132.508 68.8C132.428 73.768 132.184 90.56 132.452 98.04C132.712 105.372 134.78 125.804 135.652 134.252C135.652 134.266 135.647 134.279 135.638 134.289C135.63 134.299 135.617 134.306 135.604 134.308H135.6Z" fill="#FA1239"/>
<path opacity="0.4" d="M135.6 134.308C135.588 134.308 135.576 134.303 135.567 134.295C135.558 134.287 135.553 134.276 135.552 134.264C134.672 125.816 132.604 105.376 132.352 98.0439C132.084 90.5599 132.328 73.768 132.408 68.8C132.408 68.7872 132.413 68.775 132.422 68.766C132.431 68.757 132.443 68.752 132.456 68.752C132.469 68.7519 132.482 68.7568 132.491 68.7657C132.501 68.7746 132.507 68.7869 132.508 68.8C132.428 73.768 132.184 90.56 132.452 98.04C132.712 105.372 134.78 125.804 135.652 134.252C135.652 134.266 135.647 134.279 135.638 134.289C135.63 134.299 135.617 134.306 135.604 134.308H135.6Z" fill="white"/>
<path d="M133.6 135.9C133.58 135.9 133.884 137.968 133.884 137.968H139.936L140.1 136.124L133.6 135.9Z" fill="#FA1239"/>
<path opacity="0.1" d="M133.6 135.9C133.58 135.9 133.884 137.968 133.884 137.968H139.936L140.1 136.124L133.6 135.9Z" fill="black"/>
</svg>
