<svg width="200" height="150" viewBox="0 0 200 150" fill="none" xmlns="http://www.w3.org/2000/svg">
<path d="M200 130.96H0V131.06H200V130.96Z" fill="#EBEBEB"/>
<path d="M179.96 137.396H166.712V137.496H179.96V137.396Z" fill="#EBEBEB"/>
<path d="M161.676 137.396H133.352V137.496H161.676V137.396Z" fill="#EBEBEB"/>
<path d="M117.732 133.684H110.056V133.784H117.732V133.684Z" fill="#EBEBEB"/>
<path d="M34.7 134.356H20.984V134.456H34.7V134.356Z" fill="#EBEBEB"/>
<path d="M63.2 134.356H38.26V134.456H63.2V134.356Z" fill="#EBEBEB"/>
<path d="M90.056 136.044H75.332V136.144H90.056V136.044Z" fill="#EBEBEB"/>
<path d="M94.7999 113.12H17.5639C16.9589 113.119 16.379 112.878 15.9515 112.45C15.524 112.021 15.2839 111.441 15.2839 110.836V2.264C15.2892 1.66241 15.5316 1.08719 15.9585 0.663287C16.3854 0.239383 16.9623 0.00103056 17.5639 0H94.7999C95.4057 0 95.9866 0.240635 96.415 0.668968C96.8433 1.0973 97.0839 1.67825 97.0839 2.284V110.836C97.0839 111.442 96.8433 112.023 96.415 112.451C95.9866 112.879 95.4057 113.12 94.7999 113.12ZM17.5639 0.0800003C16.9854 0.0810599 16.4309 0.311626 16.0222 0.721091C15.6135 1.13056 15.3839 1.68546 15.3839 2.264V110.836C15.3839 111.415 15.6135 111.969 16.0222 112.379C16.4309 112.788 16.9854 113.019 17.5639 113.02H94.7999C95.3788 113.019 95.9337 112.789 96.3431 112.379C96.7524 111.97 96.9829 111.415 96.9839 110.836V2.264C96.9829 1.68509 96.7524 1.1302 96.3431 0.720847C95.9337 0.311496 95.3788 0.0810577 94.7999 0.0800003H17.5639Z" fill="#EBEBEB"/>
<path d="M181.324 113.12H104.084C103.479 113.119 102.898 112.878 102.47 112.45C102.042 112.022 101.801 111.441 101.8 110.836V2.264C101.806 1.66205 102.05 1.08683 102.477 0.663037C102.905 0.239243 103.482 0.00101932 104.084 0H181.324C181.925 0.0020818 182.501 0.2409 182.927 0.664691C183.353 1.08848 183.595 1.6631 183.6 2.264V110.836C183.6 111.44 183.361 112.02 182.934 112.448C182.507 112.876 181.928 113.118 181.324 113.12ZM104.084 0.0800003C103.505 0.0810577 102.95 0.311496 102.541 0.720847C102.132 1.1302 101.901 1.68509 101.9 2.264V110.836C101.901 111.415 102.132 111.97 102.541 112.379C102.95 112.789 103.505 113.019 104.084 113.02H181.324C181.903 113.019 182.458 112.789 182.867 112.379C183.277 111.97 183.507 111.415 183.508 110.836V2.264C183.507 1.68509 183.277 1.1302 182.867 0.720847C182.458 0.311496 181.903 0.0810577 181.324 0.0800003H104.084Z" fill="#EBEBEB"/>
<path d="M63.4959 13.948H24.8199V120.628H63.4959V13.948Z" fill="#F5F5F5"/>
<path d="M63.4961 120.632H63.8881L63.8881 13.952H63.4961L63.4961 120.632Z" fill="#EBEBEB"/>
<path d="M59.764 18.02H28.552V116.56H59.764V18.02Z" fill="white"/>
<path d="M80.0759 77.0959L171.312 77.0959V9.30795L80.0759 9.30795L80.0759 77.0959Z" fill="#E6E6E6"/>
<path d="M78.664 77.0959L169.9 77.0959V9.30795L78.664 9.30795L78.664 77.0959Z" fill="#F5F5F5"/>
<path d="M167.364 74.252V12.156L81.196 12.156V74.252H167.364Z" fill="white"/>
<path d="M82.26 74.248V12.152H81.192V74.248H82.26Z" fill="#E6E6E6"/>
<path d="M79.708 60.984L168.848 60.984V57.16L79.708 57.16V60.984Z" fill="#F5F5F5"/>
<g opacity="0.4">
<path d="M84.444 6.31201H75.832V28.1H84.444V6.31201Z" fill="#E6E6E6"/>
<path d="M84.4441 26.348H88.7161V6.31202H84.4441V26.348Z" fill="#F5F5F5"/>
<path d="M97.3281 6.31201H88.7161V28.1H97.3281V6.31201Z" fill="#E6E6E6"/>
<path d="M97.328 26.348H101.6V6.31202H97.328V26.348Z" fill="#F5F5F5"/>
<path d="M110.212 6.31201H101.6V28.1H110.212V6.31201Z" fill="#E6E6E6"/>
<path d="M110.212 26.348H114.484V6.31202H110.212V26.348Z" fill="#F5F5F5"/>
<path d="M123.096 6.31201H114.484V28.1H123.096V6.31201Z" fill="#E6E6E6"/>
<path d="M123.096 26.348H127.368V6.31202H123.096V26.348Z" fill="#F5F5F5"/>
<path d="M135.98 6.31201H127.368V28.1H135.98V6.31201Z" fill="#E6E6E6"/>
<path d="M135.98 26.348H140.252V6.31202H135.98V26.348Z" fill="#F5F5F5"/>
<path d="M148.864 6.31201H140.252V28.1H148.864V6.31201Z" fill="#E6E6E6"/>
<path d="M148.864 26.348H153.136V6.31202H148.864V26.348Z" fill="#F5F5F5"/>
<path d="M161.748 6.31201H153.136V28.1H161.748V6.31201Z" fill="#E6E6E6"/>
<path d="M161.748 26.348H166.02V6.31202H161.748V26.348Z" fill="#F5F5F5"/>
<path d="M174.632 6.31201H166.02V28.1H174.632V6.31201Z" fill="#E6E6E6"/>
</g>
<path d="M81.4839 130.96H92.1599V91.2H81.4839V130.96Z" fill="#E6E6E6"/>
<path d="M83.264 130.96H81.488V127.38H85.128L83.264 130.96Z" fill="#F0F0F0"/>
<path d="M158.304 130.96H168.98V91.2H158.304V130.96Z" fill="#E6E6E6"/>
<path d="M81.4879 129.584H159.852V91.2H81.4879V129.584Z" fill="#F0F0F0"/>
<path d="M82.868 103.428L158.476 103.428V92.9L82.868 92.9V103.428Z" fill="#E6E6E6"/>
<path d="M102 96.172H139.356C141.088 96.172 142.748 94.872 143.94 92.572H97.408C98.6 94.872 100.256 96.172 102 96.172Z" fill="#F0F0F0"/>
<path d="M158.076 130.96H159.852V127.38H156.212L158.076 130.96Z" fill="#F0F0F0"/>
<path d="M82.868 115.656L158.476 115.656V105.128L82.868 105.128V115.656Z" fill="#E6E6E6"/>
<path d="M102 108.4H139.356C141.088 108.4 142.748 107.104 143.94 104.8H97.408C98.6 107.104 100.256 108.4 102 108.4Z" fill="#F0F0F0"/>
<path d="M82.868 127.884L158.476 127.884V117.356L82.868 117.356V127.884Z" fill="#E6E6E6"/>
<path d="M102 120.628H139.356C141.088 120.628 142.748 119.332 143.94 117.028H97.408C98.6 119.332 100.256 120.628 102 120.628Z" fill="#F0F0F0"/>
<path d="M100 149.024C142.833 149.024 177.556 146.997 177.556 144.496C177.556 141.995 142.833 139.968 100 139.968C57.167 139.968 22.444 141.995 22.444 144.496C22.444 146.997 57.167 149.024 100 149.024Z" fill="#F5F5F5"/>
<path d="M147.952 142.212H147.524C147.435 142.205 147.351 142.166 147.288 142.102C147.226 142.038 147.189 141.953 147.184 141.864L144.552 123.536H146.552L148.296 141.744C148.306 141.797 148.304 141.852 148.292 141.905C148.28 141.958 148.257 142.008 148.225 142.052C148.193 142.096 148.152 142.132 148.105 142.16C148.058 142.187 148.006 142.205 147.952 142.212Z" fill="#FF657E"/>
<path opacity="0.3" d="M147.952 142.212H147.524C147.435 142.205 147.351 142.166 147.288 142.102C147.226 142.038 147.189 141.953 147.184 141.864L144.552 123.536H146.552L148.296 141.744C148.306 141.797 148.304 141.852 148.292 141.905C148.28 141.958 148.257 142.008 148.225 142.052C148.193 142.096 148.152 142.132 148.105 142.16C148.058 142.187 148.006 142.205 147.952 142.212Z" fill="black"/>
<path d="M153.44 142.212H153.012C152.923 142.205 152.839 142.166 152.776 142.102C152.714 142.038 152.677 141.953 152.672 141.864L150.04 123.536H152.04L153.788 141.744C153.798 141.798 153.796 141.853 153.784 141.906C153.771 141.959 153.748 142.009 153.715 142.053C153.683 142.097 153.641 142.134 153.594 142.161C153.547 142.188 153.494 142.206 153.44 142.212Z" fill="#FF657E"/>
<path opacity="0.3" d="M153.44 142.212H153.012C152.923 142.205 152.839 142.166 152.776 142.102C152.714 142.038 152.677 141.953 152.672 141.864L150.04 123.536H152.04L153.788 141.744C153.798 141.798 153.796 141.853 153.784 141.906C153.771 141.959 153.748 142.009 153.715 142.053C153.683 142.097 153.641 142.134 153.594 142.161C153.547 142.188 153.494 142.206 153.44 142.212Z" fill="black"/>
<path d="M122.864 142.212H123.292C123.381 142.205 123.465 142.166 123.528 142.102C123.59 142.038 123.628 141.953 123.632 141.864L126.264 123.536H124.264L122.52 141.744C122.51 141.797 122.512 141.852 122.524 141.905C122.536 141.958 122.559 142.008 122.591 142.052C122.624 142.096 122.664 142.132 122.711 142.16C122.758 142.187 122.81 142.205 122.864 142.212Z" fill="#FF657E"/>
<path opacity="0.3" d="M122.864 142.212H123.292C123.381 142.205 123.465 142.166 123.528 142.102C123.59 142.038 123.628 141.953 123.632 141.864L126.264 123.536H124.264L122.52 141.744C122.51 141.797 122.512 141.852 122.524 141.905C122.536 141.958 122.559 142.008 122.591 142.052C122.624 142.096 122.664 142.132 122.711 142.16C122.758 142.187 122.81 142.205 122.864 142.212Z" fill="black"/>
<path d="M117.376 142.212H117.804C117.893 142.205 117.977 142.166 118.04 142.102C118.102 142.038 118.14 141.953 118.144 141.864L120.776 123.536H118.776L117.032 141.744C117.022 141.797 117.024 141.852 117.036 141.905C117.048 141.958 117.071 142.008 117.103 142.052C117.136 142.096 117.176 142.132 117.223 142.16C117.27 142.187 117.322 142.205 117.376 142.212Z" fill="#FF657E"/>
<path opacity="0.3" d="M117.376 142.212H117.804C117.893 142.205 117.977 142.166 118.04 142.102C118.102 142.038 118.14 141.953 118.144 141.864L120.776 123.536H118.776L117.032 141.744C117.022 141.797 117.024 141.852 117.036 141.905C117.048 141.958 117.071 142.008 117.103 142.052C117.136 142.096 117.176 142.132 117.223 142.16C117.27 142.187 117.322 142.205 117.376 142.212Z" fill="black"/>
<path d="M110.264 101.804H123.736C126.136 93.5039 134.728 86.9559 143.536 86.9559H147.912C157.112 86.9559 163.08 94.1279 161.2 102.98C160.849 104.608 160.271 106.18 159.484 107.648L157.36 120.524C157.088 122.188 155.76 123.536 154.4 123.536H113.848C112.488 123.536 111.16 122.188 110.888 120.524L108.296 104.8C108.02 103.152 108.904 101.804 110.264 101.804Z" fill="#FF657E"/>
<path opacity="0.5" d="M110.264 101.804H123.736C126.136 93.5039 134.728 86.9559 143.536 86.9559H147.912C157.112 86.9559 163.08 94.1279 161.2 102.98C160.849 104.608 160.271 106.18 159.484 107.648L157.36 120.524C157.088 122.188 155.76 123.536 154.4 123.536H113.848C112.488 123.536 111.16 122.188 110.888 120.524L108.296 104.8C108.02 103.152 108.904 101.804 110.264 101.804Z" fill="white"/>
<path d="M106.892 137.472L110.228 139C110.285 139.024 110.33 139.069 110.354 139.126C110.378 139.183 110.379 139.247 110.356 139.304L109.304 142.02C109.241 142.159 109.126 142.267 108.984 142.321C108.841 142.375 108.683 142.37 108.544 142.308C107.392 141.756 106.868 141.432 105.4 140.76C103.848 139.993 102.349 139.125 100.912 138.16C99.8241 137.36 100.624 136.28 101.164 136.52C103.604 137.596 105.164 137.692 106.296 137.42C106.495 137.368 106.705 137.386 106.892 137.472Z" fill="#263238"/>
<path d="M130.552 96.5719C130.552 96.5719 109.22 96.8359 108.888 105.244C108.416 117.332 106.632 137.4 106.632 137.4L110.232 139C110.232 139 116.536 118.864 116.76 109.424C122.76 107.936 138.188 109.424 140 104.52C140.888 101.969 141.123 99.2368 140.684 96.5719H130.552Z" fill="#FF657E"/>
<path opacity="0.2" d="M130.552 96.5719C130.552 96.5719 109.22 96.8359 108.888 105.244C108.416 117.332 106.632 137.4 106.632 137.4L110.232 139C110.232 139 116.536 118.864 116.76 109.424C122.76 107.936 138.188 109.424 140 104.52C140.888 101.969 141.123 99.2368 140.684 96.5719H130.552Z" fill="black"/>
<path d="M135.092 74.4479C134.904 75.2239 134.716 75.9239 134.504 76.6519C134.292 77.3799 134.072 78.0879 133.84 78.7999C133.372 80.2239 132.856 81.6399 132.264 83.0399C131.671 84.4711 130.983 85.8608 130.204 87.1999C129.795 87.9079 129.344 88.5905 128.852 89.2439C128.311 89.9675 127.686 90.6253 126.992 91.2039L126.932 91.2559L126.804 91.3519C126.4 91.6156 125.94 91.7801 125.46 91.8319C125.159 91.8688 124.854 91.8688 124.552 91.8319C124.133 91.7805 123.721 91.6812 123.324 91.5359C122.709 91.3142 122.111 91.0467 121.536 90.7359C120.51 90.165 119.517 89.5346 118.564 88.8479C117.636 88.1799 116.74 87.4879 115.868 86.7679C114.996 86.0479 114.16 85.3119 113.332 84.5199C113.12 84.3136 112.989 84.0374 112.965 83.7424C112.941 83.4473 113.024 83.1534 113.2 82.9152C113.376 82.6769 113.632 82.5105 113.921 82.4466C114.21 82.3828 114.512 82.4259 114.772 82.5679H114.792C115.736 83.0919 116.688 83.6479 117.644 84.1679C118.6 84.6879 119.544 85.2119 120.492 85.6999C121.44 86.1879 122.392 86.6519 123.292 87.0279C123.705 87.204 124.132 87.3458 124.568 87.4519C124.698 87.4906 124.833 87.5082 124.968 87.5039C124.996 87.5039 124.968 87.5039 124.884 87.5039C124.68 87.5273 124.485 87.6001 124.316 87.7159L124.124 87.8599C124.518 87.4765 124.866 87.0482 125.16 86.5839C125.511 86.0567 125.833 85.5105 126.124 84.9479C126.737 83.7405 127.286 82.5015 127.768 81.2359C128.26 79.9479 128.72 78.6279 129.148 77.2919C129.576 75.9559 129.976 74.5839 130.348 73.2919V73.2439C130.518 72.6236 130.925 72.0951 131.481 71.7725C132.038 71.4499 132.699 71.3592 133.321 71.52C133.944 71.6808 134.478 72.0802 134.809 72.6318C135.14 73.1834 135.24 73.843 135.088 74.4679L135.092 74.4479Z" fill="#263238"/>
<path d="M126.444 139.2H130.444C130.477 139.198 130.511 139.203 130.542 139.215C130.574 139.226 130.603 139.244 130.627 139.267C130.652 139.289 130.672 139.317 130.685 139.347C130.699 139.378 130.707 139.411 130.708 139.444L130.904 142.608C130.904 142.775 130.839 142.935 130.722 143.054C130.605 143.172 130.447 143.241 130.28 143.244C128.888 143.22 128.22 143.136 126.46 143.136C125.38 143.136 123.196 143.248 121.7 143.248C120.204 143.248 120.248 141.772 120.88 141.648C123.724 141.048 124.824 140.22 125.828 139.428C126.003 139.287 126.219 139.207 126.444 139.2Z" fill="#263238"/>
<path d="M136.3 96.572C136.3 96.572 116.952 98.204 117.428 106.608C117.948 115.808 126.444 139.208 126.444 139.208H130.356C130.356 139.208 127.008 117.78 125.828 108.408C131.284 108.408 143.932 109.432 145.748 104.516C146.636 101.965 146.87 99.2325 146.428 96.568L136.3 96.572Z" fill="#FF657E"/>
<path d="M115.072 82.9599C114.77 82.4683 114.404 82.019 113.984 81.6239C113.184 82.3679 112.748 84.5319 112.748 84.5319L113.84 84.6279C113.84 84.6279 115.096 84.2199 115.072 82.9599Z" fill="#FF657E"/>
<path d="M111.056 81.016L109.812 80.476C109.65 80.4061 109.469 80.3972 109.301 80.4509C109.134 80.5046 108.991 80.6173 108.9 80.768L108.308 81.744C108.226 81.8814 108.192 82.0419 108.21 82.2008C108.228 82.3597 108.298 82.5084 108.408 82.624L110.116 84.404L112.964 84.288C113.125 84.2825 113.282 84.234 113.417 84.1475C113.553 84.0609 113.663 83.9396 113.736 83.796L114.064 83.152C114.167 82.9581 114.196 82.733 114.143 82.5197C114.091 82.3064 113.961 82.1199 113.78 81.996C112.856 81.388 111.056 81.016 111.056 81.016Z" fill="#FFC3BD"/>
<path d="M130.368 73.6279C129.8 77.2279 129.06 84.9999 130.568 96.7199L146.428 96.5719C146.332 88.4479 147.604 80.8239 148.848 73.3719C148.898 73.0793 148.888 72.7798 148.819 72.4911C148.75 72.2023 148.625 71.9304 148.449 71.6912C148.273 71.4521 148.051 71.2507 147.796 71.0989C147.541 70.9472 147.258 70.8483 146.964 70.8079C142.416 70.2759 137.821 70.2759 133.272 70.8079C132.551 70.9065 131.879 71.2334 131.357 71.7408C130.834 72.2482 130.488 72.9095 130.368 73.6279Z" fill="#263238"/>
<path d="M148.992 72.36C149.46 73.516 149.832 74.624 150.216 75.768C150.6 76.912 150.928 78.06 151.244 79.224C151.56 80.388 151.836 81.576 152.044 82.788C152.286 84.0256 152.448 85.2775 152.528 86.536C152.552 86.86 152.556 87.196 152.56 87.532V88.044C152.554 88.5696 152.417 89.0853 152.16 89.544C151.989 89.8419 151.764 90.1051 151.496 90.32C151.371 90.42 151.237 90.5084 151.096 90.584C150.968 90.6545 150.834 90.7134 150.696 90.76C150.32 90.8998 149.921 90.9703 149.52 90.968C149.046 90.9571 148.575 90.8831 148.12 90.748C147.455 90.5478 146.807 90.2923 146.184 89.984C145.604 89.696 145.06 89.396 144.528 89.084C142.46 87.849 140.497 86.4456 138.66 84.888C138.429 84.6984 138.276 84.4306 138.229 84.1353C138.182 83.8401 138.246 83.538 138.407 83.2864C138.568 83.0347 138.816 82.8511 139.104 82.7703C139.392 82.6895 139.699 82.7171 139.968 82.848H139.996C142.064 83.832 144.168 84.848 146.216 85.692C146.728 85.9 147.236 86.092 147.736 86.264C148.179 86.4269 148.636 86.5513 149.1 86.636C149.284 86.668 149.448 86.664 149.428 86.636C149.32 86.6258 149.21 86.6452 149.112 86.692C149.049 86.7162 148.988 86.7442 148.928 86.776C148.852 86.8169 148.779 86.8651 148.712 86.92C148.554 87.0434 148.418 87.1937 148.312 87.364C148.192 87.5632 148.121 87.788 148.104 88.02L148.084 87.656C148.06 87.408 148.04 87.164 148.004 86.908C147.671 84.7393 147.171 82.5997 146.508 80.508C145.868 78.36 145.132 76.168 144.384 74.084V74.064C144.177 73.4633 144.212 72.8058 144.481 72.2303C144.751 71.6549 145.233 71.2066 145.826 70.9802C146.42 70.7538 147.078 70.767 147.662 71.017C148.246 71.267 148.71 71.7342 148.956 72.32L148.992 72.36Z" fill="#263238"/>
<path d="M142.652 62.7639L140.736 64.3639L138.12 66.5359C138.201 66.8822 138.257 67.2337 138.288 67.5879C138.412 68.8519 138.136 70.0119 136.604 70.5999C136.313 70.6953 136.047 70.8564 135.828 71.0707C135.609 71.285 135.442 71.5468 135.34 71.8359C135.132 72.5039 135.376 73.2519 137.48 73.2519C140.572 73.2519 142.184 71.8759 142.792 71.1999C142.874 71.106 142.921 70.9871 142.926 70.8628C142.931 70.7385 142.894 70.6162 142.82 70.5159C141.6 68.7719 142.152 64.9319 142.652 62.7639Z" fill="#FFC3BD"/>
<path d="M137.404 72.564C137.539 72.7194 137.631 72.9067 137.672 73.108C137.831 72.8928 138.027 72.7085 138.252 72.564C138.518 72.689 138.755 72.8693 138.946 73.0927C139.137 73.3162 139.278 73.5777 139.36 73.86C138.777 73.7405 138.216 73.5328 137.696 73.244C137.353 73.4341 136.975 73.5512 136.584 73.588C136.608 72.896 137.404 72.564 137.404 72.564Z" fill="#FF657E"/>
<path d="M138.252 72.564C138.807 73.2326 139.173 74.0379 139.312 74.896C139.312 74.896 144.432 73.616 144.192 70.276C143.742 70.0634 143.264 69.9166 142.772 69.84C142.772 69.84 141.672 71.84 138.252 72.564Z" fill="#FF657E"/>
<path d="M137.404 72.5639C136.844 73.2378 136.457 74.0383 136.276 74.8959C136.276 74.8959 133.652 72.4959 136.208 70.3039C136.649 70.1636 137.104 70.0684 137.564 70.0199C137.564 70.0199 135.864 71.3999 137.404 72.5639Z" fill="#FF657E"/>
<path opacity="0.2" d="M138.12 66.524C138.2 66.8716 138.256 67.2245 138.288 67.58C139.264 67.384 140.564 66.348 140.688 65.352C140.736 65.0222 140.748 64.6883 140.724 64.356L138.12 66.524Z" fill="black"/>
<path d="M135.32 55.8759C132.92 57.5839 134.256 61.5879 136.312 60.0559C138.368 58.5239 137.28 54.4839 135.32 55.8759Z" fill="#263238"/>
<path d="M143.444 59.4439C142.776 62.5079 142.544 64.3319 140.732 65.7319C140.148 66.1929 139.45 66.4855 138.712 66.5782C137.974 66.6709 137.225 66.5601 136.545 66.2578C135.866 65.9555 135.282 65.4732 134.856 64.8631C134.431 64.2529 134.181 63.5381 134.132 62.7959C133.892 59.9399 135.024 55.4039 138.248 54.5359C138.942 54.329 139.678 54.3084 140.383 54.476C141.087 54.6436 141.735 54.9937 142.262 55.491C142.788 55.9883 143.175 56.6153 143.382 57.3092C143.59 58.003 143.611 58.7392 143.444 59.4439Z" fill="#FFC3BD"/>
<path d="M142.024 57.1679C140.324 56.6999 135.94 57.8159 134.384 56.1559C132.716 54.3759 135.148 53.508 135.868 54.128C134.96 53.088 135.296 51.9759 136.584 52.0759C137.524 52.1479 137.82 53.1879 137.82 53.1879C137.82 53.1879 137.664 51.368 139.28 51.496C140.744 51.608 140.748 53.584 140.748 53.584C140.748 53.584 144.244 52.5959 145.412 55.9319C147.612 55.8839 147.564 60.516 143.136 62.1639C141.34 61.2759 141.256 58.1159 142.024 57.1679Z" fill="#263238"/>
<path d="M144.94 56.5999C144.825 56.6069 144.711 56.5687 144.624 56.4935C144.536 56.4182 144.481 56.3118 144.471 56.1967C144.461 56.0817 144.495 55.9672 144.568 55.8774C144.641 55.7876 144.745 55.7297 144.86 55.7159C144.98 55.6398 145.072 55.5258 145.12 55.3919C145.185 55.2639 145.222 55.124 145.23 54.9809C145.239 54.8378 145.217 54.6945 145.168 54.5599C145.134 54.5064 145.113 54.4464 145.104 54.3838C145.096 54.3213 145.101 54.2576 145.119 54.1971C145.137 54.1366 145.167 54.0806 145.209 54.0329C145.25 53.9852 145.301 53.9469 145.359 53.9205C145.416 53.8941 145.478 53.8803 145.541 53.8799C145.605 53.8795 145.667 53.8926 145.725 53.9183C145.782 53.944 145.834 53.9817 145.876 54.0288C145.918 54.076 145.949 54.1316 145.968 54.1919C146.077 54.4597 146.125 54.7482 146.108 55.0367C146.091 55.3252 146.011 55.6064 145.872 55.8599C145.794 56.0392 145.676 56.1984 145.527 56.3252C145.378 56.452 145.202 56.5432 145.012 56.5919C144.989 56.5979 144.964 56.6006 144.94 56.5999Z" fill="#263238"/>
<path d="M143.944 62.2879C143.528 62.8281 142.929 63.1978 142.26 63.3279C141.392 63.4839 141.128 62.6839 141.512 61.9119C141.856 61.2119 142.712 60.2919 143.512 60.4919C144.312 60.6919 144.456 61.5999 143.944 62.2879Z" fill="#FFC3BD"/>
<path d="M138.192 59.724C138.152 59.976 137.988 60.164 137.824 60.144C137.66 60.124 137.556 59.904 137.592 59.652C137.628 59.4 137.796 59.212 137.964 59.252C138.132 59.292 138.228 59.472 138.192 59.724Z" fill="#263238"/>
<path d="M135.336 59.3839C135.296 59.6359 135.132 59.8239 134.968 59.7839C134.804 59.7439 134.7 59.5439 134.736 59.2919C134.772 59.0399 134.94 58.8519 135.108 58.8719C135.276 58.8919 135.376 59.1319 135.336 59.3839Z" fill="#263238"/>
<path d="M136.208 59.4839C135.89 60.1333 135.486 60.7373 135.008 61.2799C135.15 61.3931 135.315 61.4737 135.491 61.5158C135.667 61.558 135.851 61.5608 136.028 61.5239L136.208 59.4839Z" fill="#ED847E"/>
<path d="M137.2 62.8199C137.497 62.8239 137.792 62.7678 138.067 62.6551C138.342 62.5424 138.591 62.3753 138.8 62.1639C138.81 62.1487 138.814 62.1305 138.811 62.1125C138.809 62.0946 138.8 62.0781 138.787 62.0661C138.773 62.054 138.756 62.0472 138.738 62.0468C138.72 62.0464 138.702 62.0525 138.688 62.0639C138.46 62.2896 138.183 62.46 137.878 62.5619C137.574 62.6639 137.25 62.6947 136.932 62.6519C136.913 62.6506 136.893 62.6563 136.878 62.6681C136.862 62.6799 136.852 62.6969 136.848 62.7159C136.847 62.7259 136.848 62.736 136.851 62.7457C136.853 62.7553 136.858 62.7643 136.864 62.7721C136.871 62.7799 136.879 62.7864 136.887 62.7912C136.896 62.796 136.906 62.7989 136.916 62.7999C137.01 62.812 137.105 62.8186 137.2 62.8199Z" fill="#263238"/>
<path d="M139.34 58.2719C139.364 58.267 139.386 58.256 139.404 58.2399C139.418 58.2262 139.429 58.2097 139.437 58.1915C139.445 58.1733 139.449 58.1537 139.449 58.1339C139.449 58.1142 139.445 58.0946 139.437 58.0764C139.429 58.0582 139.418 58.0417 139.404 58.0279C139.252 57.8487 139.059 57.7096 138.84 57.6231C138.622 57.5366 138.385 57.5053 138.152 57.5319C138.133 57.5351 138.114 57.542 138.097 57.5524C138.08 57.5627 138.066 57.5763 138.054 57.5923C138.043 57.6082 138.035 57.6263 138.03 57.6455C138.026 57.6646 138.025 57.6845 138.028 57.7039C138.031 57.7234 138.038 57.742 138.049 57.7588C138.059 57.7755 138.072 57.7901 138.088 57.8016C138.104 57.8131 138.122 57.8213 138.142 57.8259C138.161 57.8304 138.181 57.8311 138.2 57.8279C138.384 57.8101 138.57 57.8372 138.741 57.9068C138.913 57.9765 139.065 58.0867 139.184 58.2279C139.203 58.2497 139.228 58.2654 139.256 58.2732C139.283 58.281 139.313 58.2806 139.34 58.2719Z" fill="#263238"/>
<path d="M134.316 58.108C134.339 58.1144 134.364 58.1153 134.387 58.1104C134.411 58.1055 134.433 58.0951 134.452 58.08C134.596 57.9523 134.767 57.8598 134.952 57.8098C135.137 57.7598 135.332 57.7537 135.52 57.792C135.558 57.8019 135.599 57.7966 135.633 57.7772C135.667 57.7578 135.693 57.7258 135.704 57.688C135.71 57.6691 135.711 57.6493 135.709 57.6297C135.707 57.6102 135.7 57.5913 135.691 57.5741C135.681 57.557 135.668 57.542 135.652 57.5299C135.637 57.5179 135.619 57.5091 135.6 57.504C135.366 57.4534 135.123 57.4585 134.891 57.519C134.659 57.5794 134.444 57.6935 134.264 57.852C134.234 57.8769 134.215 57.9129 134.211 57.9518C134.207 57.9908 134.219 58.0297 134.244 58.06C134.263 58.083 134.288 58.0997 134.316 58.108Z" fill="#263238"/>
<path d="M139.524 80.776L137.772 79.688C137.647 79.6101 137.509 79.5579 137.363 79.5342C137.218 79.5106 137.07 79.516 136.927 79.5503C136.784 79.5845 136.649 79.6469 136.531 79.7337C136.412 79.8205 136.312 79.9301 136.236 80.056L136.032 80.4C135.91 80.6005 135.855 80.8346 135.876 81.0683C135.896 81.3021 135.99 81.5233 136.144 81.7L137.344 83.088C137.344 83.088 138.396 85.54 139.616 84.892L140.544 83.292L139.524 80.776Z" fill="#FFC3BD"/>
<path d="M141.328 83.9119C141.088 83.3313 140.776 82.783 140.4 82.2799C139.52 83.0319 138.8 85.4319 138.8 85.4319L139.876 85.6639C140.268 85.554 140.616 85.3275 140.876 85.0145C141.135 84.7015 141.293 84.3169 141.328 83.9119Z" fill="#FF657E"/>
<path d="M154.732 101.804H133.964C132.604 101.804 131.724 103.152 131.996 104.816L134.588 120.524C134.864 122.188 136.188 123.536 137.552 123.536H152.16L154.732 101.804Z" fill="#FF657E"/>
<path opacity="0.5" d="M154.732 101.804H133.964C132.604 101.804 131.724 103.152 131.996 104.816L134.588 120.524C134.864 122.188 136.188 123.536 137.552 123.536H152.16L154.732 101.804Z" fill="white"/>
<path d="M58.912 143.56H59.512C59.6181 143.56 59.7198 143.518 59.7948 143.443C59.8698 143.368 59.912 143.266 59.912 143.16L63.2 93.6001H60.724L58.524 143.104C58.516 143.16 58.5201 143.217 58.5358 143.272C58.5516 143.326 58.5787 143.376 58.6154 143.419C58.652 143.462 58.6974 143.497 58.7486 143.522C58.7997 143.546 58.8554 143.559 58.912 143.56Z" fill="#FF657E"/>
<path opacity="0.3" d="M58.912 143.56H59.512C59.6181 143.56 59.7198 143.518 59.7948 143.443C59.8698 143.368 59.912 143.266 59.912 143.16L63.2 93.6001H60.724L58.524 143.104C58.516 143.16 58.5201 143.217 58.5358 143.272C58.5516 143.326 58.5787 143.376 58.6154 143.419C58.652 143.462 58.6974 143.497 58.7486 143.522C58.7997 143.546 58.8554 143.559 58.912 143.56Z" fill="white"/>
<path d="M52.112 143.56H52.712C52.8181 143.56 52.9199 143.518 52.9949 143.443C53.0699 143.368 53.112 143.266 53.112 143.16L56.4 93.6001H53.92L51.724 143.104C51.7161 143.16 51.7202 143.217 51.7359 143.272C51.7517 143.326 51.7788 143.376 51.8154 143.419C51.8521 143.462 51.8975 143.497 51.9486 143.522C51.9998 143.546 52.0555 143.559 52.112 143.56Z" fill="#FF657E"/>
<path opacity="0.3" d="M52.112 143.56H52.712C52.8181 143.56 52.9199 143.518 52.9949 143.443C53.0699 143.368 53.112 143.266 53.112 143.16L56.4 93.6001H53.92L51.724 143.104C51.7161 143.16 51.7202 143.217 51.7359 143.272C51.7517 143.326 51.7788 143.376 51.8154 143.419C51.8521 143.462 51.8975 143.497 51.9486 143.522C51.9998 143.546 52.0555 143.559 52.112 143.56Z" fill="white"/>
<path d="M135.972 143.56H135.372C135.266 143.56 135.164 143.518 135.089 143.443C135.014 143.368 134.972 143.266 134.972 143.16L131.684 93.6001H134.16L136.36 143.104C136.368 143.16 136.364 143.217 136.348 143.272C136.332 143.326 136.305 143.376 136.269 143.419C136.232 143.462 136.187 143.497 136.135 143.522C136.084 143.546 136.029 143.559 135.972 143.56Z" fill="#FF657E"/>
<path opacity="0.3" d="M135.972 143.56H135.372C135.266 143.56 135.164 143.518 135.089 143.443C135.014 143.368 134.972 143.266 134.972 143.16L131.684 93.6001H134.16L136.36 143.104C136.368 143.16 136.364 143.217 136.348 143.272C136.332 143.326 136.305 143.376 136.269 143.419C136.232 143.462 136.187 143.497 136.135 143.522C136.084 143.546 136.029 143.559 135.972 143.56Z" fill="white"/>
<path d="M142.772 143.56H142.172C142.066 143.56 141.964 143.518 141.889 143.443C141.814 143.368 141.772 143.266 141.772 143.16L138.484 93.6001H140.964L143.16 143.104C143.168 143.16 143.164 143.217 143.148 143.272C143.133 143.326 143.105 143.376 143.069 143.419C143.032 143.462 142.987 143.497 142.936 143.522C142.884 143.546 142.829 143.559 142.772 143.56Z" fill="#FF657E"/>
<path opacity="0.3" d="M142.772 143.56H142.172C142.066 143.56 141.964 143.518 141.889 143.443C141.814 143.368 141.772 143.266 141.772 143.16L138.484 93.6001H140.964L143.16 143.104C143.168 143.16 143.164 143.217 143.148 143.272C143.133 143.326 143.105 143.376 143.069 143.419C143.032 143.462 142.987 143.497 142.936 143.522C142.884 143.546 142.829 143.559 142.772 143.56Z" fill="white"/>
<path d="M145.632 92.592H49.1119V93.612H145.632V92.592Z" fill="#FF657E"/>
<path d="M47.5039 76.7999L46.5919 83.5079C46.3039 85.7399 46.0039 87.9799 45.7919 90.1799C45.7639 90.4559 45.7439 90.7239 45.7199 90.9799L45.6879 91.3799C45.6945 91.3134 45.6945 91.2464 45.6879 91.1799C45.6803 91.1158 45.6655 91.0528 45.6439 90.9919C45.6276 90.9438 45.6075 90.897 45.5839 90.8519C45.5679 90.8197 45.5492 90.7889 45.5279 90.7599C45.4559 90.6679 45.4479 90.6799 45.4679 90.6999C45.5088 90.7436 45.5544 90.7825 45.6039 90.8159C45.7722 90.9312 45.9487 91.0342 46.1319 91.1239C47.0839 91.5593 48.0665 91.9243 49.0719 92.2159C51.1679 92.8519 53.3719 93.4159 55.5479 93.9399L55.2999 95.8479C52.9736 95.778 50.6554 95.5387 48.3639 95.1319C47.1497 94.9278 45.9568 94.6131 44.7999 94.1919C44.46 94.0608 44.1298 93.9058 43.8119 93.7279C43.6156 93.616 43.4284 93.489 43.2519 93.3479C43.0072 93.1542 42.7928 92.925 42.6159 92.6679C42.4885 92.4779 42.3863 92.2722 42.3119 92.0559C42.271 91.9249 42.2389 91.7913 42.2159 91.6559C42.2012 91.5231 42.1932 91.3896 42.1919 91.2559V90.8119C42.1919 90.5159 42.1919 90.2199 42.2159 89.9279C42.3119 87.5919 42.5239 85.3119 42.7719 83.0319C43.0199 80.7519 43.3079 78.4919 43.6639 76.2319L47.5039 76.7999Z" fill="#7F3E3B"/>
<path d="M60.564 96L59.096 97.34C58.9281 97.4926 58.7186 97.5916 58.4941 97.6243C58.2696 97.6571 58.0405 97.6222 57.836 97.524L56.216 96.744C56.216 96.744 53.816 96.644 53.468 95.176L54.092 94.036L57.816 93.636C58.1982 93.5949 58.5833 93.6807 58.912 93.88L60.448 94.82C60.5446 94.8812 60.6259 94.9636 60.6859 95.0609C60.7458 95.1582 60.7828 95.268 60.794 95.3817C60.8052 95.4955 60.7903 95.6103 60.7504 95.7174C60.7106 95.8246 60.6468 95.9212 60.564 96Z" fill="#7F3E3B"/>
<path d="M51.7801 63.0239C52.1801 65.3279 52.4841 69.5319 50.8361 71.0239C50.8361 71.0239 54.8361 73.1279 57.4881 76.7999C60.2881 74.5679 57.9481 71.2359 57.9481 71.2359C55.4121 70.5519 55.5481 68.6599 56.0321 66.8959L51.7801 63.0239Z" fill="#7F3E3B"/>
<path d="M59.2959 72.636C59.2959 72.636 59.0839 70.684 58.0199 69.72C57.1279 68.92 52.4199 69.36 50.9519 69.524C50.8155 69.5403 50.6855 69.5906 50.5737 69.6703C50.4619 69.75 50.3718 69.8564 50.3119 69.98L49.2399 72.22L59.2959 72.636Z" fill="#FF657E"/>
<path opacity="0.8" d="M59.2959 72.636C59.2959 72.636 59.0839 70.684 58.0199 69.72C57.1279 68.92 52.4199 69.36 50.9519 69.524C50.8155 69.5403 50.6855 69.5906 50.5737 69.6703C50.4619 69.75 50.3718 69.8564 50.3119 69.98L49.2399 72.22L59.2959 72.636Z" fill="white"/>
<path d="M46.2919 71.6C43.3959 72.544 42.7719 76.428 43.0359 79.448L48.8799 83.048C48.8799 83.048 50.2999 78.648 50.2879 76.28C50.2759 73.776 48.2599 70.968 46.2919 71.6Z" fill="#FF657E"/>
<path d="M47.4239 82.172C47.3502 82.1736 47.277 82.1606 47.2083 82.1339C47.1397 82.1071 47.077 82.067 47.0239 82.016C47 81.99 46.9786 81.9619 46.9599 81.932C46.9379 81.9027 46.9203 81.8704 46.9079 81.836C46.8948 81.8035 46.8841 81.77 46.8759 81.736C46.8719 81.7014 46.8719 81.6665 46.8759 81.632C46.8741 81.558 46.8874 81.4843 46.9149 81.4156C46.9424 81.3469 46.9836 81.2844 47.0359 81.232C47.1398 81.1341 47.2771 81.0796 47.4199 81.0796C47.5626 81.0796 47.7 81.1341 47.8039 81.232C47.8562 81.2844 47.8973 81.3469 47.9248 81.4156C47.9523 81.4843 47.9656 81.558 47.9639 81.632C47.9678 81.6665 47.9678 81.7014 47.9639 81.736C47.9576 81.7706 47.9469 81.8042 47.9319 81.836C47.9208 81.8702 47.9046 81.9026 47.8839 81.932L47.8159 82.016C47.7642 82.0668 47.7029 82.1067 47.6356 82.1335C47.5683 82.1603 47.4963 82.1734 47.4239 82.172Z" fill="white"/>
<path d="M46.2999 81.804C46.2004 81.7657 46.1145 81.699 46.0526 81.6122C45.9907 81.5255 45.9557 81.4225 45.9519 81.316C45.8735 81.3871 45.7758 81.4333 45.6712 81.449C45.5666 81.4647 45.4596 81.449 45.3639 81.404C45.2683 81.3593 45.1876 81.288 45.1315 81.1986C45.0755 81.1092 45.0464 81.0055 45.0479 80.9C44.9656 80.9666 44.8653 81.0071 44.7598 81.0164C44.6543 81.0256 44.5485 81.0032 44.4559 80.952C44.363 80.9024 44.2866 80.8268 44.2362 80.7344C44.1857 80.642 44.1634 80.5369 44.1719 80.432C44.0853 80.493 43.9827 80.5274 43.8769 80.5309C43.771 80.5345 43.6664 80.5071 43.5759 80.452C43.4532 80.3774 43.3651 80.2573 43.3306 80.1179C43.2961 79.9785 43.3182 79.8312 43.3919 79.708C43.4673 79.5851 43.5881 79.4968 43.7281 79.4624C43.8681 79.428 44.0161 79.4501 44.1399 79.524C44.2248 79.5776 44.2937 79.653 44.3394 79.7424C44.3852 79.8318 44.4061 79.9318 44.3999 80.032C44.4816 79.9733 44.5782 79.9387 44.6787 79.9324C44.7792 79.926 44.8794 79.9481 44.9679 79.996C45.0564 80.0437 45.1301 80.1148 45.1809 80.2016C45.2317 80.2884 45.2576 80.3875 45.2559 80.488C45.3343 80.4254 45.4286 80.3858 45.5282 80.3738C45.6278 80.3618 45.7288 80.3778 45.8199 80.42C45.9109 80.4619 45.9886 80.5282 46.0444 80.6115C46.1001 80.6948 46.1318 80.7918 46.1359 80.892C46.2113 80.8261 46.3033 80.7819 46.402 80.7643C46.5007 80.7467 46.6022 80.7563 46.6959 80.792C46.8292 80.8454 46.9361 80.9494 46.993 81.0813C47.05 81.2132 47.0524 81.3623 46.9999 81.496C46.9603 81.5975 46.8911 81.6846 46.8011 81.746C46.7112 81.8074 46.6048 81.8402 46.4959 81.84C46.429 81.8392 46.3627 81.8271 46.2999 81.804Z" fill="white"/>
<path d="M43.0359 80C43 80.0039 42.9638 80.0039 42.9279 80C42.8933 79.9938 42.8597 79.983 42.8279 79.968C42.7937 79.9569 42.7613 79.9407 42.7319 79.92L42.6519 79.852C42.626 79.8283 42.6032 79.8014 42.5839 79.772C42.5839 79.74 42.5479 79.708 42.5319 79.676C42.5194 79.6433 42.5087 79.6099 42.4999 79.576C42.4979 79.54 42.4979 79.504 42.4999 79.468C42.4978 79.4334 42.4978 79.3986 42.4999 79.364C42.5087 79.3288 42.5194 79.2941 42.5319 79.26C42.5451 79.2272 42.5626 79.1962 42.5839 79.168C42.6041 79.1381 42.6269 79.11 42.6519 79.084L42.7319 79.016C42.7622 78.9968 42.7944 78.9807 42.8279 78.968L42.9279 78.936C43.0151 78.9203 43.1049 78.9255 43.1897 78.9512C43.2746 78.977 43.3521 79.0225 43.4159 79.084C43.4409 79.11 43.4637 79.1381 43.4839 79.168C43.5036 79.1973 43.521 79.228 43.5359 79.26C43.5489 79.2936 43.5583 79.3284 43.5639 79.364C43.568 79.3985 43.568 79.4335 43.5639 79.468C43.5678 79.5039 43.5678 79.5401 43.5639 79.576C43.5583 79.6103 43.5489 79.6438 43.5359 79.676C43.5359 79.708 43.5039 79.74 43.4839 79.772C43.4646 79.8014 43.4418 79.8283 43.4159 79.852C43.313 79.9484 43.1769 80.0014 43.0359 80Z" fill="white"/>
<path d="M64.7081 77.252C64.4641 80.58 63.7241 86.18 61.9081 95.612L46.2521 95.148C46.6521 89.368 46.0401 85.06 44.6241 74.944C44.5638 74.5063 44.5922 74.0609 44.7076 73.6345C44.8231 73.208 45.0232 72.8091 45.296 72.4616C45.5689 72.1141 45.9089 71.8251 46.2958 71.6118C46.6827 71.3985 47.1086 71.2652 47.5481 71.22C48.5521 71.116 49.6961 71.032 50.8441 71.008C53.2168 70.9096 55.5934 70.9805 57.9561 71.22C58.7161 71.312 59.5041 71.436 60.2561 71.564C61.5728 71.7882 62.7586 72.4953 63.5818 73.5472C64.4051 74.599 64.8067 75.9199 64.7081 77.252Z" fill="#FF657E"/>
<path d="M59.8799 58.7999C59.9159 59.1079 60.1119 59.3399 60.3119 59.3119C60.5119 59.2839 60.6479 59.0199 60.6119 58.7119C60.5759 58.4039 60.3799 58.1719 60.1799 58.1959C59.9799 58.2199 59.8439 58.4799 59.8799 58.7999Z" fill="#263238"/>
<path d="M60.0919 58.216L60.8079 57.912C60.8079 57.912 60.4959 58.536 60.0919 58.216Z" fill="#263238"/>
<path d="M59.9999 59.2679C60.3591 59.9394 60.8086 60.5585 61.3359 61.1079C61.1923 61.2399 61.0216 61.3388 60.8357 61.3975C60.6497 61.4563 60.4532 61.4735 60.2599 61.4479L59.9999 59.2679Z" fill="#630F0F"/>
<path d="M59.9159 56.0839C59.9317 56.0558 59.94 56.0242 59.94 55.9919C59.94 55.9597 59.9317 55.928 59.9159 55.8999C59.8944 55.8567 59.8568 55.8237 59.8111 55.808C59.7655 55.7923 59.7155 55.7951 59.6719 55.8159C59.4066 55.9338 59.1736 56.1139 58.9926 56.3408C58.8115 56.5678 58.6878 56.8351 58.6319 57.1199C58.6286 57.1436 58.6299 57.1677 58.636 57.1908C58.642 57.214 58.6526 57.2357 58.6671 57.2547C58.6817 57.2736 58.6998 57.2896 58.7206 57.3014C58.7413 57.3133 58.7642 57.321 58.7879 57.3239C58.8116 57.3273 58.8357 57.3259 58.8588 57.3199C58.882 57.3138 58.9037 57.3032 58.9226 57.2887C58.9416 57.2742 58.9575 57.256 58.9694 57.2353C58.9813 57.2146 58.989 57.1917 58.9919 57.1679C59.0406 56.9434 59.1417 56.7336 59.287 56.5556C59.4323 56.3776 59.6177 56.2366 59.8279 56.1439C59.8635 56.1352 59.8948 56.1139 59.9159 56.0839Z" fill="#263238"/>
<path d="M49.224 58.72C49.912 62.484 50.124 64.092 52.272 65.812C55.504 68.396 59.9801 66.728 60.432 62.832C60.832 59.324 59.6321 53.756 55.7521 52.692C54.8945 52.4535 53.9902 52.4381 53.125 52.6472C52.2598 52.8564 51.4624 53.2831 50.8084 53.887C50.1544 54.4909 49.6656 55.2518 49.3883 56.0977C49.1111 56.9435 49.0545 57.8461 49.224 58.72Z" fill="#7F3E3B"/>
<path d="M57.52 59.776C58.152 61.844 59.664 66.844 56.32 67.96C53.708 68.832 45.52 69.528 44.58 64.732C43.608 59.776 48.028 56.244 48.028 56.244C48.028 56.244 44.524 53.372 46.768 50.244C49.66 46.212 56.588 48.492 58.64 51.34C60.644 54.112 57.52 59.776 57.52 59.776Z" fill="#263238"/>
<path d="M51.2 68.648C49.6913 68.6463 48.1972 68.3529 46.8 67.784C44.944 66.984 43.86 65.748 43.664 64.208C43.008 58.98 47.872 56.108 47.924 56.08L48.116 56.412C48.068 56.44 43.424 59.188 44.048 64.16C44.272 65.924 45.752 66.912 46.956 67.428C49.332 68.452 52.4 68.444 53.144 67.9L53.372 68.212C52.996 68.496 52.18 68.648 51.2 68.648Z" fill="#263238"/>
<path d="M46.524 55.496C46.48 56.164 45.928 57.096 48.244 57.428C50.56 57.76 53.784 57.74 54.448 57.184C55.112 56.628 55.76 55.292 54.376 55.412C52.992 55.532 46.6 54.352 46.524 55.496Z" fill="#FF657E"/>
<path d="M56.2519 60.3639C56.6299 61.0627 57.268 61.5844 58.0279 61.8159C59.0359 62.1119 59.5559 61.2119 59.2879 60.2519C59.0439 59.3879 58.2239 58.1919 57.2079 58.3159C56.1919 58.4399 55.7999 59.5039 56.2519 60.3639Z" fill="#7F3E3B"/>
<path d="M80.656 139.424L84.368 139.352L82.572 130.088L78.86 130.156L80.656 139.424Z" fill="#7F3E3B"/>
<path d="M83.4401 135.388C84.4201 139.088 88.032 142.988 88.032 142.988L82.88 141.676L80.6281 138.476L81.0281 137.628L83.4401 135.388Z" fill="#7F3E3B"/>
<path d="M79.7799 137.108C79.7694 137.541 79.7948 137.975 79.8559 138.404C80.0759 139.932 80.7479 144.004 80.7479 144.004H81.0999C80.9407 142.764 80.8459 141.517 80.8159 140.268C80.8639 139.264 81.5119 141.04 82.2959 142.048C83.0799 143.056 84.4919 143.972 86.7759 144.048C89.4479 144.132 90.5159 144.02 89.6599 143.352C88.8039 142.684 86.9799 142.252 86.9799 142.252C85.5086 141.622 84.2562 140.571 83.3799 139.232C82.5154 138.029 81.3793 137.046 80.0639 136.364C79.8399 136.376 79.7959 136.8 79.7799 137.108Z" fill="#263238"/>
<path d="M93.8041 126.836L98.5401 126.984L93.2401 119.104L89.9601 121.908L93.8041 126.836Z" fill="#7F3E3B"/>
<path d="M94.928 123.492C98.372 125.092 103.884 124.78 103.884 124.78L99.404 128.38L95.56 128.092L95.16 127.24L94.928 123.492Z" fill="#7F3E3B"/>
<path d="M94.2 127.576C94.5103 127.877 94.8447 128.153 95.2 128.4C96.456 129.276 99.852 131.52 99.852 131.52L100.068 131.244C99.0565 130.517 98.0832 129.739 97.152 128.912C96.44 128.184 98.148 128.892 99.372 128.964C100.596 129.036 102.14 128.564 103.6 126.804C105.316 124.76 105.888 123.844 104.872 124.06C103.856 124.276 102.408 125.412 102.408 125.412C101.048 126.14 99.4902 126.412 97.964 126.188C96.5464 126.044 95.1155 126.265 93.808 126.832C93.7 127.032 93.968 127.344 94.2 127.576Z" fill="#263238"/>
<path d="M56.44 95.34C56.44 95.34 81.784 91.6 84.4 98.088C88.968 109.392 95.412 122.344 95.412 122.344L92.3 124.92C92.3 124.92 81.248 114.688 77.32 103.32C72.624 104.84 57.684 109.72 52.212 109.72C46.368 109.72 43.98 104.74 46.092 96.464C46.1845 96.1094 46.3914 95.7952 46.6807 95.5703C46.97 95.3454 47.3255 95.2222 47.692 95.22C51.4 95.256 56.44 95.34 56.44 95.34Z" fill="#263238"/>
<path d="M58.8678 98.64C58.8678 98.64 79.6678 98.016 79.8478 105.384C80.1358 117.572 83.5718 135.036 83.5718 135.036L79.7758 135.388C79.7758 135.388 73.5718 121.496 71.9318 109.6C64.5238 110.08 57.6918 109.748 52.2198 109.748C46.0878 109.748 45.5798 103.016 51.5478 95.156C55.1998 95.148 58.8678 98.64 58.8678 98.64Z" fill="#263238"/>
<path d="M46.0359 94.22L45.5999 95.6C45.5399 95.708 45.6639 95.82 45.8479 95.828L61.9599 96.304C62.0999 96.304 62.2199 96.244 62.2319 96.156L62.4159 94.76C62.4159 94.66 62.3079 94.576 62.1519 94.572L46.2999 94.1C46.2491 94.0944 46.1978 94.1026 46.1514 94.1237C46.1049 94.1448 46.065 94.1781 46.0359 94.22Z" fill="white"/>
<path d="M48.112 96.056H47.688C47.604 96.056 47.54 96.008 47.548 95.956L47.8 94.14C47.8 94.088 47.884 94.048 47.968 94.048H48.392C48.476 94.048 48.54 94.096 48.532 94.148L48.28 95.96C48.272 96.02 48.196 96.06 48.112 96.056Z" fill="#263238"/>
<path d="M60.756 96.436H60.332C60.248 96.436 60.184 96.388 60.192 96.336L60.448 94.52C60.448 94.468 60.528 94.428 60.612 94.428H61.036C61.124 94.428 61.184 94.476 61.18 94.528L60.924 96.344C60.916 96.4 60.844 96.436 60.756 96.436Z" fill="#263238"/>
<path d="M54.4359 96.244H54.0119C53.9239 96.244 53.8639 96.196 53.8719 96.144L54.1239 94.328C54.1239 94.276 54.2079 94.236 54.2919 94.236H54.7159C54.7999 94.236 54.8639 94.284 54.8559 94.336L54.6039 96.152C54.5959 96.208 54.5199 96.248 54.4359 96.244Z" fill="#263238"/>
<path d="M73.732 78.6439H83.848C83.9232 78.6442 83.9973 78.6619 84.0646 78.6955C84.1318 78.7292 84.1904 78.7779 84.2357 78.8379C84.281 78.8979 84.3118 78.9676 84.3258 79.0415C84.3397 79.1154 84.3363 79.1915 84.316 79.2639L80.532 92.2439C80.5032 92.3446 80.4423 92.4331 80.3585 92.4959C80.2747 92.5588 80.1727 92.5925 80.068 92.5919H69.948C69.8726 92.5927 69.798 92.5757 69.7304 92.5423C69.6628 92.5088 69.604 92.46 69.5588 92.3996C69.5136 92.3392 69.4833 92.269 69.4703 92.1947C69.4573 92.1204 69.462 92.0441 69.484 91.9719L73.264 78.9919C73.2936 78.8909 73.3553 78.8023 73.4397 78.7395C73.5242 78.6767 73.6268 78.6432 73.732 78.6439Z" fill="#FF657E"/>
<path d="M73.9159 79.12L83.7519 79.352L79.8679 91.596L70.0319 91.36L73.9159 79.12Z" fill="#E0E0E0"/>
<path d="M73.608 79L83.444 79.04L79.8 91.356L69.964 91.316L73.608 79Z" fill="white"/>
<path d="M64.7359 79.256C64.7359 79.656 64.7959 80.128 64.8279 80.572C64.8599 81.016 64.9199 81.48 64.9799 81.932C65.0919 82.836 65.2412 83.7267 65.4279 84.604C65.6074 85.4593 65.8453 86.3012 66.1399 87.124C66.2879 87.524 66.4519 87.924 66.6279 88.276C66.7159 88.46 66.8119 88.632 66.9079 88.808L67.0559 89.052C67.2396 89.2191 67.4562 89.3458 67.6919 89.424C68.0664 89.5693 68.4516 89.6856 68.8439 89.772C69.7271 89.9584 70.6207 90.092 71.5199 90.172C73.3679 90.352 75.2999 90.44 77.1879 90.48L77.3799 92.396C75.414 92.786 73.4192 93.0121 71.4159 93.072C70.3755 93.1041 69.3341 93.0613 68.2999 92.944C67.7332 92.8746 67.1728 92.7609 66.6239 92.604C65.9221 92.4182 65.2694 92.081 64.7119 91.616C64.5252 91.4544 64.3562 91.2734 64.2079 91.076L63.9519 90.716C63.7879 90.476 63.6279 90.236 63.4919 89.992C63.2068 89.5163 62.9542 89.0218 62.7359 88.512C62.3088 87.5343 61.9636 86.5228 61.7039 85.488C61.4449 84.482 61.2459 83.4615 61.1079 82.432C61.0399 81.924 60.9879 81.412 60.9439 80.896C60.8999 80.38 60.8719 79.888 60.8639 79.296L64.7359 79.256Z" fill="#7F3E3B"/>
<path d="M63.42 73.356C65.94 75.728 65.332 81.908 65.332 81.908L60.508 82.752C60.508 82.752 57.528 78.32 58.576 76.464C59.664 74.528 62.06 72.072 63.42 73.356Z" fill="#FF657E"/>
<path d="M65.3319 82.4519C65.258 82.4532 65.1845 82.4397 65.1158 82.4122C65.0471 82.3848 64.9846 82.3439 64.9319 82.2919C64.9062 82.2666 64.8834 82.2384 64.8639 82.2079C64.8456 82.1785 64.8295 82.1478 64.8159 82.1159C64.8078 82.0777 64.8024 82.0389 64.7999 81.9999C64.7978 81.9653 64.7978 81.9306 64.7999 81.8959C64.7974 81.8222 64.81 81.7487 64.8368 81.6799C64.8636 81.6111 64.9042 81.5485 64.9559 81.4959C64.9821 81.4711 65.0102 81.4484 65.0399 81.4279C65.0684 81.408 65.0993 81.3919 65.1319 81.3799C65.1654 81.3656 65.2002 81.3549 65.2359 81.3479C65.3146 81.3326 65.3956 81.3348 65.4732 81.3545C65.5509 81.3741 65.6232 81.4106 65.6851 81.4614C65.747 81.5123 65.7969 81.5761 65.8313 81.6485C65.8657 81.7208 65.8837 81.7998 65.8839 81.8799C65.8881 81.9145 65.8881 81.9494 65.8839 81.9839C65.8775 82.0198 65.8668 82.0547 65.8519 82.0879C65.84 82.1205 65.8239 82.1515 65.8039 82.1799C65.7845 82.2104 65.7617 82.2386 65.7359 82.2639C65.6855 82.3218 65.6235 82.3685 65.5539 82.4008C65.4843 82.4332 65.4087 82.4506 65.3319 82.4519Z" fill="white"/>
<path d="M60.9479 82.7399C60.9357 82.5962 60.9811 82.4535 61.0741 82.3432C61.1671 82.2329 61.3001 82.1641 61.4439 82.1519C61.544 82.1426 61.6448 82.1617 61.7346 82.207C61.8245 82.2522 61.8998 82.3219 61.9519 82.4079C61.9841 82.3127 62.0418 82.2281 62.1186 82.1632C62.1955 82.0984 62.2886 82.0557 62.3879 82.0399C62.4877 82.0265 62.5893 82.0407 62.6817 82.0808C62.774 82.121 62.8536 82.1857 62.9119 82.2679C62.9346 82.1706 62.9841 82.0815 63.0548 82.0109C63.1255 81.9402 63.2145 81.8907 63.3119 81.8679C63.4106 81.8473 63.5131 81.8547 63.6079 81.8893C63.7026 81.924 63.7857 81.9845 63.8479 82.0639C63.8715 81.967 63.9212 81.8784 63.9918 81.8078C64.0623 81.7373 64.1509 81.6875 64.2479 81.6639C64.3178 81.6455 64.3907 81.6412 64.4622 81.6514C64.5338 81.6616 64.6026 81.6861 64.6645 81.7234C64.7264 81.7607 64.7802 81.8101 64.8227 81.8686C64.8652 81.9271 64.8955 81.9935 64.9119 82.0639C64.9298 82.1338 64.9336 82.2065 64.9231 82.2779C64.9127 82.3493 64.8881 82.4179 64.8509 82.4797C64.8136 82.5414 64.7645 82.5952 64.7063 82.6378C64.6481 82.6805 64.582 82.7111 64.5119 82.7279C64.4097 82.7542 64.3022 82.7504 64.2022 82.717C64.1021 82.6837 64.0138 82.6222 63.9479 82.5399C63.9253 82.6434 63.8733 82.7382 63.7981 82.8127C63.7228 82.8872 63.6276 82.9384 63.5239 82.9599C63.4201 82.9793 63.3129 82.9685 63.2151 82.9288C63.1172 82.8891 63.0328 82.8221 62.9719 82.7359C62.9455 82.8389 62.8892 82.9318 62.8102 83.0029C62.7313 83.0741 62.633 83.1204 62.5279 83.1359C62.4231 83.151 62.3162 83.1352 62.2203 83.0904C62.1244 83.0457 62.0436 82.9739 61.9879 82.8839C61.9536 82.9838 61.8912 83.0717 61.8082 83.137C61.7252 83.2023 61.625 83.2422 61.5199 83.2519H61.4759C61.34 83.2473 61.2108 83.1923 61.1132 83.0977C61.0156 83.003 60.9567 82.8755 60.9479 82.7399Z" fill="white"/>
<path d="M60.508 83.296C60.4721 83.2999 60.4359 83.2999 60.4 83.296L60.3 83.264C60.2669 83.2504 60.2348 83.2344 60.204 83.216L60.124 83.148C60.0971 83.1237 60.0742 83.0954 60.056 83.064C60.0363 83.0347 60.0189 83.004 60.004 82.972C59.991 82.9385 59.9816 82.9036 59.976 82.868C59.9719 82.8335 59.9719 82.7986 59.976 82.764C59.9721 82.7281 59.9721 82.6919 59.976 82.656C59.9816 82.6218 59.991 82.5882 60.004 82.556C60.004 82.524 60.036 82.492 60.056 82.46C60.0753 82.4306 60.0981 82.4038 60.124 82.38L60.204 82.312C60.2339 82.2921 60.2661 82.276 60.3 82.264C60.3318 82.249 60.3654 82.2382 60.4 82.232C60.4872 82.2142 60.5775 82.2184 60.6627 82.2443C60.7479 82.2701 60.8254 82.3168 60.888 82.38C60.9139 82.4038 60.9367 82.4306 60.956 82.46C60.976 82.492 60.992 82.524 61.008 82.556C61.0205 82.5887 61.0312 82.6221 61.04 82.656C61.042 82.692 61.042 82.728 61.04 82.764C61.0422 82.7987 61.0422 82.8334 61.04 82.868C61.0312 82.9032 61.0205 82.9379 61.008 82.972C60.9931 83.004 60.9757 83.0347 60.956 83.064C60.9368 83.0947 60.914 83.1229 60.888 83.148C60.7851 83.2444 60.649 83.2974 60.508 83.296Z" fill="white"/>
<path d="M81.6799 88.4879L80.0079 88.3759C79.5915 88.3466 79.1774 88.4579 78.8319 88.6919L75.7639 90.7519L75.7399 92.0519C76.7239 93.1959 78.8999 92.1719 78.8999 92.1719L80.9199 92.1039C81.0808 92.0998 81.2368 92.0472 81.3674 91.953C81.498 91.8588 81.5972 91.7274 81.6519 91.5759L82.3839 89.5759C82.4296 89.458 82.4467 89.3309 82.4337 89.2051C82.4208 89.0793 82.3783 88.9584 82.3096 88.8522C82.2409 88.7461 82.148 88.6577 82.0385 88.5944C81.9291 88.531 81.8062 88.4946 81.6799 88.4879Z" fill="#7F3E3B"/>
<path d="M47.036 145.364H47.488C47.5818 145.355 47.6693 145.313 47.7351 145.246C47.801 145.178 47.841 145.09 47.848 144.996L50.648 125.62H48.532L46.688 144.868C46.6771 144.924 46.6776 144.981 46.6893 145.036C46.7011 145.091 46.7239 145.144 46.7564 145.19C46.7889 145.236 46.8304 145.276 46.8785 145.306C46.9265 145.336 46.9801 145.355 47.036 145.364Z" fill="#FF657E"/>
<path opacity="0.3" d="M47.036 145.364H47.488C47.5818 145.355 47.6693 145.313 47.7351 145.246C47.801 145.178 47.841 145.09 47.848 144.996L50.648 125.62H48.532L46.688 144.868C46.6771 144.924 46.6776 144.981 46.6893 145.036C46.7011 145.091 46.7239 145.144 46.7564 145.19C46.7889 145.236 46.8304 145.276 46.8785 145.306C46.9265 145.336 46.9801 145.355 47.036 145.364Z" fill="black"/>
<path d="M41.236 145.364H41.688C41.7817 145.355 41.8692 145.313 41.9351 145.246C42.0009 145.178 42.0409 145.09 42.048 144.996L44.848 125.62H42.732L40.888 144.868C40.8771 144.924 40.8775 144.981 40.8893 145.036C40.901 145.091 40.9238 145.144 40.9563 145.19C40.9888 145.236 41.0303 145.276 41.0784 145.306C41.1265 145.336 41.1801 145.355 41.236 145.364Z" fill="#FF657E"/>
<path opacity="0.3" d="M41.236 145.364H41.688C41.7817 145.355 41.8692 145.313 41.9351 145.246C42.0009 145.178 42.0409 145.09 42.048 144.996L44.848 125.62H42.732L40.888 144.868C40.8771 144.924 40.8775 144.981 40.8893 145.036C40.901 145.091 40.9238 145.144 40.9563 145.19C40.9888 145.236 41.0303 145.276 41.0784 145.306C41.1265 145.336 41.1801 145.355 41.236 145.364Z" fill="black"/>
<path d="M73.556 145.364H73.1C73.007 145.354 72.9204 145.312 72.8554 145.244C72.7903 145.177 72.7509 145.089 72.744 144.996L69.944 125.62H72.056L73.9 144.868C73.9109 144.923 73.9106 144.98 73.8991 145.035C73.8876 145.09 73.8652 145.143 73.8331 145.189C73.801 145.235 73.7599 145.275 73.7123 145.305C73.6647 145.335 73.6115 145.355 73.556 145.364Z" fill="#FF657E"/>
<path opacity="0.3" d="M73.556 145.364H73.1C73.007 145.354 72.9204 145.312 72.8554 145.244C72.7903 145.177 72.7509 145.089 72.744 144.996L69.944 125.62H72.056L73.9 144.868C73.9109 144.923 73.9106 144.98 73.8991 145.035C73.8876 145.09 73.8652 145.143 73.8331 145.189C73.801 145.235 73.7599 145.275 73.7123 145.305C73.6647 145.335 73.6115 145.355 73.556 145.364Z" fill="black"/>
<path d="M79.356 145.364H78.9C78.807 145.354 78.7205 145.312 78.6554 145.244C78.5904 145.177 78.551 145.089 78.544 144.996L75.744 125.62H77.856L79.7 144.868C79.711 144.923 79.7107 144.98 79.6992 145.035C79.6877 145.09 79.6652 145.143 79.6331 145.189C79.601 145.235 79.56 145.275 79.5124 145.305C79.4648 145.335 79.4116 145.355 79.356 145.364Z" fill="#FF657E"/>
<path opacity="0.3" d="M79.356 145.364H78.9C78.807 145.354 78.7205 145.312 78.6554 145.244C78.5904 145.177 78.551 145.089 78.544 144.996L75.744 125.62H77.856L79.7 144.868C79.711 144.923 79.7107 144.98 79.6992 145.035C79.6877 145.09 79.6652 145.143 79.6331 145.189C79.601 145.235 79.56 145.275 79.5124 145.305C79.4648 145.335 79.4116 145.355 79.356 145.364Z" fill="black"/>
<path d="M86.8719 102.652H72.6319C70.1039 93.8759 61.0319 86.9559 51.7039 86.9559H47.0799C37.3359 86.9559 31.0479 94.5559 33.0319 103.892C33.4076 105.612 34.0173 107.273 34.8439 108.828L37.0919 122.428C37.3799 124.184 38.7839 125.608 40.2199 125.608H83.0839C84.5199 125.608 85.9239 124.184 86.2119 122.428L88.9519 105.82C89.2439 104.076 88.3119 102.652 86.8719 102.652Z" fill="#FF657E"/>
<path opacity="0.5" d="M86.8719 102.652H72.6319C70.1039 93.8759 61.0319 86.9559 51.7039 86.9559H47.0799C37.3359 86.9559 31.0479 94.5559 33.0319 103.892C33.4076 105.612 34.0173 107.273 34.8439 108.828L37.0919 122.428C37.3799 124.184 38.7839 125.608 40.2199 125.608H83.0839C84.5199 125.608 85.9239 124.184 86.2119 122.428L88.9519 105.82C89.2439 104.076 88.3119 102.652 86.8719 102.652Z" fill="white"/>
<path d="M85.0156 38.86H81.7476V39.26H85.0156V38.86Z" fill="#FF657E"/>
<path d="M69.7276 43.572H69.3276V41.6C69.3287 40.8718 69.6187 40.1739 70.1339 39.6594C70.6492 39.1449 71.3475 38.856 72.0756 38.856H79.3676V39.256H72.0756C71.4536 39.256 70.857 39.5028 70.4168 39.9423C69.9765 40.3817 69.7287 40.9779 69.7276 41.6V43.572Z" fill="#FF657E"/>
<path d="M72.0757 40.26H108.544C108.9 40.26 109.242 40.4016 109.494 40.6537C109.746 40.9057 109.888 41.2476 109.888 41.604V55.904C109.888 56.2615 109.746 56.6044 109.493 56.8572C109.24 57.11 108.897 57.252 108.54 57.252H72.0757C71.7181 57.252 71.3753 57.11 71.1225 56.8572C70.8697 56.6044 70.7277 56.2615 70.7277 55.904V41.6C70.7282 41.4235 70.7635 41.2489 70.8315 41.086C70.8995 40.9231 70.999 40.7753 71.1241 40.6508C71.2493 40.5264 71.3978 40.4278 71.561 40.3608C71.7243 40.2937 71.8992 40.2595 72.0757 40.26Z" fill="#FF657E"/>
<path d="M106.82 49.6599H73.7996C73.5599 49.6599 73.3299 49.5647 73.1604 49.3952C72.9909 49.2256 72.8956 48.9957 72.8956 48.7559C72.8956 48.5162 72.9909 48.2862 73.1604 48.1167C73.3299 47.9472 73.5599 47.8519 73.7996 47.8519H106.82C107.059 47.8519 107.289 47.9472 107.459 48.1167C107.628 48.2862 107.724 48.5162 107.724 48.7559C107.724 48.9957 107.628 49.2256 107.459 49.3952C107.289 49.5647 107.059 49.6599 106.82 49.6599Z" fill="white"/>
<path d="M99.7517 53.416H73.7997C73.5599 53.416 73.33 53.3207 73.1604 53.1512C72.9909 52.9817 72.8957 52.7517 72.8957 52.512C72.8946 52.3926 72.9172 52.2742 72.9622 52.1636C73.0071 52.053 73.0735 51.9524 73.1576 51.8676C73.2416 51.7828 73.3417 51.7155 73.4519 51.6695C73.5621 51.6236 73.6803 51.6 73.7997 51.6H99.7517C99.9914 51.6 100.221 51.6952 100.391 51.8648C100.56 52.0343 100.656 52.2642 100.656 52.504C100.657 52.6234 100.634 52.7418 100.589 52.8524C100.544 52.963 100.478 53.0636 100.394 53.1484C100.31 53.2332 100.21 53.3005 100.099 53.3464C99.9893 53.3923 99.8711 53.416 99.7517 53.416Z" fill="white"/>
<path d="M84.9356 45.9039H73.7996C73.5599 45.9039 73.3299 45.8087 73.1604 45.6392C72.9909 45.4696 72.8956 45.2397 72.8956 44.9999C72.8956 44.7602 72.9909 44.5303 73.1604 44.3607C73.3299 44.1912 73.5599 44.0959 73.7996 44.0959H84.9356C85.1754 44.0959 85.4053 44.1912 85.5749 44.3607C85.7444 44.5303 85.8396 44.7602 85.8396 44.9999C85.8396 45.2397 85.7444 45.4696 85.5749 45.6392C85.4053 45.8087 85.1754 45.9039 84.9356 45.9039Z" fill="white"/>
<path d="M99.6956 45.9039H88.5596C88.3199 45.9039 88.0899 45.8087 87.9204 45.6392C87.7509 45.4696 87.6556 45.2397 87.6556 44.9999C87.6556 44.7602 87.7509 44.5303 87.9204 44.3607C88.0899 44.1912 88.3199 44.0959 88.5596 44.0959H99.6956C99.9354 44.0959 100.165 44.1912 100.335 44.3607C100.504 44.5303 100.6 44.7602 100.6 44.9999C100.6 45.2397 100.504 45.4696 100.335 45.6392C100.165 45.8087 99.9354 45.9039 99.6956 45.9039Z" fill="white"/>
<path d="M72.8956 56.1679V60.4999C72.8956 60.6857 72.9473 60.8677 73.045 61.0257C73.1426 61.1836 73.2823 61.3113 73.4484 61.3944C73.6145 61.4774 73.8005 61.5126 73.9854 61.4959C74.1704 61.4792 74.3471 61.4114 74.4956 61.2999L81.1356 56.1639L72.8956 56.1679Z" fill="#FF657E"/>
<path d="M129.124 18.7999H92.6557C92.4787 18.7999 92.3034 18.8348 92.1399 18.9025C91.9763 18.9703 91.8277 19.0696 91.7026 19.1947C91.5774 19.3199 91.4781 19.4685 91.4103 19.6321C91.3426 19.7956 91.3077 19.9709 91.3077 20.1479V34.4479C91.3077 34.8054 91.4498 35.1483 91.7026 35.4011C91.9554 35.6539 92.2982 35.7959 92.6557 35.7959H121.456L126.68 39.8359C126.828 39.9474 127.005 40.0152 127.19 40.0319C127.375 40.0486 127.561 40.0134 127.727 39.9304C127.893 39.8473 128.033 39.7196 128.13 39.5617C128.228 39.4037 128.28 39.2216 128.28 39.0359V35.7879H129.1C129.457 35.7879 129.8 35.6459 130.053 35.3931C130.306 35.1403 130.448 34.7974 130.448 34.4399V20.1479C130.448 19.7945 130.309 19.4553 130.061 19.2031C129.814 18.951 129.477 18.8062 129.124 18.7999Z" fill="white"/>
<path d="M127.3 40.248C127.034 40.2462 126.775 40.1578 126.564 39.996L121.396 35.996H92.6558C92.2456 35.9949 91.8524 35.8315 91.5624 35.5414C91.2723 35.2513 91.1088 34.8582 91.1078 34.448V20.148C91.1088 19.7377 91.2723 19.3446 91.5624 19.0545C91.8524 18.7645 92.2456 18.601 92.6558 18.6H129.124C129.534 18.601 129.927 18.7645 130.217 19.0545C130.507 19.3446 130.671 19.7377 130.672 20.148V34.448C130.671 34.8582 130.507 35.2513 130.217 35.5414C129.927 35.8315 129.534 35.9949 129.124 35.996H128.504V39.044C128.504 39.3622 128.377 39.6675 128.152 39.8925C127.927 40.1175 127.622 40.244 127.304 40.244L127.3 40.248ZM92.6558 19C92.3516 19.001 92.0603 19.1223 91.8452 19.3374C91.6301 19.5524 91.5088 19.8438 91.5078 20.148V34.448C91.5088 34.7521 91.6301 35.0435 91.8452 35.2586C92.0603 35.4736 92.3516 35.5949 92.6558 35.596H121.536L126.8 39.676C126.918 39.7694 127.06 39.8275 127.21 39.8437C127.36 39.8598 127.511 39.8334 127.646 39.7674C127.782 39.7013 127.896 39.5984 127.975 39.4704C128.055 39.3424 128.097 39.1946 128.096 39.044V35.6H129.116C129.42 35.5989 129.711 35.4776 129.926 35.2626C130.141 35.0475 130.263 34.7561 130.264 34.452V20.148C130.263 19.8438 130.141 19.5524 129.926 19.3374C129.711 19.1223 129.42 19.001 129.116 19H92.6558Z" fill="#FF657E"/>
<path d="M110.112 28.204H127.4C127.518 28.204 127.636 28.1806 127.746 28.1352C127.855 28.0898 127.955 28.0232 128.039 27.9392C128.123 27.8553 128.19 27.7557 128.235 27.646C128.28 27.5363 128.304 27.4187 128.304 27.3C128.302 27.0613 128.206 26.833 128.036 26.6645C127.867 26.4961 127.639 26.4011 127.4 26.4H110.112C109.872 26.4011 109.642 26.4972 109.472 26.6674C109.303 26.8376 109.208 27.0679 109.208 27.308C109.21 27.5464 109.306 27.7743 109.475 27.9421C109.645 28.1099 109.873 28.204 110.112 28.204Z" fill="#FF657E"/>
<path d="M98.0397 28.204H106.6C106.718 28.204 106.836 28.1806 106.946 28.1352C107.055 28.0898 107.155 28.0232 107.239 27.9392C107.323 27.8553 107.39 27.7557 107.435 27.646C107.48 27.5363 107.504 27.4187 107.504 27.3C107.502 27.0613 107.406 26.833 107.236 26.6645C107.067 26.4961 106.838 26.4011 106.6 26.4H98.0397C97.7996 26.4011 97.5697 26.4972 97.4003 26.6674C97.2309 26.8376 97.1357 27.0679 97.1357 27.308C97.1379 27.5464 97.234 27.7743 97.4033 27.9421C97.5726 28.1099 97.8014 28.204 98.0397 28.204Z" fill="#FF657E"/>
<path d="M101.444 31.96L127.4 31.96C127.899 31.96 128.304 31.5552 128.304 31.056C128.304 30.5567 127.899 30.152 127.4 30.152L101.444 30.152C100.944 30.152 100.54 30.5567 100.54 31.056C100.54 31.5552 100.944 31.96 101.444 31.96Z" fill="#FF657E"/>
<path d="M94.3996 24.448H127.4C127.639 24.448 127.869 24.3527 128.039 24.1832C128.208 24.0137 128.304 23.7837 128.304 23.544C128.304 23.3039 128.208 23.0735 128.039 22.9033C127.87 22.7332 127.64 22.637 127.4 22.636H94.3996C94.1595 22.637 93.9296 22.7332 93.7601 22.9033C93.5907 23.0735 93.4956 23.3039 93.4956 23.544C93.4956 23.7837 93.5908 24.0137 93.7604 24.1832C93.9299 24.3527 94.1598 24.448 94.3996 24.448Z" fill="#FF657E"/>
</svg>
