<svg width="200" height="150" viewBox="0 0 200 150" fill="none" xmlns="http://www.w3.org/2000/svg">
<path d="M200 130.96H0V131.06H200V130.96Z" fill="#EBEBEB"/>
<path d="M179.96 137.396H166.712V137.496H179.96V137.396Z" fill="#EBEBEB"/>
<path d="M132.488 138.484H129.012V138.584H132.488V138.484Z" fill="#EBEBEB"/>
<path d="M166.312 133.684H158.636V133.784H166.312V133.684Z" fill="#EBEBEB"/>
<path d="M38.26 134.356H20.984V134.456H38.26V134.356Z" fill="#EBEBEB"/>
<path d="M44.356 134.356H41.824V134.456H44.356V134.356Z" fill="#EBEBEB"/>
<path d="M90.0601 136.044H52.5881V136.144H90.0601V136.044Z" fill="#EBEBEB"/>
<path d="M94.7999 113.12H17.5639C16.9589 113.119 16.379 112.878 15.9515 112.45C15.524 112.021 15.2839 111.441 15.2839 110.836V2.264C15.2892 1.66241 15.5316 1.08719 15.9585 0.663287C16.3854 0.239383 16.9623 0.00103055 17.5639 0H94.7999C95.4057 0 95.9866 0.240635 96.415 0.668968C96.8433 1.0973 97.0839 1.67825 97.0839 2.284V110.836C97.0839 111.442 96.8433 112.023 96.415 112.451C95.9866 112.879 95.4057 113.12 94.7999 113.12ZM17.5639 0.0800003C16.9854 0.0810599 16.4309 0.311626 16.0222 0.721091C15.6135 1.13056 15.3839 1.68546 15.3839 2.264V110.836C15.3839 111.415 15.6135 111.969 16.0222 112.379C16.4309 112.788 16.9854 113.019 17.5639 113.02H94.7999C95.3788 113.019 95.9337 112.788 96.3431 112.379C96.7524 111.97 96.9829 111.415 96.9839 110.836V2.264C96.9829 1.68509 96.7524 1.1302 96.3431 0.720847C95.9337 0.311496 95.3788 0.0810577 94.7999 0.0800003H17.5639Z" fill="#EBEBEB"/>
<path d="M181.324 113.12H104.084C103.479 113.119 102.898 112.878 102.47 112.45C102.042 112.022 101.801 111.441 101.8 110.836V2.264C101.806 1.66205 102.05 1.08683 102.477 0.663037C102.905 0.239243 103.482 0.00101932 104.084 0H181.324C181.925 0.0020818 182.501 0.2409 182.927 0.664691C183.353 1.08848 183.595 1.6631 183.6 2.264V110.836C183.6 111.44 183.361 112.02 182.934 112.448C182.507 112.876 181.928 113.118 181.324 113.12ZM104.084 0.0800003C103.505 0.0810577 102.95 0.311496 102.541 0.720847C102.132 1.1302 101.901 1.68509 101.9 2.264V110.836C101.901 111.415 102.132 111.97 102.541 112.379C102.95 112.788 103.505 113.019 104.084 113.02H181.324C181.903 113.019 182.458 112.788 182.867 112.379C183.277 111.97 183.507 111.415 183.508 110.836V2.264C183.507 1.68509 183.277 1.1302 182.867 0.720847C182.458 0.311496 181.903 0.0810577 181.324 0.0800003H104.084Z" fill="#EBEBEB"/>
<path d="M149.264 30.004H143.596V47.648H149.264V30.004Z" fill="#E6E6E6"/>
<path d="M164.628 47.648H145.82L142.98 26.996H161.788L164.628 47.648Z" fill="#F0F0F0"/>
<path d="M166.664 47.648H147.24L144.4 26.996H163.824L166.664 47.648Z" fill="#F5F5F5"/>
<path d="M148.644 46.02L146.252 28.624H162.42L164.816 46.02H148.644Z" fill="white"/>
<path d="M151.84 40.752L150.94 34.224C150.913 34.0518 150.924 33.8757 150.973 33.7082C151.021 33.5406 151.105 33.3856 151.219 33.2538C151.333 33.1221 151.475 33.0169 151.634 32.9454C151.793 32.8739 151.966 32.838 152.14 32.84H158.016C158.31 32.8378 158.595 32.9437 158.816 33.1377C159.037 33.3316 159.18 33.6001 159.216 33.892L160.112 40.424C160.138 40.596 160.126 40.7716 160.078 40.9387C160.029 41.1058 159.945 41.2603 159.831 41.3915C159.717 41.5228 159.576 41.6277 159.417 41.6989C159.258 41.7701 159.086 41.806 158.912 41.804H153.044C152.749 41.8073 152.463 41.7018 152.241 41.5078C152.019 41.3137 151.876 41.0447 151.84 40.752Z" fill="#F5F5F5"/>
<path d="M113.98 10.672H29.264V62.932H113.98V10.672Z" fill="#E6E6E6"/>
<path d="M116.156 10.672H30.28V62.932H116.156V10.672Z" fill="#F0F0F0"/>
<path d="M113.98 62.936H29.264V66.98H113.98V62.936Z" fill="#E6E6E6"/>
<path d="M119.78 62.936H33.9039V66.98H119.78V62.936Z" fill="#F0F0F0"/>
<path d="M113.108 59.888V13.72L33.328 13.72V59.888L113.108 59.888Z" fill="#FAFAFA"/>
<path d="M39.184 59.888L57.068 13.72H65.508L47.624 59.888H39.184Z" fill="white"/>
<path d="M49.4401 59.888L67.3241 13.72H70.6121L52.7281 59.888H49.4401Z" fill="white"/>
<path d="M80.7279 59.888L98.6119 13.72H101.9L84.0199 59.888H80.7279Z" fill="white"/>
<path d="M113.104 59.888V13.72H112.716V59.888H113.104Z" fill="#E6E6E6"/>
<path d="M178.2 47.6479H160.264V130.96H178.2V47.6479Z" fill="#E6E6E6"/>
<path d="M176.396 130.96H178.2V125.828H174.504L176.396 130.96Z" fill="#F0F0F0"/>
<path d="M146.772 47.6479H128.836V130.96H146.772V47.6479Z" fill="#E6E6E6"/>
<path d="M178.2 47.6479H145.196V127.812H178.2V47.6479Z" fill="#F0F0F0"/>
<path d="M147 130.96H145.196V125.828H148.892L147 130.96Z" fill="#F0F0F0"/>
<path d="M176.8 49.116H146.596V86.932H176.8V49.116Z" fill="#E6E6E6"/>
<path d="M164.968 52.06H158.428C157.022 52.0599 155.631 51.7732 154.339 51.2175C153.048 50.6619 151.883 49.8488 150.916 48.828H172.48C171.514 49.8494 170.349 50.6628 169.057 51.2185C167.766 51.7742 166.374 52.0606 164.968 52.06Z" fill="#F0F0F0"/>
<path d="M176.8 88.464H146.596V126.28H176.8V88.464Z" fill="#E6E6E6"/>
<path d="M164.968 91.408H158.428C157.022 91.4079 155.631 91.1212 154.339 90.5656C153.048 90.0099 151.883 89.1968 150.916 88.176H172.48C171.514 89.1974 170.349 90.0108 169.057 90.5665C167.766 91.1223 166.374 91.4086 164.968 91.408Z" fill="#F0F0F0"/>
<path d="M51.8 73.9561H81.648L85.9761 91.584H56.124L51.8 73.9561Z" fill="#E6E6E6"/>
<path d="M56.124 91.584L56.248 92.556H86.096L85.976 91.584H56.124Z" fill="#E6E6E6"/>
<path d="M52.72 73.9561H82.568L86.896 91.584H57.044L52.72 73.9561Z" fill="#F0F0F0"/>
<path d="M57.6759 90.776L53.7439 74.76H81.9359L85.8679 90.776H57.6759Z" fill="white"/>
<path d="M64.824 91.584L64.944 92.556H97.812L97.692 91.584H64.824Z" fill="#F0F0F0"/>
<path d="M105.312 92.556H101.736V130.956H105.312V92.556Z" fill="#E6E6E6"/>
<path d="M106.444 92.556H103.96V130.956H106.444V92.556Z" fill="#F0F0F0"/>
<path d="M61.1321 96.952H107.216V92.556H61.1321V96.952Z" fill="#F0F0F0"/>
<path d="M59.5279 96.952H55.9519V130.956H59.5279V96.952Z" fill="#E6E6E6"/>
<path d="M60.6561 96.952H58.1721V130.956H60.6561V96.952Z" fill="#F0F0F0"/>
<path d="M36.892 96.952H33.316V130.956H36.892V96.952Z" fill="#E6E6E6"/>
<path d="M38.024 96.952H35.54V130.956H38.024V96.952Z" fill="#F0F0F0"/>
<path d="M82.6799 96.952H79.1039V130.956H82.6799V96.952Z" fill="#E6E6E6"/>
<path d="M83.808 96.952H81.324V130.956H83.808V96.952Z" fill="#F0F0F0"/>
<path d="M61.128 92.556H33.316V96.952H61.128V92.556Z" fill="#E6E6E6"/>
<path d="M116.936 130.96H116.068L113.6 118.704L113.164 116.556L110.428 103.2H100.028L94.3999 130.96H93.5199L99.2639 102.688C99.282 102.594 99.3315 102.51 99.4042 102.448C99.4769 102.386 99.5685 102.351 99.6639 102.348H110.8C110.896 102.347 110.99 102.381 111.063 102.443C111.137 102.506 111.185 102.593 111.2 102.688L113.6 114.416L114 116.56L116.936 130.96Z" fill="#F0F0F0"/>
<path d="M133.636 130.96H132.764L127.124 103.2H116.724L114 116.56L113.6 118.704L111.108 130.96H110.24L113.164 116.56L113.596 114.42L115.996 102.692C116.015 102.599 116.064 102.514 116.137 102.453C116.21 102.391 116.301 102.356 116.396 102.352H127.496C127.591 102.355 127.683 102.39 127.756 102.452C127.828 102.514 127.878 102.598 127.896 102.692L133.636 130.96Z" fill="#F0F0F0"/>
<path d="M108 102.772H127.112C130.76 102.772 132.784 100.292 133.816 96.204L134.32 93.868C134.49 93.1614 134.498 92.4255 134.342 91.7156C134.186 91.0057 133.871 90.3405 133.421 89.77C132.971 89.1996 132.397 88.7388 131.743 88.4225C131.088 88.1062 130.371 87.9425 129.644 87.944H117.644C115.164 87.944 114.508 88.536 112.792 92.272C111.076 96.008 108 102.772 108 102.772Z" fill="#F0F0F0"/>
<path d="M118.42 102.772H98.0519C97.7984 102.772 97.5552 102.671 97.3759 102.492C97.1966 102.313 97.0959 102.07 97.0959 101.816V101.728C97.0959 101.384 97.1636 101.044 97.2951 100.727C97.4265 100.41 97.6192 100.121 97.8621 99.8782C98.1051 99.6353 98.3934 99.4426 98.7108 99.3111C99.0282 99.1797 99.3684 99.112 99.7119 99.112H118.42V102.776V102.772Z" fill="#F0F0F0"/>
<path d="M100 149.024C142.833 149.024 177.556 146.997 177.556 144.496C177.556 141.995 142.833 139.968 100 139.968C57.167 139.968 22.444 141.995 22.444 144.496C22.444 146.997 57.167 149.024 100 149.024Z" fill="#F5F5F5"/>
<path d="M81.212 131.7L78.652 133.348L74.012 127.952L76.572 126.304L81.212 131.7Z" fill="#FF8B7B"/>
<path opacity="0.2" d="M76.576 126.304L74.012 127.952L76.408 130.736L78.968 129.084L76.576 126.304Z" fill="black"/>
<path d="M61.6478 140.5L58.7038 140.788L55.6438 133.788L58.5878 133.5L61.6478 140.5Z" fill="#FF8B7B"/>
<path opacity="0.2" d="M55.6479 133.792L57.224 137.4H60.2919L58.588 133.504L55.6479 133.792Z" fill="black"/>
<path d="M39.2918 46C37.8118 46.132 37.7718 43.62 35.1718 44.8C31.8678 46.304 32.9838 48.636 30.4038 48.54C27.8238 48.444 26.0958 50.456 26.6718 51.956C27.2478 53.456 28.1398 54.876 26.3158 55.48C24.4918 56.084 23.2518 56.616 23.5158 58.128C23.7798 59.64 25.0718 60.248 22.8958 61.212C20.7198 62.176 20.9398 66.344 23.0718 66.348C25.2038 66.352 23.1598 68.428 25.0718 70.54C26.9838 72.652 29.8918 72.94 31.1038 71.9C32.3158 70.86 33.6678 70 35.9478 71.6C38.2278 73.2 42.0878 73.6 41.9118 71.064C41.7358 68.528 39.5118 66.864 41.6078 65.544C43.7038 64.224 46.4078 63.572 45.5598 61.004C45.0198 59.404 43.3878 58.012 44.7038 56.816C46.8438 54.872 46.8558 50.472 44.2318 49.356C42.7078 48.712 44.1758 45.56 39.2918 46Z" fill="#263238"/>
<path d="M36.444 65.768C36.372 66.968 36.22 68.036 36.044 69.16C35.868 70.284 35.612 71.38 35.32 72.48C35.0354 73.592 34.6732 74.6827 34.236 75.744C34.02 76.28 33.772 76.812 33.508 77.344C33.376 77.608 33.232 77.868 33.084 78.124C33.016 78.256 32.932 78.384 32.856 78.524L32.74 78.712C32.6613 78.8372 32.573 78.9563 32.476 79.068C32.2542 79.3186 31.9814 79.5191 31.676 79.656C31.4032 79.7795 31.1107 79.854 30.812 79.876C30.3727 79.9013 29.9327 79.8415 29.516 79.7C28.8955 79.4867 28.3043 79.1965 27.756 78.836C26.7906 78.2044 25.877 77.4968 25.024 76.72C23.3796 75.2241 21.8462 73.6105 20.436 71.892L21.572 70.8C22.372 71.504 23.172 72.22 24.008 72.9C24.844 73.58 25.66 74.264 26.512 74.9C27.3232 75.5242 28.1788 76.0883 29.072 76.588C29.4497 76.802 29.8529 76.9673 30.272 77.08C30.3729 77.1112 30.4792 77.1208 30.584 77.108H30.504C30.4512 77.1337 30.4026 77.1675 30.36 77.208L30.34 77.228L30.428 77.064C30.484 76.956 30.548 76.852 30.6 76.74C30.712 76.5187 30.82 76.2947 30.924 76.068C31.124 75.612 31.324 75.148 31.484 74.664C31.82 73.704 32.1 72.712 32.348 71.704C32.596 70.696 32.784 69.668 32.952 68.632C33.12 67.596 33.248 66.536 33.352 65.552L36.444 65.768Z" fill="#FF8B7B"/>
<path d="M38.7678 66.144C38.6078 67.112 37.8038 68.944 37.1678 70.304C36.6958 71.288 36.3118 72.028 36.3118 72.028L35.7518 71.78L31.1158 69.716C31.4678 67.216 32.0398 64.516 34.7958 63.288C36.5158 62.528 39.0518 64.4 38.7678 66.144Z" fill="#FA1239"/>
<path opacity="0.6" d="M38.7678 66.144C38.6078 67.112 37.8038 68.944 37.1678 70.304C36.6958 71.288 36.3118 72.028 36.3118 72.028L35.7518 71.78L31.1158 69.716C31.4678 67.216 32.0398 64.516 34.7958 63.288C36.5158 62.528 39.0518 64.4 38.7678 66.144Z" fill="black"/>
<path opacity="0.3" d="M37.1559 70.304C36.6839 71.288 36.2999 72.028 36.2999 72.028L35.7399 71.78C35.8159 70.792 36.0119 69.236 36.5399 68.536C36.8697 69.0743 37.0797 69.6773 37.1559 70.304Z" fill="black"/>
<path d="M21.7479 71.716L22.1159 69.024L19.0959 70C19.0959 70 19.5759 71.6281 20.6519 72.2961L21.7479 71.716Z" fill="#FF8B7B"/>
<path d="M20.7479 66.724L18.6399 67.88L19.0959 70.016L22.1159 69.024L20.7479 66.724Z" fill="#FF8B7B"/>
<path d="M77.708 132.54L80.488 130.54C80.5357 130.505 80.5944 130.489 80.6532 130.494C80.7121 130.499 80.7671 130.525 80.808 130.568L82.7 132.54C82.746 132.591 82.7806 132.651 82.8017 132.717C82.8227 132.782 82.8297 132.851 82.8222 132.92C82.8146 132.988 82.7927 133.054 82.7579 133.114C82.723 133.173 82.676 133.224 82.62 133.264C81.64 133.944 81.132 134.22 79.908 135.096C79.156 135.636 77.572 136.94 76.532 137.684C75.492 138.428 74.704 137.444 75.068 137.04C76.708 135.232 77.144 134 77.404 132.984C77.451 132.805 77.5584 132.648 77.708 132.54Z" fill="#263238"/>
<path d="M58.3159 139.88H61.9159C61.9806 139.881 62.0433 139.903 62.0944 139.943C62.1456 139.982 62.1826 140.038 62.1999 140.1L62.9999 142.956C63.0193 143.023 63.0227 143.095 63.0096 143.164C62.9965 143.233 62.9673 143.298 62.9245 143.353C62.8817 143.409 62.8264 143.454 62.763 143.484C62.6997 143.514 62.6301 143.529 62.5599 143.528C61.2879 143.528 60.6839 143.528 59.0959 143.528H54.2399C52.9199 143.528 52.6399 142.192 53.1879 142.072C55.6359 141.532 57.0479 140.784 57.8039 140.072C57.944 139.945 58.127 139.877 58.3159 139.88Z" fill="#263238"/>
<path d="M52.82 76.984L41.032 80.712C32.872 64.56 34.036 63.704 34.036 63.704C34.036 63.704 35.92 62.628 37.88 61.732C38.176 61.596 38.476 61.464 38.772 61.332C40.5133 60.64 42.3019 60.0732 44.124 59.636C44.392 59.564 44.66 59.5 44.924 59.436C46.375 59.1079 47.8443 58.8661 49.324 58.712C49.5 60.948 49.676 62.84 49.868 64.484C50.116 66.628 50.384 68.344 50.668 69.828C51.1929 72.267 51.9126 74.66 52.82 76.984Z" fill="#FA1239"/>
<path opacity="0.6" d="M52.82 76.984L41.032 80.712C32.872 64.56 34.036 63.704 34.036 63.704C34.036 63.704 35.92 62.628 37.88 61.732C38.176 61.596 38.476 61.464 38.772 61.332C40.5133 60.64 42.3019 60.0732 44.124 59.636C44.392 59.564 44.66 59.5 44.924 59.436C46.375 59.1079 47.8443 58.8661 49.324 58.712C49.5 60.948 49.676 62.84 49.868 64.484C50.116 66.628 50.384 68.344 50.668 69.828C51.1929 72.267 51.9126 74.66 52.82 76.984Z" fill="black"/>
<path opacity="0.3" d="M50.6999 69.836C49.5679 68.236 48.4839 64.512 48.7639 63.116L49.8839 64.492C50.1319 66.636 50.3999 68.352 50.6999 69.836Z" fill="black"/>
<path d="M41.4518 66.72C41.4518 66.72 44.4238 66.076 45.3798 67.368C46.6918 66.076 46.2278 61.028 45.5958 59.228C45.0946 59.3132 44.6029 59.4471 44.1278 59.628L42.0278 62.876L41.4518 66.72Z" fill="white"/>
<path d="M41.452 66.72C41.452 66.72 39.452 67.168 39.24 68.804C36.44 66.72 36.636 63.668 37.268 61.868C37.7478 61.6357 38.2523 61.4586 38.772 61.34L40.872 63.652L41.452 66.72Z" fill="white"/>
<path d="M42.1358 56.236C42.5358 57.708 43.1438 59.164 44.1358 59.644C44.1358 59.644 45.0598 62.292 41.4598 66.72C37.6918 64.036 38.7798 61.34 38.7798 61.34C40.5558 60.272 40.0558 58.864 39.2998 57.632L40.3438 55.956C40.4478 55.7945 40.5965 55.6668 40.7717 55.5881C40.9469 55.5095 41.1412 55.4835 41.3309 55.5131C41.5207 55.5428 41.6977 55.6268 41.8406 55.7552C41.9835 55.8835 42.086 56.0505 42.1358 56.236Z" fill="#FF8B7B"/>
<path opacity="0.2" d="M42.136 56.236C42.0881 56.0474 41.9859 55.877 41.842 55.7461C41.6981 55.6151 41.5188 55.5294 41.3265 55.4995C41.1343 55.4697 40.9375 55.4971 40.7606 55.5782C40.5838 55.6594 40.4347 55.7907 40.332 55.956L39.996 56.492C40.024 56.848 40.04 57.14 40.036 57.292C40.004 58.332 41.464 58.284 42.652 57.784C42.4402 57.2821 42.2677 56.7645 42.136 56.236Z" fill="black"/>
<path d="M34.8999 52.216C35.9399 55.052 36.3159 56.276 38.2199 57.324C41.0799 58.904 44.3359 57.008 44.1679 53.916C44.0159 51.136 42.3439 46.96 39.1719 46.652C38.4727 46.5812 37.7671 46.6902 37.1219 46.9688C36.4767 47.2473 35.9134 47.6861 35.4854 48.2435C35.0574 48.8009 34.779 49.4584 34.6765 50.1537C34.5741 50.8489 34.6509 51.5588 34.8999 52.216Z" fill="#FF8B7B"/>
<path d="M42.2558 47.952C41.2798 47.012 40.2558 45.92 38.2958 46.132C36.1278 46.368 35.2718 47.68 35.2718 47.68L33.4078 51.756C33.4078 51.756 34.5638 57.004 36.4718 54.556C37.5718 53.14 37.5998 51 37.1998 49.4C37.9494 49.2943 38.6882 49.123 39.4078 48.888C40.2878 49.216 41.2758 49.216 42.0078 48.544C42.1678 48.396 42.2838 48.28 42.3678 48.188L42.4358 48.112C42.6518 47.836 42.4718 47.864 42.2558 47.952ZM39.7358 48.8C40.4191 48.579 41.1134 48.3934 41.8158 48.244C41.5547 48.5203 41.2219 48.7186 40.8546 48.8167C40.4873 48.9149 40.1 48.9091 39.7358 48.8Z" fill="#263238"/>
<path d="M35.044 55.1C35.3443 55.6034 35.8319 55.9673 36.4 56.112C37.152 56.3 37.508 55.624 37.28 54.912C37.076 54.284 36.44 53.428 35.68 53.548C35.5157 53.578 35.3615 53.6489 35.2318 53.7541C35.1021 53.8594 35.0009 53.9955 34.9375 54.1501C34.8742 54.3046 34.8508 54.4726 34.8694 54.6386C34.8879 54.8046 34.948 54.9633 35.044 55.1Z" fill="#FF8B7B"/>
<path d="M41.0319 80.716C41.0319 80.716 40.6319 104.872 43.7879 113.6C46.8279 121.968 55.8959 136.352 55.8959 136.352L61.1519 136.22C61.1519 136.22 52.7999 118 51.4359 110.8C49.1639 98.852 49.6639 78 49.6639 78L41.0319 80.716Z" fill="#FA1239"/>
<path opacity="0.3" d="M45.7518 82.8L47.1638 78.8L49.6638 78C49.6638 78 49.4358 87.492 49.9838 97.336C47.7158 92.968 45.7518 84.968 45.7518 82.8Z" fill="black"/>
<path d="M55.1558 136.624L61.6478 136.46L61.2718 134.464L54.1838 134.8L55.1558 136.624Z" fill="#263238"/>
<path d="M43.5999 79.936C43.5999 79.936 51.7999 98.692 57.0999 109.368C61.3799 117.992 74.6999 129.56 74.6999 129.56L78.3519 127.028C78.3519 127.028 68.3279 113.324 65.3719 107.476C55.9119 88.764 58.2439 81.052 52.8039 76.984L43.5999 79.936Z" fill="#FA1239"/>
<path d="M74.916 130.768L79.204 127.716L78.232 125.844L73.52 129.408L74.916 130.768Z" fill="#263238"/>
<path d="M52.7998 76.236L53.6638 77.124C53.7318 77.192 53.6638 77.308 53.5238 77.352L41.1598 81.26C41.0558 81.296 40.9518 81.26 40.9238 81.208L40.4838 80.184C40.4518 80.116 40.5238 80.024 40.6398 79.988L52.5798 76.208C52.6158 76.1931 52.6549 76.1879 52.6935 76.1928C52.7321 76.1977 52.7687 76.2126 52.7998 76.236Z" fill="#263238"/>
<path d="M51.5999 78.08L51.9199 77.98C51.9839 77.98 52.0239 77.908 52.0039 77.872L51.4239 76.548C51.4067 76.5264 51.3829 76.5111 51.3561 76.5046C51.3293 76.4981 51.301 76.5007 51.2759 76.512L50.9559 76.616C50.8919 76.636 50.8519 76.684 50.8719 76.724L51.4559 78.044C51.4679 78.084 51.5319 78.1 51.5999 78.08Z" fill="#FA1239"/>
<path d="M42.0759 81.0921L42.3959 80.9921C42.4599 80.9721 42.4959 80.9241 42.4799 80.8841L41.8959 79.5601C41.8959 79.5201 41.8119 79.5081 41.7479 79.5281L41.4279 79.6281C41.3679 79.6481 41.3279 79.6961 41.3439 79.7361L41.9279 81.0601C41.9459 81.0804 41.97 81.0945 41.9966 81.1003C42.0233 81.106 42.051 81.1032 42.0759 81.0921Z" fill="#FA1239"/>
<path d="M46.836 79.6001L47.156 79.5001C47.22 79.4801 47.26 79.4321 47.24 79.3921L46.656 78.0681C46.656 78.0321 46.576 78.0161 46.512 78.0361L46.192 78.1361C46.128 78.1361 46.088 78.2041 46.108 78.2441L46.688 79.5681C46.708 79.6001 46.772 79.6001 46.836 79.6001Z" fill="#FA1239"/>
<path d="M39.876 51.6C39.948 51.836 40.128 52 40.276 51.944C40.424 51.888 40.496 51.668 40.424 51.436C40.352 51.204 40.176 51.036 40.024 51.092C39.872 51.148 39.808 51.356 39.876 51.6Z" fill="#263238"/>
<path d="M42.536 50.8C42.608 51.036 42.788 51.2 42.936 51.144C43.084 51.088 43.156 50.872 43.088 50.636C43.02 50.4 42.836 50.236 42.688 50.292C42.54 50.348 42.468 50.564 42.536 50.8Z" fill="#263238"/>
<path d="M42.6239 50.3239L43.1399 49.9919C43.1399 49.9919 42.9839 50.5199 42.6239 50.3239Z" fill="#263238"/>
<path d="M41.8719 51.412C42.2431 51.8853 42.6763 52.3064 43.1599 52.664C43.0634 52.7845 42.942 52.8827 42.8038 52.9518C42.6657 53.0208 42.5143 53.0591 42.3599 53.064L41.8719 51.412Z" fill="#FF5652"/>
<path d="M41.5679 54.36C41.5789 54.3511 41.5871 54.3391 41.5913 54.3256C41.5956 54.3121 41.5958 54.2976 41.5919 54.284C41.5863 54.2659 41.5742 54.2506 41.5579 54.241C41.5417 54.2314 41.5224 54.2282 41.5039 54.232C41.2134 54.3269 40.9044 54.3513 40.6026 54.3033C40.3008 54.2554 40.0146 54.1363 39.7679 53.956C39.7605 53.9497 39.752 53.9449 39.7428 53.9419C39.7336 53.9389 39.7239 53.9377 39.7142 53.9384C39.7046 53.9392 39.6951 53.9418 39.6865 53.9462C39.6779 53.9506 39.6702 53.9566 39.6639 53.964C39.6576 53.9713 39.6528 53.9799 39.6498 53.9891C39.6468 53.9983 39.6456 54.008 39.6463 54.0176C39.6471 54.0273 39.6497 54.0367 39.6541 54.0454C39.6585 54.054 39.6645 54.0617 39.6719 54.068C39.9372 54.264 40.2454 54.3939 40.5711 54.4467C40.8967 54.4996 41.2302 54.474 41.5439 54.372L41.5679 54.36Z" fill="#263238"/>
<path d="M38.872 50.948C38.8906 50.9305 38.9044 50.9085 38.912 50.884C38.9714 50.7133 39.07 50.5588 39.1999 50.4331C39.3298 50.3073 39.4874 50.2138 39.66 50.16C39.6801 50.1579 39.6995 50.1516 39.717 50.1415C39.7345 50.1314 39.7497 50.1177 39.7616 50.1014C39.7734 50.085 39.7817 50.0664 39.7859 50.0466C39.7901 50.0268 39.7901 50.0064 39.7858 49.9866C39.7816 49.9669 39.7732 49.9482 39.7613 49.9319C39.7494 49.9156 39.7342 49.902 39.7167 49.8919C39.6991 49.8818 39.6797 49.8756 39.6596 49.8735C39.6395 49.8715 39.6192 49.8737 39.6 49.88C39.3776 49.9436 39.1742 50.0607 39.0076 50.2211C38.8409 50.3815 38.7161 50.5803 38.644 50.8C38.6369 50.8179 38.6335 50.8369 38.6339 50.8561C38.6344 50.8753 38.6386 50.8942 38.6464 50.9117C38.6543 50.9292 38.6655 50.945 38.6795 50.9581C38.6935 50.9712 38.71 50.9814 38.728 50.988C38.7534 50.9932 38.7798 50.9923 38.8048 50.9854C38.8298 50.9784 38.8529 50.9656 38.872 50.948Z" fill="#263238"/>
<path d="M43.3478 49.292C43.3465 49.2827 43.3465 49.2732 43.3478 49.264C43.3528 49.2265 43.3437 49.1886 43.3222 49.1576C43.3008 49.1265 43.2686 49.1046 43.2318 49.096C43.0077 49.0483 42.7755 49.0546 42.5543 49.1144C42.3331 49.1742 42.1294 49.2858 41.9598 49.44C41.9333 49.4675 41.9188 49.5045 41.9196 49.5428C41.9203 49.581 41.9363 49.6174 41.9638 49.644C41.9914 49.6705 42.0284 49.685 42.0667 49.6842C42.1049 49.6834 42.1413 49.6675 42.1678 49.64C42.3033 49.52 42.4653 49.4339 42.6405 49.3887C42.8158 49.3435 42.9992 49.3405 43.1758 49.38C43.2103 49.3883 43.2466 49.384 43.2782 49.3679C43.3097 49.3517 43.3345 49.3248 43.3478 49.292Z" fill="#263238"/>
<path d="M51.1319 61.5439C51.6079 61.8999 52.0079 62.2319 52.4239 62.5919C52.8399 62.9519 53.2239 63.3119 53.6239 63.6879C54.4039 64.4399 55.1559 65.2239 55.8679 66.0479C56.5878 66.8765 57.2558 67.7489 57.8679 68.6599C58.0279 68.8839 58.1679 69.1279 58.3159 69.3599C58.4639 69.5919 58.6119 69.8279 58.7439 70.0759C58.8759 70.3239 59.0159 70.5439 59.1439 70.8199L59.3559 71.2639L59.5279 71.7119C59.8966 72.8478 60.0698 74.0381 60.0399 75.2319C60.0156 76.3414 59.8965 77.4468 59.6839 78.5359C59.4759 79.6039 59.2039 80.6479 58.8839 81.6719C58.5613 82.6977 58.1848 83.7058 57.7559 84.6919L56.3079 84.1559C56.5559 83.1959 56.7919 82.1879 56.9679 81.1919C57.1634 80.2056 57.3063 79.2095 57.3959 78.2079C57.4921 77.2377 57.5148 76.2616 57.4639 75.2879C57.4353 74.8264 57.3792 74.3669 57.2959 73.9119C57.2082 73.4921 57.0865 73.0801 56.9319 72.6799L56.8079 72.4039L56.6719 72.1519C56.5639 71.9679 56.4159 71.7519 56.2719 71.5479C56.1279 71.3439 56.0079 71.1479 55.8719 70.9439C55.7359 70.7399 55.5959 70.5439 55.4439 70.3519C54.8599 69.5519 54.1999 68.8239 53.5439 68.0839C52.8879 67.3439 52.1679 66.6479 51.4359 65.9679C51.0759 65.6239 50.7039 65.2879 50.3319 64.9599C49.9599 64.6319 49.5599 64.3039 49.2159 64.0239L51.1319 61.5439Z" fill="#FF8B7B"/>
<path d="M56.7678 83.2L54.5758 84.8L57.3758 86.28C57.3758 86.28 58.2118 84.8 57.9438 83.564L56.7678 83.2Z" fill="#FF8B7B"/>
<path d="M53.8839 87.396L56.1759 88.104L57.3959 86.288L54.5759 84.808L53.8839 87.396Z" fill="#FF8B7B"/>
<path d="M49.34 58.72C50.872 58.652 53.884 62.416 53.884 62.416L50.756 66.84C50.756 66.84 47.244 64.04 46.972 62.092C46.744 60.432 47.388 58.8 49.34 58.72Z" fill="#FA1239"/>
<path opacity="0.6" d="M49.34 58.72C50.872 58.652 53.884 62.416 53.884 62.416L50.756 66.84C50.756 66.84 47.244 64.04 46.972 62.092C46.744 60.432 47.388 58.8 49.34 58.72Z" fill="black"/>
<path d="M76.656 133.792H76.608C76.5379 133.783 76.4713 133.756 76.4151 133.713C76.3589 133.67 76.315 133.613 76.288 133.548C76.267 133.51 76.256 133.467 76.256 133.424C76.256 133.381 76.267 133.338 76.288 133.3C76.484 132.964 77.584 132.9 77.708 132.9C77.7219 132.9 77.7356 132.903 77.7476 132.911C77.7596 132.918 77.7694 132.928 77.776 132.94C77.7839 132.952 77.7882 132.966 77.7882 132.98C77.7882 132.994 77.7839 133.008 77.776 133.02C77.508 133.316 77.032 133.792 76.656 133.792ZM77.536 133.06C77.096 133.092 76.512 133.196 76.412 133.372C76.4012 133.388 76.3954 133.407 76.3954 133.426C76.3954 133.445 76.4012 133.464 76.412 133.48C76.4289 133.524 76.4571 133.562 76.4936 133.592C76.5301 133.621 76.5737 133.641 76.62 133.648C76.832 133.672 77.168 133.452 77.536 133.06Z" fill="#FA1239"/>
<path d="M77.632 133.052C77.264 133.052 76.54 132.848 76.404 132.552C76.3823 132.5 76.3784 132.441 76.3928 132.387C76.4073 132.332 76.4393 132.283 76.484 132.248C76.5255 132.211 76.5744 132.183 76.6274 132.165C76.6805 132.148 76.7365 132.142 76.792 132.148C77.228 132.196 77.744 132.904 77.764 132.948C77.7707 132.959 77.7743 132.971 77.7743 132.984C77.7743 132.997 77.7707 133.009 77.764 133.02C77.7585 133.031 77.7505 133.04 77.7408 133.047C77.731 133.054 77.7198 133.058 77.708 133.06L77.632 133.052ZM76.744 132.292C76.6843 132.292 76.6269 132.315 76.584 132.356C76.516 132.416 76.524 132.464 76.536 132.496C76.624 132.688 77.192 132.896 77.564 132.896C77.38 132.668 77.036 132.308 76.764 132.28L76.744 132.292Z" fill="#FA1239"/>
<path d="M56.7119 140.476C56.4656 140.494 56.2197 140.435 56.0079 140.308C55.953 140.268 55.9079 140.215 55.8761 140.155C55.8442 140.095 55.8264 140.028 55.8239 139.96C55.8207 139.922 55.8274 139.884 55.8436 139.85C55.8597 139.815 55.8847 139.786 55.9159 139.764C56.2439 139.544 57.4719 140.1 57.7159 140.216C57.7295 140.222 57.7408 140.232 57.7481 140.245C57.7553 140.258 57.758 140.273 57.7559 140.288C57.7546 140.303 57.7484 140.318 57.7384 140.329C57.7283 140.341 57.7148 140.349 57.6999 140.352C57.3756 140.426 57.0446 140.468 56.7119 140.476ZM56.1399 139.852C56.0899 139.849 56.0401 139.86 55.9959 139.884C55.9856 139.892 55.9775 139.902 55.9726 139.914C55.9677 139.926 55.966 139.939 55.9679 139.952C55.9695 139.999 55.9818 140.045 56.004 140.087C56.0262 140.129 56.0576 140.164 56.0959 140.192C56.3079 140.352 56.8079 140.376 57.4519 140.256C57.0384 140.054 56.5957 139.917 56.1399 139.852Z" fill="#FA1239"/>
<path d="M57.684 140.352H57.66C57.26 140.184 56.428 139.524 56.46 139.184C56.46 139.112 56.52 139.016 56.704 138.996C57.424 138.908 57.728 140.196 57.74 140.268C57.7427 140.281 57.7418 140.295 57.7376 140.307C57.7334 140.32 57.726 140.331 57.716 140.34C57.7066 140.347 57.6956 140.351 57.684 140.352ZM56.8 139.132H56.752C56.676 139.132 56.636 139.164 56.628 139.2C56.604 139.396 57.172 139.92 57.588 140.148C57.48 139.832 57.22 139.132 56.8 139.132Z" fill="#FA1239"/>
<path d="M39.964 51.1161L40.48 50.7841C40.48 50.7841 40.324 51.3121 39.964 51.1161Z" fill="#263238"/>
<path d="M115.452 21.868H57.32C56.6989 21.8638 56.0835 21.9868 55.5118 22.2295C54.9401 22.4722 54.4242 22.8294 53.9958 23.2792C53.5674 23.7289 53.2357 24.2616 53.0211 24.8444C52.8065 25.4273 52.7135 26.0479 52.748 26.668L58.2 139.696C58.2776 140.984 58.8396 142.194 59.773 143.085C60.7064 143.975 61.9421 144.479 63.232 144.496H121.364C121.985 144.5 122.6 144.377 123.172 144.135C123.743 143.892 124.259 143.534 124.687 143.085C125.115 142.635 125.446 142.102 125.66 141.519C125.875 140.936 125.967 140.316 125.932 139.696L120.484 26.668C120.406 25.3804 119.844 24.1699 118.911 23.2795C117.978 22.3891 116.742 21.8849 115.452 21.868Z" fill="black"/>
<path d="M117.6 21.868H59.4517C58.8308 21.8638 58.2156 21.9868 57.6441 22.2295C57.0726 22.4723 56.5569 22.8296 56.1288 23.2794C55.7008 23.7292 55.3694 24.2619 55.1553 24.8447C54.9411 25.4276 54.8487 26.0481 54.8837 26.668L60.3317 139.696C60.4094 140.984 60.9713 142.194 61.9047 143.085C62.8381 143.975 64.0738 144.479 65.3637 144.496H123.496C124.117 144.5 124.732 144.377 125.303 144.135C125.875 143.892 126.391 143.534 126.819 143.085C127.247 142.635 127.578 142.102 127.792 141.519C128.006 140.936 128.099 140.316 128.064 139.696L122.616 26.668C122.538 25.3831 121.979 24.1748 121.049 23.2849C120.118 22.3949 118.887 21.8889 117.6 21.868Z" fill="#263238"/>
<path d="M65.1997 141.296C64.7715 141.285 64.3627 141.115 64.0529 140.82C63.743 140.524 63.5544 140.123 63.5237 139.696L58.0837 26.668C58.074 26.4617 58.1062 26.2556 58.1784 26.0621C58.2505 25.8685 58.3612 25.6917 58.5036 25.5421C58.6461 25.3926 58.8173 25.2735 59.0071 25.192C59.1969 25.1105 59.4012 25.0683 59.6077 25.068H117.74C118.168 25.077 118.578 25.2463 118.889 25.5424C119.199 25.8385 119.387 26.2401 119.416 26.668L124.864 139.696C124.873 139.902 124.841 140.108 124.769 140.301C124.698 140.494 124.587 140.671 124.445 140.82C124.303 140.97 124.132 141.089 123.943 141.171C123.754 141.253 123.55 141.295 123.344 141.296H65.1997Z" fill="#FA1239"/>
<path opacity="0.1" d="M65.1718 140.496C64.958 140.489 64.7544 140.403 64.5995 140.256C64.4446 140.108 64.3494 139.909 64.3318 139.696L58.8838 26.668C58.8801 26.5653 58.8969 26.4629 58.9332 26.3668C58.9696 26.2707 59.0248 26.1828 59.0956 26.1082C59.1664 26.0337 59.2513 25.9741 59.3455 25.9329C59.4396 25.8916 59.541 25.8696 59.6438 25.868H117.776C117.99 25.8743 118.194 25.9594 118.349 26.1071C118.504 26.2548 118.599 26.4546 118.616 26.668L124.064 139.696C124.068 139.799 124.051 139.901 124.014 139.997C123.978 140.093 123.923 140.181 123.852 140.256C123.781 140.33 123.696 140.39 123.602 140.431C123.508 140.472 123.407 140.494 123.304 140.496H65.1718Z" fill="black"/>
<g opacity="0.3">
<path d="M82.7157 134H71.1997C70.8836 133.997 70.5806 133.873 70.3519 133.655C70.1232 133.437 69.9859 133.14 69.9677 132.824L69.1277 115.34C69.1172 115.186 69.1388 115.03 69.1911 114.885C69.2434 114.739 69.3252 114.605 69.4315 114.493C69.5378 114.38 69.6662 114.291 69.8088 114.23C69.9513 114.169 70.1048 114.139 70.2597 114.14H81.7957C82.111 114.143 82.4136 114.265 82.6417 114.483C82.8698 114.701 83.0064 114.997 83.0237 115.312L83.8517 132.8C83.8616 132.955 83.8395 133.11 83.7867 133.256C83.734 133.402 83.6518 133.535 83.5452 133.648C83.4386 133.76 83.3099 133.85 83.1672 133.91C83.0244 133.971 82.8708 134.001 82.7157 134ZM70.2437 114.548C70.1439 114.548 70.045 114.567 69.9529 114.606C69.8608 114.644 69.7774 114.701 69.7077 114.772C69.6397 114.846 69.587 114.932 69.5527 115.026C69.5184 115.12 69.5031 115.22 69.5077 115.32L70.3517 132.8C70.3629 133.014 70.455 133.216 70.6096 133.365C70.7641 133.513 70.9694 133.597 71.1837 133.6H82.7157C82.816 133.601 82.9153 133.581 83.0076 133.542C83.0999 133.502 83.1831 133.445 83.2521 133.372C83.3211 133.299 83.3745 133.213 83.4088 133.119C83.4431 133.024 83.4577 132.924 83.4517 132.824L82.6077 115.34C82.5975 115.126 82.5062 114.925 82.3523 114.776C82.1984 114.627 81.9936 114.543 81.7797 114.54L70.2437 114.548Z" fill="#FAFAFA"/>
<path d="M81.6276 118.608H70.7996C70.7466 118.608 70.6957 118.587 70.6582 118.549C70.6207 118.512 70.5996 118.461 70.5996 118.408C70.5996 118.355 70.6207 118.304 70.6582 118.267C70.6957 118.229 70.7466 118.208 70.7996 118.208H81.6396C81.6927 118.208 81.7435 118.229 81.781 118.267C81.8185 118.304 81.8396 118.355 81.8396 118.408C81.8396 118.461 81.8185 118.512 81.781 118.549C81.7435 118.587 81.6927 118.608 81.6396 118.608H81.6276Z" fill="#FAFAFA"/>
<path d="M81.7396 120.868H70.8956C70.8428 120.867 70.7926 120.846 70.7553 120.808C70.718 120.771 70.6966 120.721 70.6956 120.668C70.6956 120.615 70.7166 120.564 70.7541 120.527C70.7916 120.489 70.8425 120.468 70.8956 120.468H81.7396C81.7926 120.468 81.8435 120.489 81.881 120.527C81.9185 120.564 81.9396 120.615 81.9396 120.668C81.9385 120.721 81.9171 120.771 81.8798 120.808C81.8426 120.846 81.7923 120.867 81.7396 120.868Z" fill="#FAFAFA"/>
<path d="M81.8476 123.128H71.0036C70.9509 123.127 70.9006 123.106 70.8633 123.068C70.826 123.031 70.8046 122.981 70.8036 122.928C70.8036 122.875 70.8247 122.824 70.8622 122.787C70.8997 122.749 70.9505 122.728 71.0036 122.728H81.8476C81.9006 122.728 81.9515 122.749 81.989 122.787C82.0265 122.824 82.0476 122.875 82.0476 122.928C82.0476 122.981 82.0265 123.032 81.989 123.069C81.9515 123.107 81.9006 123.128 81.8476 123.128Z" fill="#FAFAFA"/>
<path d="M81.9557 125.388H71.1156C71.0626 125.388 71.0117 125.367 70.9742 125.329C70.9367 125.292 70.9156 125.241 70.9156 125.188C70.9156 125.135 70.9367 125.084 70.9742 125.047C71.0117 125.009 71.0626 124.988 71.1156 124.988H81.9557C82.0087 124.988 82.0596 125.009 82.0971 125.047C82.1346 125.084 82.1557 125.135 82.1557 125.188C82.1557 125.241 82.1346 125.292 82.0971 125.329C82.0596 125.367 82.0087 125.388 81.9557 125.388Z" fill="#FAFAFA"/>
<path d="M82.0637 127.648H71.2237C71.1706 127.648 71.1198 127.627 71.0823 127.589C71.0448 127.552 71.0237 127.501 71.0237 127.448C71.0237 127.395 71.0448 127.344 71.0823 127.307C71.1198 127.269 71.1706 127.248 71.2237 127.248H82.0637C82.1167 127.248 82.1676 127.269 82.2051 127.307C82.2426 127.344 82.2637 127.395 82.2637 127.448C82.2637 127.501 82.2426 127.552 82.2051 127.589C82.1676 127.627 82.1167 127.648 82.0637 127.648Z" fill="#FAFAFA"/>
<path d="M79.9517 129.908H71.3317C71.2787 129.908 71.2278 129.887 71.1903 129.849C71.1528 129.812 71.1317 129.761 71.1317 129.708C71.1317 129.655 71.1528 129.604 71.1903 129.567C71.2278 129.529 71.2787 129.508 71.3317 129.508H79.9517C80.0048 129.508 80.0556 129.529 80.0931 129.567C80.1306 129.604 80.1517 129.655 80.1517 129.708C80.1507 129.761 80.1293 129.811 80.092 129.848C80.0547 129.886 80.0044 129.907 79.9517 129.908Z" fill="#FAFAFA"/>
</g>
<g opacity="0.3">
<path d="M89.9758 69.852L82.0677 71.116C81.7625 70.3635 81.359 69.6547 80.8677 69.008C80.3944 68.5112 79.8346 68.1046 79.2157 67.808L79.5117 74.008C83.9091 75.1654 86.8678 76.3867 88.3878 77.672C89.3568 78.4796 90.1432 79.4838 90.6949 80.6182C91.2465 81.7525 91.5509 82.9912 91.5878 84.252C91.6936 85.7277 91.4224 87.206 90.7997 88.548C90.2075 89.8 89.3552 90.9113 88.2997 91.808C87.3166 92.6502 86.1797 93.2941 84.9518 93.704C83.5104 94.1374 82.0166 94.3715 80.5117 94.4L80.5638 95.492C80.5758 95.6942 80.5462 95.8966 80.4767 96.0868C80.4072 96.277 80.2993 96.4508 80.1597 96.5975C80.0202 96.7442 79.8519 96.8606 79.6654 96.9395C79.4789 97.0184 79.2782 97.058 79.0758 97.056C78.6551 97.0517 78.2518 96.8877 77.9473 96.5974C77.6429 96.3071 77.4601 95.912 77.4357 95.492L77.3838 94.4C75.6282 94.2873 73.8949 93.9457 72.2278 93.384C70.9507 92.9226 69.7696 92.2297 68.7438 91.34C67.8074 90.5405 67.0146 89.5868 66.3997 88.52C65.7832 87.3728 65.3346 86.1429 65.0677 84.868L73.6717 83.864C73.9971 85.2747 74.3971 86.2947 74.8717 86.924C75.4681 87.6552 76.2344 88.2292 77.1037 88.596L76.7398 81.028C74.6089 80.4976 72.5226 79.8022 70.4997 78.948C69.1911 78.2955 68.0663 77.3261 67.2278 76.128C66.2476 74.7433 65.7056 73.0962 65.6717 71.4C65.5788 70.2297 65.7417 69.0531 66.1493 67.952C66.5568 66.851 67.1992 65.8518 68.0318 65.024C69.7278 63.3147 72.3278 62.368 75.8318 62.184L75.8037 61.628C75.7917 61.4259 75.8213 61.2235 75.8908 61.0333C75.9603 60.8431 76.0682 60.6693 76.2078 60.5226C76.3473 60.3759 76.5156 60.2595 76.7021 60.1806C76.8886 60.1017 77.0893 60.062 77.2917 60.064C77.7124 60.0684 78.1157 60.2323 78.4202 60.5226C78.7246 60.813 78.9074 61.2081 78.9318 61.628L78.9597 62.184C82.1597 62.384 84.6411 63.1414 86.4037 64.456C88.1767 65.793 89.4375 67.6977 89.9758 69.852ZM76.0958 67.712C75.3826 67.8949 74.7386 68.2829 74.2438 68.828C73.907 69.28 73.7438 69.8378 73.7838 70.4C73.8049 71.003 74.0242 71.5822 74.4078 72.048C74.9418 72.6084 75.6178 73.0134 76.3638 73.22L76.0958 67.712ZM80.2438 88.8C81.4438 88.5334 82.3104 88.0854 82.8438 87.456C83.0998 87.1729 83.2973 86.842 83.425 86.4823C83.5527 86.1226 83.608 85.7412 83.5878 85.36C83.547 84.6655 83.2639 84.0073 82.7878 83.5C82.2838 82.936 81.3237 82.408 79.9157 81.924L80.2438 88.8Z" fill="#FAFAFA"/>
</g>
<path opacity="0.2" d="M110.88 36.624H71.2798L75.1398 116.668C75.3282 119.947 76.7546 123.033 79.1307 125.3C81.5069 127.568 84.6554 128.849 87.9398 128.884H127.54L123.684 48.84C123.497 45.5595 122.071 42.4725 119.693 40.2043C117.316 37.9361 114.165 36.6563 110.88 36.624Z" fill="black"/>
<path d="M120.58 36.624H71.2917C74.5764 36.6582 77.7255 37.9388 80.1018 40.2067C82.4782 42.4746 83.9043 45.5605 84.0917 48.84L87.2398 114C87.4281 117.279 88.8546 120.365 91.2307 122.632C93.6068 124.9 96.7554 126.181 100.04 126.216H124.892C126.474 126.232 128.043 125.923 129.5 125.308C130.958 124.692 132.274 123.783 133.365 122.637C134.456 121.491 135.3 120.133 135.844 118.647C136.389 117.162 136.621 115.58 136.528 114L133.384 48.84C133.197 45.5595 131.771 42.4725 129.393 40.2043C127.016 37.9361 123.865 36.6563 120.58 36.624Z" fill="#FAFAFA"/>
<path d="M111.672 114C111.766 115.579 111.534 117.16 110.991 118.645C110.448 120.131 109.605 121.488 108.514 122.634C107.424 123.78 106.11 124.689 104.654 125.305C103.197 125.921 101.629 126.231 100.048 126.216H149.332C150.913 126.231 152.481 125.921 153.938 125.305C155.395 124.689 156.709 123.78 157.8 122.634C158.89 121.489 159.734 120.131 160.277 118.646C160.821 117.16 161.053 115.579 160.96 114H111.672Z" fill="#E6E6E6"/>
<path d="M127.52 77.0681H92.6878C92.4437 77.0655 92.2096 76.9703 92.0329 76.8017C91.8562 76.6332 91.75 76.4039 91.7358 76.1601C91.7293 76.0428 91.7468 75.9255 91.7873 75.8153C91.8279 75.7051 91.8905 75.6043 91.9715 75.5192C92.0524 75.4342 92.1499 75.3666 92.258 75.3206C92.3661 75.2747 92.4824 75.2514 92.5998 75.2521H127.432C127.679 75.2507 127.917 75.344 128.097 75.513C128.277 75.6819 128.386 75.9136 128.4 76.1601C128.407 76.2787 128.389 76.3974 128.347 76.5087C128.306 76.62 128.241 76.7216 128.159 76.8069C128.076 76.8922 127.977 76.9594 127.867 77.0044C127.757 77.0494 127.639 77.071 127.52 77.0681Z" fill="#FA1239"/>
<path d="M127.792 82.7361H92.9597C92.7155 82.7334 92.4814 82.6382 92.3047 82.4697C92.128 82.3012 92.0219 82.0718 92.0077 81.8281C92.0011 81.7108 92.0187 81.5935 92.0592 81.4833C92.0997 81.373 92.1624 81.2723 92.2433 81.1872C92.3243 81.1022 92.4218 81.0346 92.5299 80.9886C92.6379 80.9427 92.7543 80.9193 92.8717 80.9201H127.708C127.951 80.9237 128.184 81.0193 128.36 81.1878C128.536 81.3562 128.642 81.585 128.656 81.8281C128.662 81.9453 128.645 82.0627 128.604 82.1729C128.564 82.2831 128.501 82.3838 128.42 82.4689C128.339 82.554 128.242 82.6216 128.134 82.6675C128.025 82.7135 127.909 82.7368 127.792 82.7361Z" fill="#FA1239"/>
<path d="M128.068 88.4H93.2318C92.9876 88.3974 92.7535 88.3022 92.5768 88.1336C92.4001 87.9651 92.294 87.7358 92.2798 87.492C92.2732 87.3748 92.2908 87.2574 92.3313 87.1472C92.3718 87.037 92.4345 86.9362 92.5154 86.8512C92.5964 86.7661 92.6939 86.6985 92.802 86.6525C92.91 86.6066 93.0264 86.5833 93.1438 86.584H128C128.244 86.5866 128.478 86.6818 128.655 86.8504C128.831 87.0189 128.938 87.2482 128.952 87.492C128.958 87.611 128.94 87.73 128.899 87.8416C128.857 87.9532 128.792 88.0549 128.709 88.1403C128.626 88.2257 128.526 88.2928 128.416 88.3375C128.305 88.3822 128.187 88.4035 128.068 88.4Z" fill="#FA1239"/>
<path d="M128.34 94.076H93.5078C93.2639 94.0725 93.0303 93.977 92.8538 93.8086C92.6773 93.6403 92.5709 93.4115 92.5558 93.168C92.5492 93.0508 92.5668 92.9334 92.6073 92.8232C92.6478 92.713 92.7105 92.6122 92.7914 92.5272C92.8724 92.4421 92.9699 92.3745 93.078 92.3286C93.186 92.2826 93.3024 92.2593 93.4198 92.26H128.252C128.496 92.2627 128.73 92.3579 128.907 92.5264C129.083 92.6949 129.19 92.9243 129.204 93.168C129.21 93.2853 129.193 93.4026 129.152 93.5128C129.112 93.623 129.049 93.7238 128.968 93.8089C128.887 93.894 128.79 93.9615 128.682 94.0075C128.574 94.0534 128.457 94.0768 128.34 94.076Z" fill="#FA1239"/>
<path d="M114.764 99.744H93.7799C93.5357 99.7414 93.3016 99.6462 93.1249 99.4776C92.9482 99.3091 92.8421 99.0798 92.8279 98.836C92.8213 98.7187 92.8388 98.6014 92.8794 98.4912C92.9199 98.381 92.9826 98.2802 93.0635 98.1951C93.1445 98.1101 93.242 98.0425 93.35 97.9965C93.4581 97.9506 93.5744 97.9273 93.6919 97.928H114.676C114.92 97.9306 115.154 98.0258 115.331 98.1944C115.508 98.3629 115.614 98.5922 115.628 98.836C115.634 98.9532 115.617 99.0706 115.576 99.1808C115.536 99.291 115.473 99.3918 115.392 99.4768C115.311 99.5619 115.214 99.6295 115.106 99.6754C114.998 99.7214 114.881 99.7447 114.764 99.744Z" fill="#FA1239"/>
<path d="M117.184 65.3191C121.306 61.0968 121.055 54.1674 116.624 49.8419C112.193 45.5164 105.26 45.4327 101.138 49.655C97.0162 53.8773 97.2668 60.8067 101.698 65.1322C106.129 69.4577 113.062 69.5414 117.184 65.3191Z" fill="#FA1239"/>
<path d="M118.192 57.48C118.267 58.9665 117.963 60.4477 117.308 61.784C116.597 63.2169 115.497 64.4206 114.134 65.2568C112.77 66.0931 111.199 66.5281 109.6 66.512C107.945 66.4996 106.322 66.0572 104.89 65.2283C103.458 64.3994 102.266 63.2125 101.432 61.784C100.653 60.4774 100.206 58.9995 100.132 57.48C100.062 56.3127 100.234 55.1436 100.636 54.0454C101.038 52.9473 101.661 51.9434 102.467 51.0964C103.273 50.2493 104.245 49.5771 105.322 49.1215C106.399 48.6659 107.558 48.4367 108.728 48.448C111.155 48.4782 113.48 49.4266 115.236 51.1024C116.992 52.7782 118.048 55.057 118.192 57.48Z" fill="white"/>
<path opacity="0.4" d="M117.308 61.784C116.597 63.217 115.497 64.4206 114.134 65.2568C112.771 66.0931 111.199 66.5281 109.6 66.512C107.945 66.4996 106.322 66.0572 104.89 65.2283C103.459 64.3994 102.267 63.2125 101.432 61.784C103.734 60.2044 106.464 59.3669 109.256 59.384C112.115 59.3894 114.912 60.223 117.308 61.784Z" fill="#FA1239"/>
<path opacity="0.4" d="M111.957 57.2631C113.472 55.7107 113.381 53.1638 111.753 51.5743C110.125 49.9849 107.576 49.9548 106.061 51.5071C104.545 53.0594 104.637 55.6064 106.265 57.1959C107.893 58.7853 110.442 58.8154 111.957 57.2631Z" fill="#FA1239"/>
<path d="M142.704 141.496H139.768L139.472 134.688H142.412L142.704 141.496Z" fill="#B55B52"/>
<path opacity="0.2" d="M139.476 134.692L139.624 138.2H142.564L142.412 134.692H139.476Z" fill="black"/>
<path d="M167.716 133.52L164.924 134.432L161.408 128.42L164.204 127.508L167.716 133.52Z" fill="#B55B52"/>
<path opacity="0.2" d="M164.204 127.508L161.408 128.42L163.224 131.52L166.016 130.608L164.204 127.508Z" fill="black"/>
<path d="M152.64 43.168C153.004 43.612 153.312 44.008 153.628 44.444C153.944 44.88 154.244 45.296 154.544 45.728C155.136 46.596 155.704 47.484 156.236 48.4C157.343 50.2584 158.246 52.2312 158.928 54.284L158.996 54.484L159.028 54.588L159.072 54.752L159.152 55.08L159.196 55.38C159.243 55.7392 159.258 56.102 159.24 56.464C159.203 57.0743 159.115 57.6804 158.976 58.276C158.723 59.343 158.387 60.3888 157.972 61.404C157.181 63.3499 156.223 65.2236 155.108 67.004L153.108 66.048C153.708 64.172 154.308 62.252 154.748 60.384C154.977 59.4835 155.151 58.5697 155.268 57.648C155.317 57.25 155.332 56.8485 155.312 56.448C155.306 56.3052 155.287 56.1634 155.256 56.024L155.236 55.952C155.229 55.9391 155.222 55.9257 155.216 55.912L155.184 55.836L155.12 55.68L154.852 55.052L154.552 54.428C154.352 54.028 154.132 53.596 153.912 53.18C153.456 52.356 152.964 51.536 152.452 50.72C151.94 49.904 151.396 49.12 150.852 48.32C150.308 47.52 149.712 46.72 149.172 45.996L152.64 43.168Z" fill="#B55B52"/>
<path d="M153.292 65.5519L152.144 68.0919H155.428C155.428 68.0919 155.952 66.1639 154.76 65.3839L153.292 65.5519Z" fill="#B55B52"/>
<path d="M152.528 70.9479L155.576 70.3599L155.428 68.0919H152.144L152.528 70.9479Z" fill="#B55B52"/>
<path d="M138.088 30.2759C138.088 30.5159 137.964 30.7079 137.808 30.7079C137.652 30.7079 137.528 30.5159 137.528 30.2759C137.528 30.0359 137.656 29.8479 137.808 29.8479C137.96 29.8479 138.088 30.0399 138.088 30.2759Z" fill="#263238"/>
<path d="M138 30.7079C137.718 31.4316 137.337 32.1128 136.868 32.7319C137.03 32.8478 137.215 32.9272 137.41 32.9645C137.606 33.0018 137.807 32.9961 138 32.9479V30.7079Z" fill="#A02724"/>
<path d="M138.928 28.9639C138.899 28.9642 138.871 28.9543 138.848 28.9359C138.709 28.8311 138.547 28.7602 138.375 28.7289C138.204 28.6977 138.027 28.7069 137.86 28.7559C137.827 28.765 137.791 28.7614 137.76 28.7457C137.729 28.73 137.705 28.7034 137.693 28.6711C137.68 28.6387 137.68 28.6029 137.693 28.5705C137.705 28.5381 137.729 28.5115 137.76 28.4959C137.971 28.429 138.194 28.4137 138.412 28.4512C138.63 28.4888 138.836 28.5782 139.012 28.7119C139.042 28.7342 139.061 28.767 139.067 28.8035C139.073 28.84 139.065 28.8774 139.044 28.9079C139.03 28.9254 139.013 28.9395 138.992 28.9492C138.972 28.9589 138.95 28.9639 138.928 28.9639Z" fill="#263238"/>
<path d="M145.74 33.0079C145.316 35.1599 144.896 39.0999 146.4 40.5319C146.4 40.5319 145.812 42.7119 141.82 42.7119C137.42 42.7119 139.72 40.5319 139.72 40.5319C142.12 39.9599 142.056 38.1839 141.636 36.5119L145.74 33.0079Z" fill="#B55B52"/>
<path d="M146.976 41.28C147.292 40.592 147.64 39.8 146.92 39.552C146.12 39.28 141.816 39.004 140.324 39.516C140.128 39.5703 139.944 39.6631 139.784 39.789C139.624 39.9149 139.491 40.0714 139.392 40.2493C139.293 40.4272 139.23 40.6231 139.208 40.8254C139.185 41.0277 139.203 41.2326 139.26 41.428L146.976 41.28Z" fill="#263238"/>
<path d="M164.32 135.132C164.104 135.34 163.86 135.508 163.676 135.48C163.618 135.468 163.565 135.439 163.524 135.396C163.483 135.353 163.457 135.299 163.448 135.24C163.436 135.194 163.434 135.147 163.442 135.101C163.45 135.054 163.469 135.01 163.496 134.972C163.736 134.6 164.696 134.44 164.748 134.436C164.761 134.434 164.774 134.436 164.786 134.441C164.798 134.446 164.808 134.454 164.816 134.464C164.824 134.475 164.828 134.488 164.828 134.502C164.828 134.515 164.824 134.529 164.816 134.54C164.672 134.754 164.506 134.952 164.32 135.132ZM163.668 134.98C163.647 134.999 163.628 135.021 163.612 135.044C163.596 135.067 163.585 135.093 163.58 135.121C163.575 135.148 163.577 135.177 163.584 135.204C163.616 135.328 163.676 135.34 163.696 135.34C163.9 135.372 164.336 134.94 164.604 134.604C164.268 134.659 163.949 134.787 163.668 134.98Z" fill="#FA1239"/>
<path d="M164.8 134.552L164.768 134.572C164.436 134.66 163.568 134.604 163.384 134.324C163.357 134.279 163.345 134.227 163.351 134.174C163.356 134.122 163.379 134.074 163.416 134.036C163.45 133.995 163.493 133.962 163.54 133.938C163.587 133.914 163.639 133.9 163.692 133.896C164.132 133.864 164.768 134.428 164.796 134.452C164.806 134.46 164.813 134.471 164.816 134.483C164.82 134.495 164.82 134.508 164.816 134.52C164.815 134.532 164.809 134.544 164.8 134.552ZM163.548 134.104L163.524 134.128C163.468 134.196 163.492 134.232 163.5 134.248C163.608 134.412 164.216 134.504 164.592 134.46C164.344 134.235 164.035 134.088 163.704 134.036C163.648 134.04 163.596 134.064 163.556 134.104H163.548Z" fill="#FA1239"/>
<path d="M138.584 141.644C138.208 141.644 137.844 141.592 137.724 141.424C137.692 141.38 137.674 141.327 137.674 141.272C137.674 141.217 137.692 141.164 137.724 141.12C137.748 141.079 137.779 141.044 137.817 141.015C137.855 140.987 137.898 140.967 137.944 140.956C138.432 140.824 139.46 141.408 139.504 141.436C139.517 141.443 139.527 141.453 139.532 141.466C139.538 141.479 139.54 141.494 139.536 141.508C139.534 141.521 139.528 141.534 139.519 141.544C139.509 141.554 139.497 141.561 139.484 141.564C139.187 141.616 138.886 141.643 138.584 141.644ZM138.12 141.076C138.075 141.07 138.029 141.07 137.984 141.076C137.956 141.081 137.929 141.093 137.906 141.109C137.882 141.126 137.863 141.147 137.848 141.172C137.8 141.26 137.816 141.304 137.848 141.328C137.984 141.516 138.728 141.52 139.272 141.444C138.916 141.247 138.524 141.122 138.12 141.076Z" fill="#FA1239"/>
<path d="M139.472 141.564H139.444C139.092 141.404 138.388 140.764 138.44 140.436C138.44 140.356 138.508 140.26 138.7 140.24C138.771 140.232 138.844 140.238 138.912 140.259C138.981 140.28 139.045 140.314 139.1 140.36C139.472 140.668 139.552 141.46 139.556 141.492C139.556 141.504 139.553 141.516 139.547 141.527C139.542 141.539 139.534 141.548 139.524 141.556C139.516 141.561 139.508 141.564 139.499 141.565C139.49 141.567 139.481 141.566 139.472 141.564ZM138.756 140.364H138.716C138.588 140.364 138.58 140.424 138.58 140.44C138.548 140.64 139.024 141.14 139.38 141.356C139.345 141.02 139.205 140.703 138.98 140.452C138.916 140.401 138.837 140.373 138.756 140.372V140.364Z" fill="#FA1239"/>
<path d="M164.68 134.108L167.08 131.824C167.122 131.783 167.177 131.757 167.235 131.752C167.293 131.747 167.352 131.763 167.4 131.796L169.624 133.284C169.678 133.32 169.723 133.368 169.755 133.424C169.788 133.481 169.807 133.543 169.812 133.608C169.816 133.673 169.806 133.738 169.782 133.798C169.758 133.858 169.72 133.912 169.672 133.956C168.828 134.756 168.376 135.08 167.328 136.08C166.68 136.7 164.752 138.8 163.86 139.656C162.968 140.512 162.008 139.736 162.296 139.308C163.592 137.384 164.4 135.54 164.472 134.568C164.485 134.395 164.559 134.232 164.68 134.108Z" fill="#263238"/>
<path d="M139.784 141.156H142.984C143.042 141.156 143.098 141.175 143.144 141.212C143.189 141.248 143.22 141.299 143.232 141.356L143.812 143.968C143.827 144.031 143.827 144.096 143.812 144.159C143.798 144.222 143.769 144.28 143.729 144.33C143.688 144.38 143.637 144.421 143.579 144.448C143.52 144.475 143.456 144.489 143.392 144.488C142.232 144.488 140.56 144.404 139.104 144.404C137.404 144.404 135.936 144.496 133.94 144.496C132.74 144.496 132.4 143.276 132.904 143.164C135.2 142.664 137.08 142.608 139.064 141.384C139.278 141.242 139.527 141.163 139.784 141.156Z" fill="#263238"/>
<path d="M135.6 47.2C134.432 48.92 133.228 50.528 131.932 52.116C130.631 53.7234 129.241 55.2564 127.768 56.708L127.2 57.26L127.056 57.396L126.952 57.492L126.8 57.6C126.612 57.7518 126.409 57.8858 126.196 58C125.521 58.3562 124.778 58.5648 124.016 58.612C122.854 58.6808 121.687 58.5838 120.552 58.324C118.495 57.8703 116.501 57.1692 114.612 56.236L115.348 54.156C117.221 54.5304 119.115 54.7896 121.02 54.932C121.857 54.9981 122.699 54.9632 123.528 54.828C123.766 54.7924 123.993 54.7035 124.192 54.568C124.212 54.568 124.192 54.544 124.192 54.544L124.224 54.512L124.34 54.38L124.816 53.86C126.064 52.436 127.276 50.916 128.452 49.364C129.628 47.812 130.808 46.22 131.932 44.668L135.6 47.2Z" fill="#B55B52"/>
<path d="M151.664 41.2C154.416 41.832 157.576 49.34 157.576 49.34L152.044 53.132C150.67 51.1576 149.452 49.0794 148.4 46.916C146.76 43.48 148.848 40.552 151.664 41.2Z" fill="#FA1239"/>
<path opacity="0.3" d="M149.688 45.9999L152.304 52.9639L152.044 53.1439C152.044 53.1439 150.912 51.5439 149.688 49.4119V45.9999Z" fill="black"/>
<path d="M135.2 41.348C135.2 41.348 132.072 44.88 135.028 66.748H150.744C150.852 64.348 149.336 52.564 151.664 41.196C149.926 40.8616 148.167 40.6398 146.4 40.532C144.175 40.4039 141.945 40.4039 139.72 40.532C138.194 40.6857 136.683 40.9585 135.2 41.348Z" fill="#FA1239"/>
<path opacity="0.3" d="M136.944 47.6719C136.535 50.1534 135.463 52.4782 133.84 54.3999C133.776 52.9919 133.752 51.7279 133.756 50.5959L136.944 47.6719Z" fill="black"/>
<path d="M138.3 43.7319C138.7 46.5119 133.204 53.6199 133.204 53.6199L127.696 49.8279C127.696 49.8279 129.224 45.9119 131.796 43.3439C134.736 40.3999 137.88 40.7039 138.3 43.7319Z" fill="#FA1239"/>
<path d="M115.728 54.3999L113.572 52.1719L111.272 55.1359C111.272 55.1359 113.024 56.8279 115.108 56.3359L115.728 54.3999Z" fill="#B55B52"/>
<path d="M110.612 50.9319L109.624 54.0439L111.272 55.1239L113.572 52.1599L110.612 50.9319Z" fill="#B55B52"/>
<path d="M146 29.776C145.82 32.684 145.864 34.4 144.4 35.892C142.188 38.14 138.596 36.808 137.904 33.892C137.276 31.276 137.676 26.956 140.524 25.8C141.151 25.5422 141.834 25.4492 142.508 25.5297C143.181 25.6103 143.823 25.8618 144.371 26.2602C144.92 26.6587 145.358 27.1909 145.643 27.8063C145.928 28.4216 146.051 29.0997 146 29.776Z" fill="#B55B52"/>
<path d="M148.532 23.6999C149.428 24.5239 149.048 25.4439 148.58 25.6159C150.032 25.9159 150.244 27.0719 149.48 29.5119C148.752 31.8479 146.988 34.9799 144.784 35.1719C141.472 35.4599 140.504 32.0079 140.48 28.5839C138.608 28.6999 139.416 27.0399 137.116 27.4239C135.116 27.7559 135.868 26.1959 134.168 25.5159C132.196 24.7159 132.592 21.6959 134.432 22.5639C134.432 22.5639 133.58 23.1239 134.572 23.6519C135.564 24.1799 135.468 22.9599 137.432 22.8119C139.396 22.6639 139.624 24.3439 141.92 23.3319C144.8 22.0599 146.692 21.9999 148.532 23.6999Z" fill="#263238"/>
<path d="M147.428 25.5999C147.559 25.3904 147.753 25.2286 147.983 25.1386C148.213 25.0485 148.466 25.0349 148.704 25.0999C149.604 25.2919 149.676 25.6879 150.24 25.6359C150.804 25.5839 150.6 26.1839 150.6 26.1839C150.6 26.1839 150.448 25.7319 149.768 25.9839C149.088 26.2359 148.644 25.6199 148.352 25.8959C148.06 26.1719 147.428 25.5999 147.428 25.5999Z" fill="#263238"/>
<path d="M142.048 30.5679C141.92 31.2811 141.558 31.9313 141.02 32.4159C140.308 33.0479 139.692 32.54 139.668 31.676C139.668 30.896 140 29.624 140.82 29.32C141.64 29.016 142.196 29.7039 142.048 30.5679Z" fill="#B55B52"/>
<path d="M140.6 66.7479C140.6 66.7479 143.936 89.1999 145.768 97.5999C147.768 106.8 161.708 131.28 161.708 131.28L166.828 129.616C166.828 129.616 155.728 107.56 154.584 98.4359C153.34 88.5359 150.744 66.7319 150.744 66.7319L140.6 66.7479Z" fill="#263238"/>
<path d="M160.276 129.68C160.256 129.68 161.448 131.472 161.448 131.472L167.2 129.6L166.524 127.88L160.276 129.68Z" fill="#FA1239"/>
<path opacity="0.3" d="M142.708 74.748C146.564 75.504 146.156 89.884 145.692 97.28C144.58 92.052 142.952 81.992 141.84 74.852C142.109 74.7194 142.415 74.6827 142.708 74.748Z" fill="black"/>
<path d="M135.028 66.7479C135.028 66.7479 134.628 88.7199 134.94 97.6799C135.272 107 138.54 137.52 138.54 137.52H143.52C143.52 137.52 143.7 107.544 143.92 98.3919C144.16 88.3919 145.364 66.7479 145.364 66.7479H135.028Z" fill="#263238"/>
<path d="M137.572 135.536C137.548 135.536 137.852 137.604 137.852 137.604H143.908L144.072 135.76L137.572 135.536Z" fill="#FA1239"/>
</svg>
