<svg width="232" height="58" viewBox="0 0 232 58" fill="none" xmlns="http://www.w3.org/2000/svg">
<path d="M18.8036 41.582C19.0351 42.244 19.3164 42.9067 19.6489 43.5632C19.9805 44.2202 20.3588 44.8739 20.7902 45.5145C20.8983 45.6746 21.0105 45.8329 21.1266 45.99C21.234 46.1415 21.3805 46.3244 21.5048 46.4849L21.6577 46.6788L21.696 46.7273L21.7152 46.7516L21.7628 46.8058L21.8572 46.9163C21.9846 47.0631 22.1123 47.2104 22.2405 47.3581C23.2875 48.5215 24.5077 49.5887 25.8623 50.5078C26.541 50.964 27.2512 51.3875 27.9877 51.771C28.1486 51.853 28.3113 51.9325 28.4745 52.011C29.1356 51.8234 29.7866 51.6225 30.4236 51.4052L31.3476 51.0929L31.824 50.9162C31.9902 50.8548 32.1341 50.8013 32.2494 50.7537L32.4119 50.6887C32.6682 50.5866 32.9104 50.4899 33.1539 50.3842L33.1836 50.3717C33.4782 50.25 33.7814 50.1136 34.0651 49.9842C35.2905 49.426 36.4462 48.8122 37.5008 48.1591C37.7542 48.0034 38.0054 47.8416 38.2547 47.6746C36.2492 47.5114 34.3146 47.1204 32.5329 46.5169C30.2135 45.7355 28.1517 44.5916 26.5004 43.1376C26.3987 43.0451 26.2974 42.9529 26.1964 42.861L26.1198 42.7927C26.1242 42.7988 26.0829 42.7549 26.1248 42.8021L26.1027 42.7805L26.0587 42.737L25.8828 42.5638C25.7953 42.4741 25.7245 42.4128 25.6294 42.3093C25.538 42.2155 25.4506 42.1182 25.3623 42.0217C25.0086 41.6358 24.6821 41.2266 24.3826 40.803C23.7896 39.9525 23.2757 39.057 22.8865 38.1389C22.0796 36.3092 21.6862 34.4407 21.5831 32.7588C21.4733 31.0712 21.6737 29.5675 21.9833 28.3483C22.294 27.1265 22.7183 26.1902 23.041 25.5634C23.2025 25.2492 23.3403 25.0123 23.4329 24.8512C23.5282 24.6911 23.5773 24.6085 23.5773 24.6085L24.4533 23.2562L23.1138 24.1624C23.1138 24.1624 23.0308 24.2212 22.8702 24.335C22.7094 24.4501 22.4777 24.6294 22.1854 24.8815C21.6041 25.3852 20.7918 26.2064 19.9944 27.4605C19.1979 28.7088 18.45 30.4068 18.0531 32.4864C17.6573 34.5608 17.6273 37.0125 18.2243 39.6152C18.3748 40.2648 18.5693 40.9212 18.8036 41.582Z" fill="#FA1239"/>
<path d="M67.8086 19.5377C67.5846 18.4642 67.318 17.4614 67.0316 16.5331C66.7564 15.6454 66.4642 14.8276 66.1674 14.078L71.7059 15.2467L59.712 0L61.1741 20.4354L64.7137 14.5628C64.9065 15.3052 65.0877 16.1078 65.2399 16.9708C65.4012 17.875 65.531 18.8422 65.6182 19.8619C65.7078 20.8812 65.7541 21.9539 65.7327 23.0675C65.6978 25.2938 65.3844 27.6852 64.7084 30.0893C64.0261 32.4906 62.9587 34.8967 61.4741 37.1202L61.1919 37.5354L60.9012 37.9467L60.6002 38.3578C60.4869 38.518 60.3951 38.6264 60.2978 38.7502L60.1534 38.933L59.9954 39.1223C59.8874 39.2481 59.7856 39.3786 59.6728 39.5011L59.3397 39.8733L58.9942 40.2365C58.0563 41.1927 57.0211 42.0808 55.8887 42.8683C54.9122 43.5524 53.8714 44.1701 52.7827 44.7169C51.86 46.2371 50.8403 47.6231 49.7465 48.8369L49.5773 49.0218C49.3381 49.2836 49.0907 49.5543 48.7982 49.8414L48.3683 50.2713L47.6075 50.9715L46.8462 51.6239L46.8168 51.6471C46.7158 51.7264 46.6156 51.8068 46.5153 51.8874C46.29 52.0684 46.0569 52.2557 45.804 52.4402C45.2494 52.8558 44.6786 53.2522 44.0957 53.6298C44.1254 53.6232 44.1539 53.6175 44.184 53.6105L44.5188 53.5363C44.625 53.5118 44.7089 53.4879 44.805 53.4634L45.416 53.3031C46.2133 53.084 47.0056 52.8365 47.7922 52.5697C48.5793 52.304 49.3619 52.0204 50.134 51.7049C53.2177 50.449 56.2116 48.8565 58.8222 46.7619C60.1298 45.7235 61.3331 44.5591 62.3991 43.301L62.7924 42.8249L63.1706 42.3386C63.2977 42.1781 63.414 42.0088 63.5354 41.8447L63.7154 41.5948L63.8961 41.3302C64.0146 41.1553 64.1436 40.9695 64.2323 40.8229C64.337 40.6559 64.4415 40.4891 64.5458 40.3227C64.7478 39.9823 64.9433 39.6403 65.1297 39.2951C65.8706 37.9117 66.4825 36.4939 66.9668 35.074C67.4492 33.6529 67.8 32.2296 68.0422 30.8352C68.2867 29.4408 68.4114 28.0729 68.4472 26.755C68.4845 25.4369 68.4348 24.1681 68.3191 22.9619C68.2064 21.7559 68.0266 20.6119 67.8086 19.5377Z" fill="#FA1239"/>
<path d="M54.2212 33.9399C54.2686 33.602 54.2115 33.2649 54.2046 32.9285C54.1857 32.7105 54.1466 32.4929 54.1279 32.2756C54.1089 32.0582 54.0884 31.841 54.0651 31.6245C54.0372 31.4091 53.9959 31.1969 53.9611 30.9834C53.924 30.7703 53.887 30.5576 53.85 30.3453C53.8159 30.132 53.7507 29.9278 53.7018 29.7193C53.5922 29.306 53.5006 28.8875 53.3556 28.4896C53.0946 27.6828 52.7771 26.905 52.4163 26.1578C52.2244 25.79 52.0399 25.4206 51.8397 25.0628C51.6222 24.715 51.4058 24.3691 51.1906 24.0249C50.2823 22.679 49.2144 21.488 48.0497 20.4721C46.8854 19.4566 45.625 18.6088 44.3087 17.9796L44.0655 17.8582L44.0048 17.8282L43.8763 17.7626L43.8499 17.7522L43.7444 17.7106C43.6039 17.6553 43.4638 17.6001 43.3244 17.5452C43.1851 17.4904 43.0463 17.4358 42.9083 17.3814L42.8026 17.3403L42.6686 17.2941L42.4014 17.2032C42.2239 17.1442 42.0472 17.0855 41.8714 17.0271C41.6977 16.9731 41.5169 16.9054 41.3516 16.8677C41.0228 16.7923 40.6972 16.7177 40.3751 16.6438C39.0832 16.3917 37.8377 16.2649 36.6642 16.3014C36.5182 16.3029 36.3729 16.3041 36.2286 16.3054C36.0847 16.3168 35.9417 16.3279 35.7996 16.339C35.5175 16.363 35.2393 16.3866 34.9649 16.4099C34.42 16.4913 33.8936 16.5558 33.3934 16.6758C31.3853 17.1089 29.7639 17.842 28.5416 18.5749C28.3899 18.6681 28.2422 18.7588 28.0987 18.847C28.0277 18.8912 27.9577 18.9348 27.8887 18.9776C27.8225 19.0259 27.7572 19.0737 27.693 19.1205C27.4401 19.3077 27.2031 19.4832 26.9826 19.6465C26.5608 19.9987 26.218 20.3085 25.9492 20.5648C25.4329 21.1105 25.1801 21.4052 25.1801 21.4052L24.3858 22.4142L25.5693 21.9174C25.5693 21.9174 25.932 21.7812 26.5694 21.5186C26.7304 21.4558 26.9198 21.4027 27.1186 21.3331C27.3202 21.2681 27.5315 21.1855 27.7702 21.12C28.0071 21.0564 28.2616 20.988 28.5333 20.915C28.6003 20.8971 28.6684 20.879 28.7375 20.8605C28.8083 20.8464 28.8801 20.8319 28.953 20.8173C29.0973 20.7878 29.2457 20.7574 29.3982 20.7262C30.6145 20.4885 32.096 20.3418 33.7377 20.4298C33.942 20.4309 34.1506 20.4615 34.3602 20.4835C34.5697 20.5046 34.7813 20.521 34.9946 20.5454C35.2065 20.5807 35.4215 20.6165 35.6394 20.6529C35.7473 20.6708 35.8561 20.6889 35.9655 20.707C36.0736 20.732 36.1825 20.7571 36.292 20.7824C36.5104 20.8325 36.731 20.8776 36.9518 20.9307C37.1691 20.9958 37.3891 21.0617 37.6116 21.1284C37.8346 21.1875 38.0519 21.2725 38.2719 21.3518C38.3817 21.3913 38.492 21.4309 38.6029 21.4708L38.7691 21.53L38.931 21.6033C39.1461 21.6992 39.3634 21.7962 39.5829 21.894C39.7849 21.9959 39.9617 22.0981 40.1541 22.1952L40.2961 22.2679L40.3674 22.3039L40.4612 22.3593C40.5886 22.4354 40.7167 22.5118 40.8452 22.5886C40.9738 22.6652 41.1029 22.7424 41.2326 22.8199L41.33 22.8781L41.3544 22.8927C41.1644 22.7961 41.3124 22.8739 41.2747 22.8558L41.3115 22.8835L41.4595 22.9938C42.2712 23.5399 43.0277 24.2266 43.7281 24.9935C44.4281 25.7622 45.0648 26.6266 45.6193 27.5649C46.1702 28.5058 46.6329 29.5218 46.9884 30.5853C47.0944 30.8467 47.1563 31.1204 47.238 31.3906C47.325 31.6603 47.3806 31.936 47.4436 32.2123C47.4737 32.3504 47.5115 32.4884 47.5372 32.6276C47.5566 32.7676 47.579 32.9073 47.6029 33.0474L47.6756 33.4692L47.7105 33.8344L47.7595 34.2022C47.7612 34.2193 47.765 34.2294 47.7652 34.2521L47.7662 34.3203L47.7681 34.457L47.7719 34.7305L47.7823 35.2786L47.7838 35.3473L47.7847 35.3816C47.7968 35.1468 47.7874 35.3322 47.7898 35.287L47.786 35.3968L47.7788 35.6168C47.7717 36.2057 47.6916 36.8002 47.6055 37.4017C47.3994 38.6008 47.0378 39.8153 46.5116 40.9901C46.2421 41.5743 45.9558 42.1598 45.6074 42.7155C45.4477 43.002 45.2544 43.269 45.0754 43.5455C44.9838 43.6827 44.8824 43.8132 44.7866 43.9478C44.6879 44.0803 44.5966 44.2187 44.4906 44.3462C44.2841 44.6035 44.0762 44.8746 43.8751 45.0994L43.7235 45.2768L43.6479 45.3658L43.6097 45.4107L43.5613 45.4618L43.1741 45.8711L43.0774 45.9733L43.029 46.0244L43.0049 46.05C43.0689 45.9884 43.0097 46.0456 43.0182 46.0375L42.8384 46.2143L42.4793 46.5689C42.2278 46.7939 41.9872 47.0305 41.727 47.2476C40.7008 48.1303 39.5982 48.9428 38.43 49.6612C37.2643 50.3829 36.0449 51.0232 34.7973 51.5916C34.4855 51.7338 34.1733 51.874 33.8571 52.0046C33.5403 52.1422 33.232 52.263 32.9234 52.3865C32.7743 52.4481 32.6062 52.5104 32.4375 52.5725C32.2703 52.6346 32.1034 52.6965 31.9369 52.7584C31.6209 52.8651 31.3063 52.9716 30.993 53.0775C28.4383 53.9486 25.871 54.5349 23.4004 54.9089C20.9284 55.2811 18.5504 55.4203 16.3514 55.4016C16.0762 55.3974 15.804 55.3932 15.5347 55.3891C15.3998 55.3871 15.2658 55.3851 15.1324 55.3831C14.9994 55.3762 14.8672 55.3692 14.7356 55.3623C14.2083 55.3342 13.6932 55.3069 13.191 55.2801C12.1912 55.1799 11.2347 55.1083 10.3464 54.9656C8.56 54.7302 7.02218 54.3843 5.7541 54.0947C4.50217 53.7734 3.51951 53.5017 2.84536 53.2738C2.17251 53.0608 1.81371 52.9471 1.81371 52.9471L0 52.3483L1.5813 53.547C1.5813 53.547 1.92302 53.7047 2.56383 54.0005C3.19322 54.3082 4.16762 54.702 5.41815 55.1865C5.73266 55.2975 6.06414 55.4143 6.41164 55.5369C6.76008 55.6583 7.12254 55.795 7.50997 55.904C7.89622 56.0196 8.29826 56.1398 8.71526 56.2646C8.81974 56.2957 8.92517 56.327 9.03154 56.3587C9.13897 56.3859 9.24734 56.4132 9.35654 56.4409C9.57541 56.4962 9.79792 56.5525 10.0241 56.6096C10.9264 56.856 11.9033 57.0384 12.9331 57.2546C13.452 57.3392 13.9843 57.4259 14.5291 57.5147C14.6656 57.5365 14.8031 57.5584 14.9411 57.5803C15.0799 57.5962 15.2195 57.6123 15.3598 57.6284C15.6408 57.6606 15.925 57.6931 16.2121 57.7259C18.5113 57.9728 21.031 58.0754 23.6995 57.9395C26.3676 57.8077 29.1805 57.4158 32.0416 56.7306C32.2203 56.6869 32.3993 56.6432 32.5787 56.5993L32.8482 56.5333L32.9832 56.5002L33.0507 56.4836C33.0704 56.478 33.0544 56.4841 33.1035 56.4691L33.1356 56.4601C33.3067 56.4125 33.4782 56.3649 33.6501 56.3172C33.8208 56.2703 33.9924 56.2229 34.1802 56.1643C34.5473 56.0534 34.9185 55.9423 35.2746 55.8225C35.6357 55.7077 35.9955 55.5818 36.356 55.4532C37.8003 54.9441 39.235 54.3175 40.6471 53.5884C42.0606 52.8624 43.4396 52.0045 44.7525 51.0196C45.0841 50.7785 45.3999 50.5124 45.7244 50.2576L46.1961 49.8539L46.4319 49.6513L46.6783 49.4244L47.0928 49.0428L47.1447 48.9951L47.2029 48.9373L47.3196 48.8207L47.5528 48.5867C47.8745 48.2716 48.147 47.9648 48.4325 47.6543C49.5588 46.4045 50.5499 45.022 51.4226 43.5514C51.8463 42.8083 52.2442 42.0454 52.5825 41.2495C52.938 40.4618 53.2187 39.6364 53.4756 38.8028C53.7065 37.9605 53.9092 37.1057 54.0254 36.2328L54.0721 35.9061L54.0955 35.7427L54.1168 35.4772L54.1625 34.9308L54.1859 34.6581L54.2015 34.5219L54.2169 34.4538C54.2188 34.4299 54.2409 34.392 54.2385 34.3629C54.2334 34.2204 54.2274 34.0824 54.2212 33.9399Z" fill="#FA1239"/>
<path d="M100.877 28.3054C99.7699 28.8587 97.557 29.4118 94.7215 29.4118C88.1514 29.4118 83.2064 25.2623 83.2064 17.6203C83.2064 10.324 88.1514 5.37903 95.3785 5.37903C98.2831 5.37903 100.116 6.00136 100.911 6.41625L100.185 8.87142C99.0439 8.31808 97.4185 7.90296 95.4823 7.90296C90.0186 7.90296 86.3878 11.3956 86.3878 17.516C86.3878 23.2215 89.6727 26.887 95.3439 26.887C97.1767 26.887 99.0439 26.5067 100.254 25.9187L100.877 28.3054Z" fill="black"/>
<path d="M123.837 17.1708C123.837 25.1933 118.962 29.4464 113.014 29.4464C106.859 29.4464 102.536 24.6745 102.536 17.6205C102.536 10.2204 107.135 5.37924 113.36 5.37924C119.722 5.37924 123.837 10.255 123.837 17.1708ZM105.752 17.5513C105.752 22.5306 108.449 26.9915 113.187 26.9915C117.959 26.9915 120.656 22.5999 120.656 17.3092C120.656 12.6755 118.235 7.83442 113.221 7.83442C108.242 7.83442 105.752 12.4335 105.752 17.5513Z" fill="black"/>
<path d="M147.386 18.8308C147.213 15.5805 147.006 11.673 147.04 8.76829H146.937C146.141 11.5001 145.173 14.4048 143.997 17.6208L139.883 28.9282H137.6L133.831 17.8282C132.725 14.543 131.791 11.5347 131.134 8.76851H131.065C130.996 11.6732 130.823 15.5807 130.615 19.0733L129.993 29.0666H127.123L128.748 5.75999H132.587L136.563 17.033C137.531 19.9029 138.327 22.4619 138.915 24.8827H139.018C139.606 22.5311 140.436 19.9723 141.474 17.033L145.623 5.75999H149.461L150.914 29.0666H147.974L147.386 18.8308Z" fill="black"/>
<path d="M155.547 6.0362C156.999 5.79438 158.901 5.5867 161.321 5.5867C164.295 5.5867 166.474 6.27825 167.857 7.52314C169.137 8.62959 169.897 10.3242 169.897 12.3989C169.897 14.5084 169.275 16.168 168.099 17.3785C166.508 19.0729 163.915 19.9373 160.976 19.9373C160.076 19.9373 159.247 19.9026 158.555 19.7296V29.0662H155.547L155.547 6.0362ZM158.555 17.2744C159.212 17.4475 160.042 17.5164 161.045 17.5164C164.676 17.5164 166.889 15.7531 166.889 12.5371C166.889 9.4596 164.711 7.97242 161.391 7.97242C160.077 7.97242 159.074 8.07601 158.555 8.21447V17.2744Z" fill="black"/>
<path d="M174.808 21.7355L172.387 29.0664H169.275L177.193 5.75975H180.824L188.778 29.0664H185.562L183.072 21.7355H174.808ZM182.45 19.3839L180.168 12.6753C179.649 11.154 179.303 9.77063 178.957 8.4219H178.888C178.542 9.80525 178.162 11.223 177.712 12.6407L175.43 19.3837H182.45V19.3839Z" fill="black"/>
<path d="M192.202 29.0662V5.75951H195.487L202.956 17.5513C204.685 20.2831 206.033 22.7383 207.14 25.1243L207.209 25.0897C206.933 21.9775 206.863 19.1418 206.863 15.5112V5.75975H209.699V29.0664H206.656L199.256 17.2402C197.631 14.6468 196.074 11.984 194.899 9.45982L194.795 9.49419C194.968 12.4335 195.037 15.2346 195.037 19.1072V29.0662H192.202Z" fill="black"/>
<path d="M219.9 29.0662V19.1765L212.535 5.75951H215.958L219.243 12.1914C220.143 13.9548 220.834 15.3728 221.56 16.9979H221.629C222.287 15.4764 223.082 13.9548 223.981 12.1914L227.335 5.75951H230.758L222.944 19.1418V29.0662H219.9Z" fill="black"/>
<path d="M82.7903 48.7113C82.8375 47.9082 82.8848 46.9162 82.8848 46.066V31.9407H83.995V39.4758H84.0422C84.7981 38.0113 86.1915 37.1137 88.1993 37.1137C91.0574 37.1137 93.0416 39.4992 93.0416 42.9244C93.0416 46.9636 90.4669 48.9712 87.9869 48.9712C86.1681 48.9712 84.8217 48.2389 83.9241 46.6563H83.8768L83.806 48.7113H82.7903ZM83.995 44.3417C83.995 44.6015 84.0422 44.885 84.0894 45.1684C84.5855 46.8928 86.05 48.0266 87.8215 48.0266C90.4199 48.0266 91.908 45.9007 91.908 42.9481C91.908 40.35 90.4907 38.0349 87.916 38.0349C86.2626 38.0349 84.68 39.1923 84.1367 41.082C84.0658 41.3654 83.995 41.6723 83.995 42.0739V44.3417Z" fill="black"/>
<path d="M104.639 45.9479C104.639 46.9398 104.686 47.8374 104.734 48.7113H103.694L103.624 46.7036H103.576C103.009 47.7429 101.71 48.9712 99.6788 48.9712C98.238 48.9712 95.8286 48.2625 95.8286 43.9635V37.3735H96.9388V43.7509C96.9388 46.2075 97.7181 47.9791 99.9623 47.9791C101.616 47.9791 102.82 46.8217 103.293 45.6879C103.411 45.3335 103.529 44.8847 103.529 44.4359V37.3735H104.639V45.9479Z" fill="black"/>
<path d="M107.993 47.2232C108.607 47.6011 109.529 48.0027 110.544 48.0027C112.339 48.0027 113.19 47.0342 113.19 45.8534C113.19 44.6018 112.434 43.9401 110.804 43.2787C108.938 42.5701 107.922 41.5544 107.922 40.1846C107.922 38.5548 109.198 37.1139 111.418 37.1139C112.457 37.1139 113.331 37.421 113.922 37.8225L113.473 38.7435C113.095 38.4601 112.363 38.0585 111.229 38.0585C109.788 38.0585 109.032 38.9797 109.032 40.019C109.032 41.2001 109.835 41.7195 111.371 42.3575C113.213 43.0659 114.3 43.9874 114.3 45.7115C114.3 47.6484 112.788 48.9475 110.473 48.9475C109.363 48.9475 108.347 48.6405 107.591 48.168L107.993 47.2232Z" fill="black"/>
<path d="M118.74 34.1377C118.74 34.6573 118.386 35.1061 117.796 35.1061C117.276 35.1061 116.922 34.6573 116.922 34.1377C116.922 33.6178 117.323 33.1456 117.843 33.1456C118.386 33.1456 118.74 33.5944 118.74 34.1377ZM117.276 48.7113V37.3735H118.386V48.7113H117.276Z" fill="black"/>
<path d="M122.213 40.0899C122.213 39.0506 122.166 38.2713 122.118 37.3737H123.158L123.252 39.4285H123.299C123.914 38.153 125.331 37.1139 127.197 37.1139C128.283 37.1139 131.142 37.6572 131.142 41.9087V48.7116H130.031V42.0032C130.031 39.9482 129.228 38.0821 126.89 38.0821C125.284 38.0821 123.937 39.2159 123.489 40.6804C123.394 40.9639 123.323 41.3416 123.323 41.6961V48.7113H122.213V40.0899H122.213Z" fill="black"/>
<path d="M135.039 42.9244C135.039 46.5621 137.023 47.9791 139.362 47.9791C141.015 47.9791 141.865 47.6484 142.503 47.3413L142.787 48.2389C142.361 48.4751 141.204 48.9473 139.22 48.9473C135.96 48.9473 133.929 46.5852 133.929 43.2549C133.929 39.4755 136.102 37.1134 139.031 37.1134C142.739 37.1134 143.448 40.6091 143.448 42.239C143.448 42.546 143.448 42.735 143.401 42.9242H135.039V42.9244ZM142.267 42.0268C142.29 40.444 141.629 38.0349 138.889 38.0349C136.385 38.0349 135.299 40.2789 135.11 42.0268H142.267Z" fill="black"/>
<path d="M145.857 47.2232C146.471 47.6011 147.392 48.0027 148.408 48.0027C150.203 48.0027 151.054 47.0342 151.054 45.8534C151.054 44.6018 150.298 43.9401 148.668 43.2787C146.802 42.5701 145.786 41.5544 145.786 40.1846C145.786 38.5548 147.062 37.1139 149.282 37.1139C150.321 37.1139 151.195 37.421 151.786 37.8225L151.337 38.7435C150.959 38.4601 150.227 38.0585 149.093 38.0585C147.652 38.0585 146.896 38.9797 146.896 40.019C146.896 41.2001 147.699 41.7195 149.235 42.3575C151.077 43.0659 152.164 43.9874 152.164 45.7115C152.164 47.6484 150.652 48.9475 148.337 48.9475C147.227 48.9475 146.211 48.6405 145.455 48.168L145.857 47.2232Z" fill="black"/>
<path d="M154.667 47.2232C155.281 47.6011 156.202 48.0027 157.218 48.0027C159.013 48.0027 159.864 47.0342 159.864 45.8534C159.864 44.6018 159.108 43.9401 157.478 43.2787C155.612 42.5701 154.596 41.5544 154.596 40.1846C154.596 38.5548 155.872 37.1139 158.092 37.1139C159.131 37.1139 160.005 37.421 160.596 37.8225L160.147 38.7435C159.769 38.4601 159.037 38.0585 157.903 38.0585C156.462 38.0585 155.706 38.9797 155.706 40.019C155.706 41.2001 156.51 41.7195 158.045 42.3575C159.887 43.0659 160.974 43.9874 160.974 45.7115C160.974 47.6484 159.462 48.9475 157.147 48.9475C156.037 48.9475 155.021 48.6405 154.266 48.168L154.667 47.2232Z" fill="black"/>
<path d="M170.682 34.0904V37.3737H173.918V38.2713H170.682V45.6409C170.682 47.0817 171.131 48.0029 172.335 48.0029C172.926 48.0029 173.351 47.9087 173.634 47.814L173.776 48.688C173.398 48.8294 172.878 48.9475 172.193 48.9475C171.367 48.9475 170.682 48.6879 170.256 48.1444C169.737 47.5539 169.548 46.6091 169.548 45.4516V38.2711H167.635V37.3735H169.548V34.4445L170.682 34.0904Z" fill="black"/>
<path d="M182.61 48.7113L182.445 47.0815H182.374C181.831 47.9552 180.579 48.9712 178.76 48.9712C176.492 48.9712 175.429 47.3649 175.429 45.8532C175.429 43.2313 177.744 41.6489 182.35 41.6961V41.4127C182.35 40.2786 182.138 38.0349 179.445 38.0585C178.453 38.0585 177.414 38.3181 176.611 38.9088L176.256 38.0821C177.272 37.3971 178.547 37.1137 179.563 37.1137C182.846 37.1137 183.461 39.5702 183.461 41.6014V46.0185C183.461 46.9161 183.508 47.8371 183.626 48.7113H182.61ZM182.35 42.641C179.87 42.5699 176.61 42.948 176.61 45.6644C176.61 47.2943 177.697 48.0265 178.878 48.0265C180.768 48.0265 181.831 46.8691 182.232 45.7589C182.303 45.5227 182.35 45.2867 182.35 45.0739V42.641Z" fill="black"/>
<path d="M196.263 37.3737C196.216 38.2241 196.168 39.1217 196.168 40.3025V47.0578C196.168 49.9632 195.578 51.4041 194.633 52.3017C193.594 53.2938 192.059 53.6481 190.783 53.6481C189.484 53.6481 188.043 53.3174 187.193 52.6796L187.594 51.7582C188.374 52.2781 189.484 52.703 190.948 52.703C193.334 52.703 195.058 51.4747 195.058 48.1206V46.5146H195.011C194.421 47.6718 193.098 48.7113 191.067 48.7113C188.208 48.7113 186.201 46.2313 186.201 43.1368C186.201 39.1923 188.799 37.1137 191.303 37.1137C193.547 37.1137 194.657 38.342 195.129 39.2868H195.176L195.223 37.3735H196.263V37.3737ZM195.058 41.7198C195.058 41.3182 195.011 40.9641 194.917 40.6332C194.444 39.2632 193.239 38.0349 191.397 38.0349C188.988 38.0349 187.334 40.019 187.334 43.0187C187.334 45.5697 188.681 47.7665 191.35 47.7665C192.861 47.7665 194.279 46.8453 194.846 45.2157C194.987 44.8377 195.058 44.4123 195.058 44.011V41.7198Z" fill="black"/>
<path d="M199.995 31.9407H201.105V48.7113H199.995V31.9407Z" fill="black"/>
<path d="M206.467 34.1377C206.467 34.6573 206.112 35.1061 205.522 35.1061C205.002 35.1061 204.648 34.6573 204.648 34.1377C204.648 33.6178 205.05 33.1456 205.569 33.1456C206.112 33.1456 206.467 33.5944 206.467 34.1377ZM205.002 48.7113V37.3735H206.112V48.7113H205.002Z" fill="black"/>
<path d="M209.939 40.0899C209.939 39.0506 209.892 38.2713 209.844 37.3737H210.884L210.978 39.4285H211.025C211.64 38.153 213.057 37.1139 214.923 37.1139C216.009 37.1139 218.867 37.6572 218.867 41.9087V48.7116H217.757V42.0032C217.757 39.9482 216.954 38.0821 214.616 38.0821C213.009 38.0821 211.663 39.2159 211.214 40.6804C211.12 40.9639 211.049 41.3416 211.049 41.6961V48.7113H209.939L209.939 40.0899Z" fill="black"/>
<path d="M222.765 42.9244C222.765 46.5621 224.749 47.9791 227.087 47.9791C228.741 47.9791 229.591 47.6484 230.229 47.3413L230.513 48.2389C230.088 48.4751 228.93 48.9473 226.946 48.9473C223.686 48.9473 221.655 46.5852 221.655 43.2549C221.655 39.4755 223.828 37.1134 226.757 37.1134C230.465 37.1134 231.174 40.6091 231.174 42.239C231.174 42.546 231.174 42.735 231.127 42.9242H222.765V42.9244ZM229.993 42.0268C230.017 40.444 229.355 38.0349 226.615 38.0349C224.111 38.0349 223.025 40.2789 222.836 42.0268H229.993Z" fill="black"/>
</svg>
