<svg width="200" height="150" viewBox="0 0 200 150" fill="none" xmlns="http://www.w3.org/2000/svg">
<path d="M200 130.96H0V131.06H200V130.96Z" fill="#E0E0E0"/>
<path d="M47.8601 135.196H34.3641V135.296H47.8601V135.196Z" fill="#E0E0E0"/>
<path d="M31.4279 135.244H23.4199V135.344H31.4279V135.244Z" fill="#E0E0E0"/>
<path d="M121.248 133.1H83.332V133.2H121.248V133.1Z" fill="#E0E0E0"/>
<path d="M67.112 138.032H55.024V138.132H67.112V138.032Z" fill="#E0E0E0"/>
<path d="M165.468 134.476H134V134.576H165.468V134.476Z" fill="#E0E0E0"/>
<path d="M94.8 113.12H17.564C16.9589 113.119 16.379 112.878 15.9516 112.45C15.5241 112.021 15.284 111.441 15.284 110.836V2.264C15.2893 1.66241 15.5317 1.08719 15.9586 0.663287C16.3855 0.239383 16.9624 0.00103056 17.564 0H94.8C95.4057 0 95.9867 0.240635 96.415 0.668968C96.8434 1.0973 97.084 1.67825 97.084 2.284V110.836C97.084 111.442 96.8434 112.023 96.415 112.451C95.9867 112.879 95.4057 113.12 94.8 113.12ZM17.564 0.0800003C16.9855 0.0810599 16.431 0.311626 16.0223 0.721091C15.6135 1.13056 15.384 1.68546 15.384 2.264V110.836C15.384 111.415 15.6135 111.969 16.0223 112.379C16.431 112.788 16.9855 113.019 17.564 113.02H94.8C95.3789 113.019 95.9338 112.789 96.3431 112.379C96.7525 111.97 96.9829 111.415 96.984 110.836V2.264C96.9829 1.68509 96.7525 1.1302 96.3431 0.720847C95.9338 0.311496 95.3789 0.0810577 94.8 0.0800003H17.564Z" fill="#E0E0E0"/>
<path d="M181.324 113.12H104.084C103.479 113.119 102.898 112.878 102.47 112.45C102.042 112.022 101.801 111.441 101.8 110.836V2.264C101.806 1.66205 102.05 1.08683 102.477 0.663037C102.905 0.239243 103.482 0.00101932 104.084 0H181.324C181.925 0.0020818 182.501 0.2409 182.927 0.664691C183.353 1.08848 183.595 1.6631 183.6 2.264V110.836C183.6 111.44 183.36 112.02 182.934 112.448C182.507 112.876 181.928 113.118 181.324 113.12ZM104.084 0.0800003C103.505 0.0810577 102.95 0.311496 102.541 0.720847C102.131 1.1302 101.901 1.68509 101.9 2.264V110.836C101.901 111.415 102.131 111.97 102.541 112.379C102.95 112.789 103.505 113.019 104.084 113.02H181.324C181.903 113.019 182.458 112.789 182.867 112.379C183.276 111.97 183.507 111.415 183.508 110.836V2.264C183.507 1.68509 183.276 1.1302 182.867 0.720847C182.458 0.311496 181.903 0.0810577 181.324 0.0800003H104.084Z" fill="#E0E0E0"/>
<path d="M168.488 84.312H158.296V130.96H168.488V84.312Z" fill="#E0E0E0"/>
<path d="M166.552 130.96H168.488V125.452H164.524L166.552 130.96Z" fill="#F0F0F0"/>
<path d="M130.4 84.312H120.208V130.96H130.4V84.312Z" fill="#E0E0E0"/>
<path d="M168.488 84.312H128.708V127.58H168.488V84.312Z" fill="#F0F0F0"/>
<path d="M149.248 106.392V120.696H166.988V106.392H149.248Z" fill="#E0E0E0"/>
<path d="M130.212 106.392V120.696H147.952V106.392H130.212Z" fill="#E0E0E0"/>
<path d="M140.836 107.936H137.324C136.57 107.936 135.824 107.782 135.131 107.483C134.439 107.185 133.814 106.748 133.296 106.2H144.864C144.346 106.748 143.722 107.185 143.029 107.483C142.336 107.782 141.59 107.936 140.836 107.936Z" fill="#F0F0F0"/>
<path d="M160.052 107.936H156.544C155.789 107.936 155.042 107.782 154.349 107.483C153.656 107.185 153.031 106.748 152.512 106.2H164.084C163.565 106.748 162.94 107.184 162.246 107.483C161.553 107.781 160.807 107.935 160.052 107.936Z" fill="#F0F0F0"/>
<path d="M149.248 87.568V101.872H166.988V87.568H149.248Z" fill="#E0E0E0"/>
<path d="M130.208 87.572V101.876H147.948V87.572H130.208Z" fill="#E0E0E0"/>
<path d="M140.836 89.112H137.324C136.57 89.1116 135.824 88.9579 135.132 88.6601C134.44 88.3624 133.815 87.9268 133.296 87.38H144.864C144.345 87.9268 143.721 88.3624 143.028 88.6601C142.336 88.9579 141.59 89.1116 140.836 89.112Z" fill="#F0F0F0"/>
<path d="M160.052 89.112H156.544C155.79 89.1117 155.043 88.958 154.35 88.6603C153.657 88.3625 153.031 87.927 152.512 87.38H164.084C163.564 87.9266 162.939 88.3619 162.246 88.6596C161.553 88.9574 160.806 89.1113 160.052 89.112Z" fill="#F0F0F0"/>
<path d="M130.644 130.96H128.708V125.452H132.676L130.644 130.96Z" fill="#F0F0F0"/>
<path d="M138.548 77.004C138.548 78.788 139.788 80.028 138.004 80.028C136.22 80.028 132.092 78.788 132.092 77.004C132.092 76.1479 132.432 75.3268 133.037 74.7215C133.643 74.1161 134.464 73.776 135.32 73.776C136.176 73.776 136.997 74.1161 137.603 74.7215C138.208 75.3268 138.548 76.1479 138.548 77.004Z" fill="#E0E0E0"/>
<path d="M144.072 78.544C144.072 80.324 145.312 81.568 143.528 81.568C141.744 81.568 137.6 80.324 137.6 78.544C137.6 77.6879 137.94 76.8669 138.545 76.2615C139.151 75.6561 139.972 75.316 140.828 75.316C141.684 75.316 142.505 75.6561 143.111 76.2615C143.716 76.8669 144.056 77.6879 144.056 78.544H144.072Z" fill="#E0E0E0"/>
<path d="M149.364 77.5999C149.364 79.3799 150.604 80.6239 148.82 80.6239C147.036 80.6239 142.908 79.3799 142.908 77.5999C142.908 76.7438 143.248 75.9228 143.853 75.3174C144.459 74.712 145.28 74.3719 146.136 74.3719C146.992 74.3719 147.813 74.712 148.419 75.3174C149.024 75.9228 149.364 76.7438 149.364 77.5999Z" fill="#E0E0E0"/>
<path d="M130.116 78C130.116 78 130.38 84.296 140.496 84.296C150.612 84.296 150.872 78 150.872 78H130.116Z" fill="#E6E6E6"/>
<path d="M168.912 7.59595H117.62V64.3559H168.912V7.59595Z" fill="#E0E0E0"/>
<path d="M174.4 5.84401H114.3C114.233 5.84348 114.167 5.85623 114.104 5.88153C114.042 5.90682 113.986 5.94415 113.938 5.99138C113.891 6.0386 113.853 6.09478 113.827 6.15668C113.801 6.21857 113.788 6.28496 113.788 6.35201C113.788 6.4878 113.842 6.61803 113.938 6.71405C114.034 6.81007 114.164 6.86401 114.3 6.86401H174.4C174.467 6.86401 174.534 6.85074 174.595 6.82496C174.657 6.79918 174.713 6.76141 174.761 6.71381C174.808 6.66621 174.845 6.60974 174.871 6.54764C174.896 6.48555 174.909 6.41906 174.908 6.35201C174.908 6.21728 174.855 6.08807 174.759 5.9928C174.664 5.89753 174.535 5.84401 174.4 5.84401Z" fill="#E0E0E0"/>
<path d="M171.088 7.59595H118.636V64.3559H171.088V7.59595Z" fill="#E6E6E6"/>
<path d="M168.912 64.356H117.62V68.4H168.912V64.356Z" fill="#E0E0E0"/>
<path d="M174.712 64.356H122.26V68.4H174.712V64.356Z" fill="#E6E6E6"/>
<path d="M168.04 61.304V10.64L121.684 10.64V61.304H168.04Z" fill="#F5F5F5"/>
<path d="M132.208 61.308L150.092 10.644H158.532L140.648 61.308H132.208Z" fill="#FAFAFA"/>
<path d="M142.46 61.308L160.344 10.644H163.636L145.752 61.308H142.46Z" fill="#FAFAFA"/>
<path d="M168.04 61.308V10.644H167.652V61.308H168.04Z" fill="#E0E0E0"/>
<path d="M121.72 4.93201H116.476V53.82H121.72V4.93201Z" fill="#EBEBEB"/>
<path d="M123.76 4.93201H119.676V53.82H123.76V4.93201Z" fill="#E0E0E0"/>
<path d="M126.964 4.93201H121.72V53.82H126.964V4.93201Z" fill="#EBEBEB"/>
<path d="M129.004 4.93201H124.92V53.82H129.004V4.93201Z" fill="#E0E0E0"/>
<path d="M132.208 4.93201H126.964V53.82H132.208V4.93201Z" fill="#EBEBEB"/>
<path d="M166.088 4.93201H163.068V53.82H166.088V4.93201Z" fill="#EBEBEB"/>
<path d="M167.268 4.93201H164.912V53.82H167.268V4.93201Z" fill="#E0E0E0"/>
<path d="M169.108 4.93201H166.088V53.82H169.108V4.93201Z" fill="#EBEBEB"/>
<path d="M170.288 4.93201H167.932V53.82H170.288V4.93201Z" fill="#E0E0E0"/>
<path d="M172.132 4.93201H169.112V53.82H172.132V4.93201Z" fill="#EBEBEB"/>
<path d="M44.148 20.256H38.684V35.164H44.148V20.256Z" fill="#E6E6E6"/>
<path d="M31.2161 38.576L29.4801 43.312H31.2161L41.8401 38.576H31.2161Z" fill="#F0F0F0"/>
<path d="M29.4801 38.576V43.312L40.1081 38.576H29.4801Z" fill="#E0E0E0"/>
<path d="M72.8801 38.576L71.1481 43.312H72.8801L83.5081 38.576H72.8801Z" fill="#F0F0F0"/>
<path d="M71.1481 38.576V43.312L81.7721 38.576H71.1481Z" fill="#E0E0E0"/>
<path d="M21.6841 38.8H33.2401V35.1961H21.6841V38.8Z" fill="#E0E0E0"/>
<path d="M90.688 35.196H33.236V38.8H90.688V35.196Z" fill="#F0F0F0"/>
<path d="M53.2479 35.1639H39.9479L38.3039 17.0959H51.6039L53.2479 35.1639Z" fill="#E0E0E0"/>
<path d="M53.936 35.1639H40.64L38.992 17.0959H52.292L53.936 35.1639Z" fill="#F0F0F0"/>
<path d="M42.456 33.1639L41.176 19.0959H50.476L51.756 33.1639H42.456Z" fill="#FAFAFA"/>
<path d="M59.3039 29.296C59.3039 29.296 59.5479 35.164 68.9759 35.164C78.4039 35.164 78.6479 29.296 78.6479 29.296H59.3039Z" fill="#E6E6E6"/>
<path d="M49.504 129.664H34.932C34.602 129.671 34.2787 129.571 34.0096 129.38C33.7405 129.189 33.5399 128.917 33.4373 128.603C33.3347 128.289 33.3355 127.951 33.4397 127.638C33.5439 127.325 33.7459 127.054 34.016 126.864L34.252 127.184C34.06 127.328 33.918 127.528 33.846 127.757C33.7741 127.985 33.7758 128.231 33.8509 128.459C33.9261 128.686 34.0709 128.885 34.2649 129.026C34.4588 129.166 34.6922 129.243 34.932 129.244H49.504C50.3969 129.243 51.2529 128.888 51.8843 128.256C52.5157 127.625 52.8709 126.769 52.872 125.876V82.752C52.873 81.7802 53.2593 80.8484 53.9461 80.1609C54.6328 79.4734 55.5642 79.0861 56.536 79.084H60.896V79.484H56.536C55.6703 79.4861 54.8407 79.8312 54.2289 80.4437C53.6171 81.0563 53.273 81.8863 53.272 82.752V125.896C53.2699 126.895 52.8722 127.852 52.166 128.558C51.4598 129.264 50.5027 129.662 49.504 129.664Z" fill="#E0E0E0"/>
<path d="M98.1799 79.908H71.9359V130.96H98.1799V79.908Z" fill="#E0E0E0"/>
<path d="M99.1679 79.908H97.0039V130.96H99.1679V79.908Z" fill="#EBEBEB"/>
<path d="M47.6519 83.736H99.8359V79.908H47.6519V83.736Z" fill="#EBEBEB"/>
<path d="M47.3401 79.908H21.0961V130.96H47.3401V79.908Z" fill="#E0E0E0"/>
<path d="M48.324 79.908H46.16V130.96H48.324V79.908Z" fill="#EBEBEB"/>
<path d="M39.2119 64.668H63.6679L67.2119 79.108H42.7559L39.2119 64.668Z" fill="#E0E0E0"/>
<path d="M42.756 79.108L42.856 79.908H67.312L67.216 79.108H42.756Z" fill="#E0E0E0"/>
<path d="M39.968 64.668H64.424L67.968 79.108H43.512L39.968 64.668Z" fill="#F0F0F0"/>
<path d="M44.028 78.448L40.808 65.328H63.904L67.124 78.448H44.028Z" fill="#FAFAFA"/>
<path d="M49.884 79.108L49.98 79.908H76.912L76.812 79.108H49.884Z" fill="#F0F0F0"/>
<path d="M30.8279 76.268C30.8279 76.268 27.2279 70.064 32.2239 65.124C32.2239 65.124 33.5239 65.976 33.5039 67.124C33.4839 68.272 32.1119 68.556 32.4039 69.524C32.6959 70.492 34.0039 71.412 33.1479 72.2C32.2919 72.988 33.2839 73.688 33.2279 74.656C33.1719 75.624 30.8279 76.268 30.8279 76.268Z" fill="#F0F0F0"/>
<path d="M31.0999 76.8359C31.0999 76.8359 32.5599 69.812 26.2639 66.7C26.2639 66.7 25.2959 67.92 25.6759 68.996C26.0559 70.072 27.4519 69.912 27.4719 70.912C27.4919 71.912 26.5519 73.204 27.6119 73.684C28.6719 74.164 27.9479 75.1399 28.3079 76.0359C28.6679 76.9319 31.0999 76.8359 31.0999 76.8359Z" fill="#F0F0F0"/>
<path d="M25.6 75.28C25.6 75.28 25.72 79.908 30.308 79.908C34.896 79.908 35.004 75.28 35.004 75.28H25.6Z" fill="#E0E0E0"/>
<path d="M90.296 130.96H89.384L86.772 118.096L86.316 115.844L83.468 101.844H72.552L66.636 130.96H65.724L71.752 101.288C71.7716 101.187 71.826 101.096 71.9056 101.031C71.9853 100.966 72.0852 100.931 72.188 100.932H83.832C83.9348 100.931 84.0347 100.966 84.1144 101.031C84.194 101.096 84.2484 101.187 84.268 101.288L86.768 113.6L87.228 115.852L90.296 130.96Z" fill="#EBEBEB"/>
<path d="M107.82 130.96H106.904L100.988 101.828H90.076L87.2281 115.852L86.772 118.096L84.16 130.96H83.248L86.316 115.844L86.768 113.6L89.272 101.288C89.2917 101.187 89.346 101.096 89.4257 101.031C89.5053 100.966 89.6052 100.931 89.7081 100.932H101.352C101.455 100.932 101.555 100.967 101.635 101.032C101.716 101.097 101.771 101.187 101.792 101.288L107.82 130.96Z" fill="#EBEBEB"/>
<path d="M80.916 101.38H100.972C102.812 101.378 104.578 100.656 105.892 99.3676C107.206 98.0793 107.962 96.3277 108 94.488L108.748 64.0081C108.759 63.3286 108.634 62.6538 108.382 62.0229C108.129 61.392 107.754 60.8176 107.277 60.333C106.801 59.8484 106.233 59.4634 105.607 59.2002C104.98 58.9371 104.308 58.801 103.628 58.8H91.056C89.7976 58.8007 88.5833 59.2641 87.6443 60.102C86.7054 60.9399 86.1073 62.0938 85.964 63.344L80.916 101.38Z" fill="#E6E6E6"/>
<path d="M91.8519 101.38H70.4799C70.2147 101.38 69.9604 101.275 69.7728 101.087C69.5853 100.9 69.4799 100.645 69.4799 100.38V100.284C69.4799 99.5552 69.7694 98.8562 70.2848 98.3409C70.8001 97.8255 71.4991 97.536 72.2279 97.536H91.8519V101.38Z" fill="#E6E6E6"/>
<path d="M100 149.024C142.833 149.024 177.556 146.997 177.556 144.496C177.556 141.995 142.833 139.968 100 139.968C57.167 139.968 22.444 141.995 22.444 144.496C22.444 146.997 57.167 149.024 100 149.024Z" fill="#F5F5F5"/>
<path d="M110.576 46.3281L110.836 46.5481C110.932 46.6321 111.04 46.7121 111.144 46.7921C111.352 46.9561 111.544 47.1201 111.784 47.2761C112.216 47.5921 112.676 47.8801 113.136 48.1681C114.064 48.74 115.037 49.2363 116.044 49.6521C117.048 50.0796 118.081 50.4326 119.136 50.7081C119.4 50.7801 119.672 50.8281 119.936 50.8881L120.336 50.9761C120.42 50.9761 120.336 50.9761 120.336 50.9961C120.282 51.0089 120.23 51.032 120.184 51.0641C120.148 51.1001 120.148 51.1001 120.164 51.0921C120.243 50.9748 120.305 50.8469 120.348 50.7121C120.49 50.2506 120.577 49.774 120.608 49.2921C120.656 48.7681 120.672 48.2161 120.668 47.6601C120.668 46.5441 120.58 45.4041 120.492 44.2601C120.404 43.1161 120.264 41.9681 120.116 40.8161C119.968 39.6641 119.804 38.5121 119.632 37.3761L121.136 37.0321C121.799 39.3151 122.333 41.6334 122.736 43.9761C122.946 45.1675 123.091 46.3692 123.172 47.5761C123.219 48.1989 123.234 48.8238 123.216 49.4481C123.211 50.1373 123.123 50.8234 122.956 51.4921C122.843 51.9197 122.659 52.3253 122.412 52.6921C122.239 52.9421 122.024 53.1601 121.776 53.3361C121.492 53.5394 121.165 53.6762 120.82 53.7361C120.524 53.7861 120.221 53.7861 119.924 53.7361L119.464 53.6601C119.156 53.6081 118.844 53.5681 118.54 53.5001C117.314 53.2565 116.11 52.9113 114.94 52.4681C113.771 52.0196 112.641 51.4765 111.56 50.8441C111.02 50.5201 110.492 50.1801 109.98 49.8081C109.724 49.6241 109.472 49.4081 109.22 49.2321C109.096 49.1281 108.972 49.0281 108.848 48.9161C108.724 48.8041 108.608 48.7121 108.448 48.5601L110.576 46.3281Z" fill="#E4897B"/>
<path d="M106.228 44.508C110.628 43.912 114.164 47.46 114.164 47.46L110.14 53.668C110.14 53.668 105.828 50.908 105.068 49.028C104.284 47.072 103.976 44.8 106.228 44.508Z" fill="#FA1239"/>
<path opacity="0.6" d="M106.228 44.508C110.628 43.912 114.164 47.46 114.164 47.46L110.14 53.668C110.14 53.668 105.828 50.908 105.068 49.028C104.284 47.072 103.976 44.8 106.228 44.508Z" fill="#FAFAFA"/>
<path d="M119.668 37.9161L118.208 34.9881L122.036 34.9561C122.036 34.9561 122.112 37.0001 121.144 38.1561L119.668 37.9161Z" fill="#E4897B"/>
<path d="M118.888 31.8401L121.736 32.3481L122.036 34.9561L118.208 34.9881L118.888 31.8401Z" fill="#E4897B"/>
<path d="M90.6683 141.148L94.2523 141.492L96.7323 133.076L93.1483 132.728L90.6683 141.148Z" fill="#E4897B"/>
<path d="M67.8802 128.7L70.5362 131.196L76.2722 124.892L73.6162 122.396L67.8802 128.7Z" fill="#E4897B"/>
<path d="M71.7643 130L69.7643 126.4C69.7303 126.338 69.6751 126.291 69.609 126.267C69.5428 126.242 69.4701 126.243 69.4043 126.268L66.3283 127.436C66.2521 127.469 66.1836 127.517 66.1273 127.578C66.071 127.639 66.0281 127.71 66.0013 127.789C65.9745 127.867 65.9645 127.95 65.9719 128.033C65.9793 128.116 66.004 128.196 66.0443 128.268C66.7603 129.508 67.1723 130.072 68.0443 131.652C68.5843 132.628 69.6443 134.852 70.3843 136.204C71.1243 137.556 72.4963 136.88 72.3083 136.256C71.4523 133.456 71.6163 131.884 71.8563 130.656C71.9044 130.433 71.8718 130.201 71.7643 130Z" fill="#263238"/>
<path d="M94.6723 140.4H90.3283C90.2506 140.401 90.1753 140.427 90.1139 140.475C90.0525 140.523 90.0084 140.589 89.9883 140.664L89.0403 144.1C89.018 144.181 89.0148 144.267 89.0312 144.35C89.0475 144.432 89.0829 144.51 89.1345 144.577C89.1861 144.644 89.2525 144.697 89.3285 144.734C89.4045 144.771 89.4879 144.789 89.5723 144.788C91.1043 144.788 91.8283 144.788 93.7403 144.788H99.5763C101.176 144.788 101.496 143.188 100.84 143.036C97.8963 142.388 96.1963 141.488 95.2883 140.636C95.12 140.483 94.9 140.398 94.6723 140.4Z" fill="#263238"/>
<path d="M96.7322 133.076L95.4522 137.416H91.7642L93.1442 132.732L96.7322 133.076Z" fill="#CE6F64"/>
<path d="M73.6122 122.4L76.2722 124.892L73.3122 128.14L70.6562 125.648L73.6122 122.4Z" fill="#CE6F64"/>
<path d="M110.564 42.0241C110.536 39.1161 107.904 38.1001 107.904 38.1001C107.904 38.1001 111.196 31.8681 109.504 27.7321C107.812 23.5961 102.236 22.8681 100.468 24.8001C97.3604 24.6681 96.3724 29.1321 96.3724 29.1321C96.3724 29.1321 93.7724 29.5681 93.0724 31.4601C92.3724 33.3521 94.5044 35.4841 94.5044 35.4841C94.5044 35.4841 91.5364 35.8841 90.4444 38.1681C89.3524 40.4521 90.0244 43.4841 93.3044 46.1001C98.0724 49.9001 106.836 45.1321 106.836 45.1321C106.836 45.1321 110.596 45.3681 110.564 42.0241Z" fill="#263238"/>
<path d="M110 44.9161C110 44.9161 111.6 45.6161 106.256 66.7241L91.4563 65.4401C92.2243 59.4401 92.5563 55.7121 90.7443 43.0881C92.8559 42.8384 94.9829 42.7435 97.1083 42.8041C99.3619 42.8381 101.61 43.0319 103.836 43.3841C105.915 43.7915 107.973 44.3028 110 44.9161Z" fill="#FA1239"/>
<path opacity="0.6" d="M110 44.9161C110 44.9161 111.6 45.6161 106.256 66.7241L91.4563 65.4401C92.2243 59.4401 92.5563 55.7121 90.7443 43.0881C92.8559 42.8384 94.9829 42.7435 97.1083 42.8041C99.3619 42.8381 101.61 43.0319 103.836 43.3841C105.915 43.7915 107.973 44.3028 110 44.9161Z" fill="#FAFAFA"/>
<path d="M106.164 43.8841C105.396 43.7001 104.564 43.5241 103.804 43.3841C101.578 43.0305 99.3298 42.8353 97.0762 42.8001C96.3042 42.7721 95.5322 42.7721 94.8082 42.8001L95.3042 43.7441C95.3922 43.9121 97.5042 47.8521 101.516 50.0881L102.62 50.7041L103.648 49.972C106.24 48.12 106.624 45.7121 106.164 43.8841Z" fill="#FAFAFA"/>
<path d="M98.4003 35.2841C98.6363 37.4881 98.7163 41.4921 97.0803 42.8041C97.0803 42.8041 98.9523 46.3601 102.496 48.3321C105.632 46.1001 103.808 43.3841 103.808 43.3841C101.444 42.5841 101.66 40.8161 102.208 39.1681L98.4003 35.2841Z" fill="#E4897B"/>
<path d="M99.9562 36.868L102.22 39.168C102.082 39.5502 101.978 39.9437 101.908 40.344C101 40.132 99.6802 39.184 99.6642 38.208C99.6824 37.7477 99.7812 37.2942 99.9562 36.868Z" fill="#CE6F64"/>
<path d="M98.3043 30.2841C97.8683 33.8841 97.6083 35.4081 99.0763 37.5721C101.284 40.8201 105.812 40.5641 107.312 37.1721C108.664 34.1081 109.148 28.7241 105.912 26.6641C105.203 26.2074 104.388 25.9395 103.546 25.8856C102.704 25.8317 101.863 25.9937 101.101 26.3563C100.339 26.7188 99.682 27.2698 99.1926 27.9572C98.7033 28.6446 98.3975 29.4455 98.3043 30.2841Z" fill="#E4897B"/>
<path d="M101.096 25.848C103.876 26.568 101.128 35.024 96.6963 32.572C96.6963 32.572 96.8963 29 98.1283 27.484C98.8734 26.5808 99.9348 25.9958 101.096 25.848Z" fill="#263238"/>
<path d="M100.8 26.316C102 28.268 110.9 31.968 107.908 27.768C104.916 23.568 100.8 26.316 100.8 26.316Z" fill="#263238"/>
<path d="M97.1603 33.4001C97.1103 34.1014 97.3389 34.7941 97.7963 35.3281C98.4123 36.0281 99.2243 35.6041 99.4803 34.7561C99.7083 33.9961 99.6643 32.7161 98.8443 32.3241C98.6633 32.2443 98.4654 32.2104 98.2682 32.2256C98.071 32.2407 97.8806 32.3044 97.7139 32.4108C97.5473 32.5173 97.4095 32.6634 97.3129 32.836C97.2163 33.0085 97.1639 33.2023 97.1603 33.4001Z" fill="#E4897B"/>
<path d="M106.24 66.7241C106.24 66.7241 111.252 88.9 107.908 104.532C105.668 115.004 97.5842 136.156 97.5842 136.156L91.2642 135.996C91.2642 135.996 97.3802 113.796 98.6482 105.068C100.812 90.1321 95.3922 65.7841 95.3922 65.7841L106.24 66.7241Z" fill="#263238"/>
<path d="M100.46 71.2001L97.3002 76.1841C98.2526 82.0941 98.8563 88.0551 99.1082 94.0361C103.552 86.0801 101.448 75.4121 100.46 71.2001Z" fill="#263238"/>
<path d="M98.1043 136.484L90.2963 136.284L90.7483 133.888L99.2723 134.292L98.1043 136.484Z" fill="#FA1239"/>
<path opacity="0.6" d="M98.1043 136.484L90.2963 136.284L90.7483 133.888L99.2723 134.292L98.1043 136.484Z" fill="#FAFAFA"/>
<path d="M103 66.4841C103 66.4841 100.06 90.0041 93.6843 102.844C88.5363 113.2 74.8003 128 74.8003 128L71.2883 124.38C71.2883 124.38 80.5683 108.336 84.3963 101.444C93.7803 84.5521 86.1083 71.6641 91.4283 65.4441L103 66.4841Z" fill="#263238"/>
<path d="M75.1522 128.464L70.6162 124.044L72.1242 121.996L77.0642 127.104L75.1522 128.464Z" fill="#FA1239"/>
<path opacity="0.6" d="M75.1522 128.464L70.6162 124.044L72.1242 121.996L77.0642 127.104L75.1522 128.464Z" fill="#FAFAFA"/>
<path d="M91.2762 64.552L90.4962 65.82C90.4322 65.92 90.5482 66.036 90.7162 66.048L106.256 67.392C106.392 67.392 106.508 67.348 106.524 67.264L106.772 65.952C106.772 65.86 106.68 65.772 106.532 65.76L91.5282 64.46C91.4818 64.4523 91.4342 64.4567 91.3901 64.4728C91.3459 64.4889 91.3067 64.5162 91.2762 64.552Z" fill="#FA1239"/>
<path opacity="0.3" d="M91.2762 64.552L90.4962 65.82C90.4322 65.92 90.5482 66.036 90.7162 66.048L106.256 67.392C106.392 67.392 106.508 67.348 106.524 67.264L106.772 65.952C106.772 65.86 106.68 65.772 106.532 65.76L91.5282 64.46C91.4818 64.4523 91.4342 64.4567 91.3901 64.4728C91.3459 64.4889 91.3067 64.5162 91.2762 64.552Z" fill="black"/>
<path d="M93.1483 66.4001L92.7483 66.3641C92.6683 66.3641 92.6123 66.3121 92.6203 66.2601L92.9603 64.5561C92.9603 64.5041 93.0443 64.4681 93.1243 64.4761L93.5243 64.5121C93.6043 64.5121 93.6603 64.5641 93.6523 64.6161L93.3163 66.3201C93.3003 66.3761 93.2283 66.4001 93.1483 66.4001Z" fill="#263238"/>
<path d="M105.116 67.44L104.716 67.404C104.636 67.404 104.58 67.352 104.588 67.3L104.928 65.592C104.928 65.544 105.012 65.508 105.092 65.516L105.492 65.552C105.572 65.552 105.628 65.604 105.62 65.652L105.284 67.36C105.268 67.412 105.2 67.444 105.116 67.44Z" fill="#263238"/>
<path d="M99.1323 66.92L98.7323 66.888C98.6523 66.888 98.5963 66.832 98.6043 66.784L98.9443 65.076C98.9443 65.028 99.0283 64.992 99.1083 65L99.5083 65.032C99.5883 65.032 99.6443 65.088 99.6363 65.136L99.3003 66.844C99.2843 66.892 99.2003 66.928 99.1323 66.92Z" fill="#263238"/>
<path d="M103.532 32.2721C103.48 32.5601 103.592 32.8241 103.78 32.8601C103.968 32.8961 104.18 32.6881 104.22 32.3961C104.26 32.1041 104.164 31.8401 103.972 31.8081C103.78 31.7761 103.6 32.0001 103.532 32.2721Z" fill="#263238"/>
<path d="M106.8 32.8721C106.748 33.1601 106.86 33.4241 107.048 33.4601C107.236 33.4961 107.448 33.2881 107.488 32.9961C107.528 32.7041 107.432 32.4401 107.24 32.4081C107.048 32.3761 106.872 32.5801 106.8 32.8721Z" fill="#263238"/>
<path d="M107.172 32.4L107.904 32.328C107.904 32.328 107.448 32.8 107.172 32.4Z" fill="#263238"/>
<path d="M105.856 33.2001C105.996 33.9099 106.232 34.5975 106.556 35.2441C106.388 35.3224 106.205 35.3629 106.02 35.3629C105.835 35.3629 105.652 35.3224 105.484 35.2441L105.856 33.2001Z" fill="#DE5753"/>
<path d="M104.268 36.2041C103.878 36.1436 103.508 35.9904 103.189 35.7572C102.87 35.524 102.612 35.2178 102.436 34.8641C102.43 34.8466 102.43 34.8272 102.438 34.81C102.445 34.7928 102.459 34.7792 102.476 34.7721C102.485 34.7682 102.494 34.766 102.503 34.7657C102.512 34.7654 102.521 34.7669 102.53 34.7703C102.539 34.7737 102.546 34.7788 102.553 34.7853C102.56 34.7918 102.565 34.7995 102.568 34.8081C102.737 35.1378 102.981 35.423 103.28 35.6405C103.58 35.8581 103.927 36.0018 104.292 36.0601C104.311 36.0601 104.33 36.0677 104.343 36.0812C104.357 36.0947 104.364 36.113 104.364 36.1321C104.364 36.1512 104.357 36.1695 104.343 36.183C104.33 36.1965 104.311 36.2041 104.292 36.2041H104.268Z" fill="#263238"/>
<path d="M102.752 30.0001C102.722 30.0006 102.692 29.9915 102.667 29.9739C102.642 29.9563 102.623 29.9312 102.613 29.9023C102.603 29.8733 102.603 29.842 102.612 29.8128C102.621 29.7836 102.64 29.7582 102.664 29.7401C102.875 29.5703 103.123 29.4538 103.389 29.4002C103.654 29.3465 103.928 29.3575 104.188 29.4321C104.206 29.4383 104.223 29.4481 104.237 29.4607C104.251 29.4734 104.262 29.4887 104.27 29.5058C104.279 29.5229 104.283 29.5414 104.284 29.5604C104.285 29.5793 104.283 29.5982 104.276 29.6161C104.27 29.6339 104.26 29.6504 104.248 29.6645C104.235 29.6786 104.22 29.6901 104.202 29.6983C104.185 29.7064 104.167 29.7112 104.148 29.7121C104.129 29.7131 104.11 29.7104 104.092 29.7041C103.878 29.6451 103.652 29.6383 103.434 29.6842C103.216 29.7301 103.013 29.8274 102.84 29.9681C102.815 29.9873 102.784 29.9984 102.752 30.0001Z" fill="#263238"/>
<path d="M108.672 31.7681C108.651 31.768 108.63 31.7633 108.611 31.7543C108.591 31.7453 108.574 31.7323 108.56 31.7161C108.424 31.5399 108.247 31.3984 108.046 31.3032C107.844 31.2079 107.623 31.1616 107.4 31.1681C107.362 31.1715 107.324 31.1601 107.294 31.1362C107.265 31.1124 107.245 31.0779 107.24 31.0401C107.238 31.0214 107.24 31.0024 107.245 30.9843C107.25 30.9662 107.259 30.9494 107.271 30.9348C107.283 30.9203 107.298 30.9083 107.314 30.8995C107.331 30.8908 107.349 30.8856 107.368 30.8841C107.639 30.8701 107.909 30.9217 108.156 31.0346C108.402 31.1474 108.618 31.318 108.784 31.5321C108.81 31.5596 108.825 31.5961 108.825 31.6341C108.825 31.672 108.81 31.7086 108.784 31.7361C108.752 31.7604 108.712 31.7718 108.672 31.7681Z" fill="#263238"/>
<path d="M91.8363 48.4001C91.2347 49.5937 90.567 50.7529 89.8363 51.8721C89.1163 52.9761 88.3563 54.0561 87.5363 55.0961C86.7077 56.1398 85.8196 57.1348 84.8763 58.0761C84.3883 58.5361 83.9123 59.0041 83.3883 59.4361L82.9883 59.7641L82.8923 59.8441L82.7643 59.9441C82.6799 60.0129 82.5918 60.077 82.5003 60.1361C82.1366 60.3853 81.741 60.5844 81.3243 60.7281C80.5394 60.9841 79.7101 61.0753 78.8883 60.9961C78.1521 60.9225 77.4272 60.7627 76.7283 60.5201C75.4336 60.0684 74.1991 59.4599 73.0523 58.7081C70.8458 57.2768 68.8134 55.5935 66.9963 53.6921L68.0603 52.5761C69.0163 53.3441 70.0243 54.1081 71.0563 54.8001C72.0671 55.5082 73.1197 56.1547 74.2083 56.7361C75.2447 57.3055 76.3389 57.7627 77.4723 58.1001C78.5523 58.4001 79.6363 58.4521 80.3843 58.1401C80.8069 57.9563 81.1849 57.6835 81.4923 57.3401C81.9363 56.9401 82.3483 56.4961 82.7683 56.0641C83.5883 55.1721 84.3483 54.2161 85.0963 53.2641C85.8443 52.3121 86.5203 51.2641 87.1763 50.2241C87.5083 49.7041 87.8243 49.1761 88.1363 48.6481C88.4483 48.1201 88.7483 47.5641 89.0083 47.0681L91.8363 48.4001Z" fill="#E4897B"/>
<path d="M69.0723 53.052L67.6483 50.108L65.2803 53.116C65.2803 53.116 66.8483 54.424 68.3723 54.376L69.0723 53.052Z" fill="#E4897B"/>
<path d="M66.0923 49.248L64.7523 51.812L65.2803 53.116L67.6483 50.1081L66.0923 49.248Z" fill="#E4897B"/>
<path d="M90.7122 43.0881C88.8962 43.4081 86.3482 48.6201 86.3482 48.6201L91.3362 53.1281C91.3362 53.1281 94.5682 48.7881 94.3762 46.4201C94.2122 44.4001 93.0242 42.6801 90.7122 43.0881Z" fill="#FA1239"/>
<path opacity="0.6" d="M90.7122 43.0881C88.8962 43.4081 86.3482 48.6201 86.3482 48.6201L91.3362 53.1281C91.3362 53.1281 94.5682 48.7881 94.3762 46.4201C94.2122 44.4001 93.0242 42.6801 90.7122 43.0881Z" fill="#FAFAFA"/>
<path d="M72.4644 131.932C72.4166 131.932 72.3692 131.924 72.3244 131.908C71.8884 131.764 71.6044 130.96 71.4724 130.492C71.4684 130.478 71.4686 130.464 71.4729 130.45C71.4772 130.437 71.4853 130.425 71.4964 130.416C71.5085 130.409 71.5223 130.405 71.5364 130.405C71.5504 130.405 71.5642 130.409 71.5764 130.416C71.7084 130.484 72.8684 131.108 72.9044 131.564C72.9098 131.614 72.9011 131.665 72.8791 131.71C72.8572 131.755 72.823 131.793 72.7804 131.82C72.6903 131.891 72.5792 131.931 72.4644 131.932ZM71.6644 130.62C71.8644 131.264 72.1244 131.688 72.3724 131.772C72.4289 131.789 72.4889 131.791 72.5464 131.777C72.6039 131.764 72.657 131.736 72.7004 131.696C72.7222 131.683 72.7399 131.664 72.7512 131.641C72.7626 131.619 72.7671 131.593 72.7644 131.568C72.7404 131.288 72.0604 130.844 71.6604 130.62H71.6644Z" fill="#FA1239"/>
<path d="M72.6442 130.8C72.2488 130.799 71.8589 130.707 71.5042 130.532C71.493 130.527 71.4837 130.518 71.4773 130.507C71.4709 130.497 71.4677 130.484 71.4682 130.472C71.4683 130.459 71.4721 130.446 71.4791 130.434C71.4862 130.423 71.4963 130.414 71.5082 130.408C71.5442 130.408 72.4642 129.884 72.9602 130.06C73.0212 130.08 73.0769 130.113 73.1233 130.158C73.1697 130.202 73.2056 130.256 73.2282 130.316C73.2598 130.374 73.2707 130.441 73.259 130.505C73.2474 130.57 73.2139 130.629 73.1642 130.672C73.0095 130.77 72.8268 130.815 72.6442 130.8ZM71.7002 130.472C72.1002 130.64 72.8562 130.744 73.0722 130.56C73.1082 130.532 73.1402 130.48 73.0962 130.368C73.0803 130.327 73.0555 130.291 73.0237 130.261C72.9918 130.231 72.9537 130.209 72.9122 130.196C72.5722 130.076 71.9602 130.344 71.7002 130.472Z" fill="#FA1239"/>
<path d="M96.6003 141.104C96.1961 141.095 95.794 141.044 95.4003 140.952C95.3853 140.949 95.3719 140.941 95.3618 140.929C95.3517 140.918 95.3456 140.903 95.3443 140.888C95.3421 140.873 95.3449 140.858 95.3521 140.845C95.3594 140.832 95.3706 140.822 95.3843 140.816C95.5643 140.732 97.1363 140.016 97.5363 140.272C97.572 140.297 97.6004 140.331 97.6187 140.37C97.637 140.409 97.6444 140.453 97.6403 140.496C97.6355 140.574 97.6137 140.651 97.5764 140.72C97.5391 140.789 97.4872 140.849 97.4243 140.896C97.1768 141.047 96.8896 141.119 96.6003 141.104ZM95.6643 140.856C96.1323 140.944 96.9963 141.056 97.3523 140.788C97.3993 140.753 97.4381 140.708 97.4657 140.656C97.4934 140.604 97.5093 140.547 97.5123 140.488C97.5146 140.47 97.5122 140.452 97.5051 140.435C97.4981 140.418 97.4868 140.403 97.4723 140.392C97.2483 140.24 96.3163 140.568 95.6643 140.856Z" fill="#FA1239"/>
<path d="M95.4323 140.952C95.4169 140.958 95.3997 140.958 95.3843 140.952C95.3743 140.943 95.3669 140.932 95.3627 140.919C95.3585 140.907 95.3576 140.893 95.3603 140.88C95.3603 140.816 95.7363 139.26 96.5883 139.36C96.8043 139.384 96.8603 139.492 96.8723 139.576C96.9283 139.976 95.9323 140.776 95.4603 140.964L95.4323 140.952ZM96.5123 139.484C95.9643 139.484 95.6483 140.388 95.5403 140.752C96.0563 140.48 96.7643 139.832 96.7403 139.58C96.7403 139.56 96.7403 139.504 96.5843 139.488L96.5123 139.484Z" fill="#FA1239"/>
<path d="M103.888 31.8081L104.62 31.7321C104.62 31.7321 104.164 32.2121 103.888 31.8081Z" fill="#263238"/>
<path opacity="0.6" d="M73.7963 9.01208L62.0723 84.8001L128.04 94.9921L139.764 19.2001L73.7963 9.01208ZM100.9 52.1201C97.8723 51.6515 95.0515 50.2953 92.7945 48.2231C90.5375 46.1509 88.9459 43.4558 88.2209 40.4789C87.4959 37.5019 87.6703 34.3768 88.7218 31.4989C89.7733 28.6211 91.6548 26.1197 94.1283 24.3114C96.6017 22.5031 99.5559 21.469 102.617 21.34C105.678 21.2111 108.709 21.993 111.326 23.5868C113.943 25.1807 116.028 27.5149 117.318 30.2941C118.608 33.0733 119.044 36.1727 118.572 39.2001C117.94 43.2558 115.724 46.8947 112.41 49.3172C109.096 51.7398 104.957 52.7479 100.9 52.1201Z" fill="#FA1239"/>
<g style="mix-blend-mode:multiply" opacity="0.3">
<path d="M126.048 92.1161H125.948L59.8801 81.8801V81.7801L71.6361 5.90405H71.7321L137.8 16.1401V16.2401L126.048 92.1161ZM60.1081 81.7161L125.88 91.8881L137.572 16.2881L71.8001 6.13205L60.1081 81.7161Z" fill="#FA1239"/>
</g>
<path d="M103.276 52.904C102.45 52.9031 101.625 52.8389 100.808 52.712C96.7048 52.0718 93.0086 49.8672 90.4954 46.5607C87.9823 43.2541 86.8474 39.1028 87.3289 34.9776C87.8104 30.8524 89.871 27.074 93.0781 24.4352C96.2853 21.7964 100.39 20.5023 104.531 20.8244C108.671 21.1466 112.526 23.0599 115.287 26.1629C118.047 29.266 119.499 33.3176 119.336 37.4676C119.174 41.6176 117.411 45.5435 114.416 48.4216C111.422 51.2997 107.43 52.9062 103.276 52.904ZM100.992 51.528C103.901 51.9775 106.878 51.5543 109.547 50.3119C112.215 49.0696 114.456 47.0639 115.984 44.5485C117.513 42.0331 118.261 39.1208 118.135 36.18C118.009 33.2392 117.013 30.4019 115.275 28.0267C113.536 25.6516 111.132 23.8454 108.367 22.8363C105.602 21.8273 102.6 21.6609 99.7398 22.358C96.88 23.0552 94.2912 24.5846 92.3005 26.7529C90.3099 28.9213 89.0069 31.6312 88.5563 34.54C87.9573 38.4412 88.9303 42.4207 91.2617 45.6055C93.5931 48.7902 97.0925 50.9202 100.992 51.528Z" fill="#FAFAFA"/>
<path d="M88.1576 56.809L73.6263 54.562L73.1214 57.8272L87.6528 60.0742L88.1576 56.809Z" fill="#FA1239"/>
<path opacity="0.6" d="M88.1576 56.809L73.6263 54.562L73.1214 57.8272L87.6528 60.0742L88.1576 56.809Z" fill="#FAFAFA"/>
<path d="M99.9028 58.6257L90.0717 57.1055L89.5668 60.3707L99.3979 61.8908L99.9028 58.6257Z" fill="#FA1239"/>
<path opacity="0.6" d="M99.9028 58.6257L90.0717 57.1055L89.5668 60.3707L99.3979 61.8908L99.9028 58.6257Z" fill="#FAFAFA"/>
<path d="M125.148 69.3039L72.6008 61.1785L72.0959 64.4437L124.643 72.5691L125.148 69.3039Z" fill="#FAFAFA"/>
<path d="M98.0856 72.0475L71.91 68.0815L71.4144 71.3525L97.59 75.3185L98.0856 72.0475Z" fill="#FAFAFA"/>
<path d="M119.61 75.5561L102.13 72.8531L101.625 76.1183L119.105 78.8213L119.61 75.5561Z" fill="#FAFAFA"/>
<path d="M112.464 81.5622L70.4556 75.0664L69.9507 78.3316L111.959 84.8274L112.464 81.5622Z" fill="#FAFAFA"/>
<path d="M140.468 94.9921H140.068C140.07 93.9995 139.947 93.0105 139.704 92.0481L140.104 91.9521C140.352 92.9463 140.474 93.9676 140.468 94.9921ZM138.9 89.8241C138.02 87.9822 136.69 86.3918 135.032 85.2001L135.264 84.8761C136.976 86.1052 138.351 87.7447 139.264 89.6441L138.9 89.8241Z" fill="#FA1239"/>
<path opacity="0.6" d="M140.468 94.9921H140.068C140.07 93.9995 139.947 93.0105 139.704 92.0481L140.104 91.9521C140.352 92.9463 140.474 93.9676 140.468 94.9921ZM138.9 89.8241C138.02 87.9822 136.69 86.3918 135.032 85.2001L135.264 84.8761C136.976 86.1052 138.351 87.7447 139.264 89.6441L138.9 89.8241Z" fill="#FAFAFA"/>
<path d="M128.04 83.9641C125.859 83.9641 123.727 84.6109 121.913 85.8227C120.1 87.0344 118.686 88.7568 117.852 90.7719C117.017 92.787 116.799 95.0043 117.224 97.1436C117.65 99.2828 118.7 101.248 120.242 102.79C121.785 104.332 123.75 105.383 125.889 105.808C128.028 106.234 130.245 106.015 132.261 105.181C134.276 104.346 135.998 102.932 137.21 101.119C138.421 99.3054 139.068 97.1732 139.068 94.9921C139.068 92.0673 137.906 89.2623 135.838 87.1941C133.77 85.126 130.965 83.9641 128.04 83.9641ZM128.04 104.592C126.142 104.592 124.286 104.029 122.707 102.974C121.128 101.919 119.898 100.42 119.171 98.6659C118.444 96.9117 118.254 94.9815 118.625 93.1192C118.995 91.257 119.909 89.5465 121.252 88.2039C122.595 86.8613 124.305 85.947 126.167 85.5766C128.03 85.2062 129.96 85.3963 131.714 86.1229C133.468 86.8495 134.968 88.0799 136.022 89.6586C137.077 91.2373 137.64 93.0934 137.64 94.9921C137.64 97.5382 136.629 99.98 134.828 101.78C133.028 103.581 130.586 104.592 128.04 104.592Z" fill="#FA1239"/>
<path opacity="0.6" d="M128.04 83.9641C125.859 83.9641 123.727 84.6109 121.913 85.8227C120.1 87.0344 118.686 88.7568 117.852 90.7719C117.017 92.787 116.799 95.0043 117.224 97.1436C117.65 99.2828 118.7 101.248 120.242 102.79C121.785 104.332 123.75 105.383 125.889 105.808C128.028 106.234 130.245 106.015 132.261 105.181C134.276 104.346 135.998 102.932 137.21 101.119C138.421 99.3054 139.068 97.1732 139.068 94.9921C139.068 92.0673 137.906 89.2623 135.838 87.1941C133.77 85.126 130.965 83.9641 128.04 83.9641ZM128.04 104.592C126.142 104.592 124.286 104.029 122.707 102.974C121.128 101.919 119.898 100.42 119.171 98.6659C118.444 96.9117 118.254 94.9815 118.625 93.1192C118.995 91.257 119.909 89.5465 121.252 88.2039C122.595 86.8613 124.305 85.947 126.167 85.5766C128.03 85.2062 129.96 85.3963 131.714 86.1229C133.468 86.8495 134.968 88.0799 136.022 89.6586C137.077 91.2373 137.64 93.0934 137.64 94.9921C137.64 97.5382 136.629 99.98 134.828 101.78C133.028 103.581 130.586 104.592 128.04 104.592Z" fill="#FAFAFA"/>
<path d="M128.04 104.588C133.34 104.588 137.636 100.292 137.636 94.992C137.636 89.6923 133.34 85.396 128.04 85.396C122.741 85.396 118.444 89.6923 118.444 94.992C118.444 100.292 122.741 104.588 128.04 104.588Z" fill="#FA1239"/>
<path opacity="0.2" d="M128.04 104.588C133.34 104.588 137.636 100.292 137.636 94.992C137.636 89.6923 133.34 85.396 128.04 85.396C122.741 85.396 118.444 89.6923 118.444 94.992C118.444 100.292 122.741 104.588 128.04 104.588Z" fill="black"/>
<path d="M126.548 101.064L120.916 95.432L122.332 94.02L126.548 98.236L133.752 91.032L135.164 92.448L126.548 101.064Z" fill="#FAFAFA"/>
</svg>
